<svg width="1080" height="1080" viewBox="0 0 1080 1080" fill="none" xmlns="http://www.w3.org/2000/svg">
<path d="M561.369 158.319C562.39 162.206 563.48 166.075 564.42 169.98C565.021 172.468 566.785 173.49 568.852 174.74C577.214 179.803 586.486 181.647 595.875 183.665C604.639 185.553 613.026 189.124 621.746 191.265C629.39 193.141 636.564 195.932 642.803 200.549C648.435 204.715 652.037 210.582 651.833 217.88C651.542 228.129 653.362 238.094 654.705 248.183C656.054 258.303 660.325 267.686 662.664 277.459C663.611 281.407 665.084 285.542 665.474 289.608C665.641 291.379 662.949 292.592 660.956 293.037C656.958 293.929 653.034 295.129 649.035 296.045C647.185 296.472 646.362 297.166 646.269 299.276C645.78 310.819 646.368 322.363 645.693 333.893C645.408 338.783 645.495 343.716 645.885 348.531C647.061 363.082 644.146 377.943 650.224 391.275C653.455 391.492 656.71 391.331 659.78 392.012C663.871 392.915 665.152 395.781 664.168 399.736C663.586 402.063 663.308 404.471 663.048 406.86C662.751 409.602 662.349 412.375 662.479 415.11C662.652 418.842 662.77 422.711 663.847 426.239C665.035 430.132 664.657 433.808 664.311 437.658C663.908 442.158 663.946 446.695 663.624 451.207C663.234 456.734 662.986 462.261 660.665 467.497C658.616 472.121 658.146 472.579 653.275 471.786C651.344 471.471 649.339 471.124 647.426 471.347C646.201 471.489 644.109 471.953 645.514 474.336C647.141 477.084 648.404 480.074 650.236 482.673C652.099 485.323 652.959 487.811 651.938 491.072C649.524 498.803 647.476 506.651 645.037 514.375C644.189 517.049 642.239 519.395 641.478 522.081C640.135 526.835 639.157 531.712 638.321 536.589C637.139 543.465 636.57 550.459 635.115 557.274C632.813 568.087 633.432 578.968 633.512 589.855C633.543 594.268 633.512 598.675 633.512 603.273C636.774 603.911 637.158 605.916 637.152 608.516C637.146 614.662 637.913 620.839 637.529 626.954C637.04 634.703 635.716 642.396 634.757 650.108C634.286 653.902 633.58 657.684 633.432 661.491C633.172 667.835 630.9 673.547 628.505 679.254C626.679 683.605 624.891 687.981 622.885 692.252C620.657 696.987 618.466 701.771 615.798 706.265C607.362 720.444 601.34 735.714 595.12 750.915C591.567 759.598 587.389 768.034 583.824 776.712C582.673 779.522 582.797 782.827 581.912 785.779C580.934 789.035 579.108 792.049 578.328 795.336C577.771 797.675 578.328 800.275 578.396 802.757C578.396 802.85 578.483 802.943 578.538 803.023C580.562 805.827 576.459 809.082 579.665 812.319C581.627 814.3 581.949 818.1 582.562 821.17C583.645 826.598 584.004 832.193 585.372 837.541C586.975 843.805 589.407 849.846 591.332 856.035C594.259 865.437 597.051 874.882 599.904 884.308C600.981 887.855 601.755 891.308 604.014 894.626C606.49 898.265 607.041 903.186 608.6 907.487C609.467 909.876 609.238 911.925 607.907 914.066C604.676 919.272 600.647 923.202 594.866 925.913C588.992 928.667 583.948 933.136 578.328 936.491C573.884 939.14 572.665 942.302 573.785 947.458C575.722 956.383 576.818 965.494 578.105 973.546C582.401 975.242 585.656 976.536 589.685 978.126C583.595 981.506 585.984 986.16 585.997 990.084C586.009 992.901 586.863 995.748 587.606 998.508C587.915 999.659 588.807 1001.39 589.642 1001.53C592.464 1001.97 592.588 1004.3 593.034 1006.05C594.532 1011.99 595.231 1018.17 597.119 1023.97C599.514 1031.34 602.535 1038.54 605.728 1045.62C608.34 1051.41 610.284 1057.17 609.863 1063.64C609.566 1068.23 607.932 1070.84 603.581 1072.27C598.685 1073.86 593.733 1073.63 588.621 1073.3C583.496 1072.97 578.291 1074.2 573.104 1074.56C563.789 1075.19 554.486 1075.61 545.37 1072.79C539.842 1071.08 536.513 1067.54 535.603 1061.83C535.077 1058.52 534.513 1055.2 534.303 1051.87C534.086 1048.38 535.405 1047.18 539.224 1046.96C540.065 1042.29 540.888 1037.56 541.773 1032.83C543.055 1026 543.859 1019.03 545.797 1012.38C548.613 1002.69 549.95 992.95 549.12 982.942C548.916 980.478 547.66 978.127 547.072 975.676C545.054 967.258 543.067 958.834 541.186 950.386C540.622 947.848 539.756 946.307 536.859 945.459C525.916 942.253 515.06 938.75 504.285 935.024C501.338 934.002 498.801 931.811 496.275 930.276C495.019 936.874 493.205 943.93 492.426 951.097C491.349 961.019 490.996 971.027 490.495 981.005C490.427 982.416 490.915 984.124 491.745 985.269C493.633 987.887 492.853 990.716 492.884 993.47C492.958 999.022 492.908 1004.57 492.908 1010.44C489.758 1009.75 489.777 1011.33 490.408 1013.42C492.494 1020.36 494.542 1027.31 496.69 1034.54C493.899 1040.67 488.075 1043.73 481.229 1044.69C477.874 1045.16 474.087 1044.95 470.911 1043.85C464.53 1041.62 458.13 1039.1 452.356 1035.66C449.527 1033.98 448.042 1030.01 446.08 1026.99C445.931 1026.76 446.853 1025.85 447.429 1025.04C446.482 1021.79 445.312 1018.06 444.347 1014.28C444 1012.92 444.093 1011.44 444.087 1010.02C444.05 1002.91 443.851 995.81 444.111 988.716C444.223 985.628 445.349 982.583 445.906 979.5C446.21 977.829 446.47 976.115 446.445 974.425C446.315 966.101 446.092 957.776 445.869 949.457C445.733 944.407 445.547 939.362 445.362 934.318C444.941 922.893 451.502 911.987 465.997 914.432C467.693 914.716 469.909 912.451 471.747 911.164C474.39 909.313 476.934 907.32 479.453 905.296C479.973 904.881 480.585 903.959 480.455 903.458C478.908 897.566 477.404 891.655 475.454 885.886C475.04 884.655 472.836 884.085 471.58 883.058C468.64 880.662 465.861 878.057 462.853 875.754C460.29 873.798 457.177 872.48 454.887 870.277C451.248 866.773 448.246 862.614 444.675 859.031C441.859 856.196 442.768 852.439 441.698 849.202C441.277 847.921 442.762 846.064 443.202 844.424C443.821 842.096 445.442 842.784 447.008 842.914C448.599 843.043 450.208 842.944 452.319 842.944C451.861 842.208 451.477 841.112 450.722 840.462C447.8 837.987 448.314 836.656 451.235 834.094C453.371 832.224 454.497 829.099 455.785 826.394C456.552 824.772 457.233 823.015 455.877 821.077C455.339 820.31 455.587 818.744 455.908 817.673C457.369 812.815 458.954 807.993 460.557 803.184C460.891 802.187 461.324 801.135 462.005 800.374C462.618 799.687 463.633 799.353 464.468 798.864C464.914 799.049 465.36 799.235 465.799 799.415C465.18 791.071 464.561 782.728 463.942 774.385C463.484 768.171 463.082 761.944 462.537 755.736C462.011 749.77 461.083 743.834 460.792 737.861C460.476 731.387 460.674 724.895 460.68 718.408C460.693 709.904 461.089 701.381 460.643 692.902C460.34 687.047 458.954 681.241 457.945 675.435C455.19 659.628 452.275 643.845 449.645 628.012C448.685 622.219 448.667 616.259 447.627 610.484C447.076 607.408 444.997 604.641 444.074 601.596C441.054 591.625 437.953 581.666 435.446 571.565C432.766 560.759 430.612 549.822 428.44 538.898C426.855 530.907 425.748 522.818 424.157 514.821C423.538 511.702 421.947 508.793 421.186 505.686C419.589 499.174 418.029 492.645 416.872 486.047C415.752 479.647 415.009 473.173 414.359 466.705C413.585 459.012 412.799 451.3 412.533 443.581C412.119 431.401 414.638 419.622 418.296 408.048C419.657 403.74 420.87 399.346 421.656 394.902C422.733 388.824 420.227 383.266 418.277 377.696C417.59 375.733 416.488 373.92 415.51 371.896C418.661 370.101 417.708 367.396 417.547 364.444C417.064 355.575 417.064 346.668 420.802 338.275C421.495 336.722 422.102 335.094 422.467 333.435C422.622 332.736 422.3 331.609 421.78 331.133C418.302 327.958 418.345 325.426 422.003 322.294C422.647 321.744 423.414 320.951 423.513 320.196C424.244 314.768 424.819 309.315 425.438 303.937C420.833 302.321 416.327 300.743 411.822 299.165C409.018 298.181 408.343 296.392 409.012 293.464C413.127 275.484 417.243 257.498 420.988 239.444C421.935 234.87 421.483 230.011 421.762 225.288C422.306 215.986 426.781 208.843 435.205 205.26C446.692 200.376 458.576 196.421 470.33 192.169C475.293 190.374 480.406 188.994 485.333 187.106C487.728 186.184 489.9 184.606 492.067 183.176C493.899 181.969 495.477 181.431 497.086 183.51C498.733 185.633 500.509 185.454 502.36 183.634C508.091 177.989 513.86 172.388 518.681 167.678C517.784 163.327 517.202 159.941 516.354 156.63C515.921 154.928 515.054 153.331 514.317 151.715C513.383 149.648 512.591 147.463 511.347 145.6C510.4 144.189 508.828 143.193 507.101 141.608C505.789 146.671 504.619 151.264 503.387 155.844C502.811 157.985 501.994 160.077 499.141 158.697C498.337 158.307 497.482 157.341 497.291 156.494C496.288 152.118 495.489 147.692 494.623 143.285C494.196 143.285 493.769 143.285 493.342 143.285C492.395 146.85 491.175 150.372 490.575 153.999C489.999 157.496 488.953 160.653 486.527 163.221C486.057 163.717 484.8 164.094 484.299 163.816C483.123 163.166 481.526 162.25 481.254 161.148C479.558 154.395 478.178 147.562 476.172 140.816C475.56 144.071 474.904 147.321 474.346 150.583C473.653 154.668 473.344 158.852 472.242 162.819C471.797 164.422 469.884 166.366 468.306 166.731C466.214 167.22 464.351 165.567 463.979 163.159C463.719 161.482 463.818 159.817 461.349 159.848C460.946 159.848 460.346 158.691 460.142 157.979C459.244 154.909 458.749 151.684 457.567 148.732C455.382 143.298 452.838 138.006 450.387 132.683C450.158 132.182 449.527 131.866 448.351 130.814C448.351 132.968 448.5 134.435 448.302 135.858C448.153 136.954 447.825 138.594 447.113 138.903C446.166 139.312 444.681 138.854 443.573 138.408C442.112 137.814 440.868 136.657 439.389 136.131C437.452 135.437 436.944 134.348 437.501 132.466C438.064 130.541 438.411 128.555 439.03 126.648C440.491 122.143 443.245 120.125 447.862 119.722C448.673 119.654 449.688 119.005 450.158 118.311C454.559 111.85 457.536 104.911 457.035 96.8528C456.905 94.7855 456.961 92.7059 457.022 90.6324C457.48 75.4437 461.522 61.301 469.414 48.2909C474 40.7337 478.679 33.2755 485.413 27.3152C491.937 21.5405 499.092 16.4095 507.119 13.5005C513.37 11.2352 520.111 9.05032 527.123 9.66926C533.585 10.2387 540.034 11.1609 546.508 11.4023C549.665 11.5199 552.933 10.7215 556.028 9.87351C561.579 8.34473 566.915 8.69134 571.811 11.5942C577.282 14.8374 582.5 18.5139 587.829 22.0047C589.271 22.9517 590.595 24.2143 592.174 24.7961C598.549 27.1666 600.715 32.7123 602.281 38.4189C603.426 42.5967 603.902 47.0221 604.138 51.3609C604.255 53.5395 603.76 56.2133 602.516 57.9092C599.137 62.4956 598.029 67.5151 598.054 73.0175C598.078 79.2254 597.825 85.4643 600.981 91.1338C601.445 91.9631 602.423 92.5202 603.203 93.1639C603.933 93.7643 604.918 94.1789 605.357 94.9279C605.524 95.2126 604.534 96.2524 603.97 96.8589C603.277 97.614 602.485 98.2701 601.804 98.9076C603.896 105.827 609.491 109.937 614.294 114.697C615.495 115.885 616.56 116.888 616.238 119.264C615.854 122.093 614.752 122.409 612.524 122.272C610.89 122.167 609.238 122.254 607.071 122.254C608.606 126.568 610.117 130.579 611.453 134.645C612.11 136.632 612.722 138.711 612.84 140.779C612.933 142.388 612.24 143.558 609.912 142.852C605.629 141.565 601.81 139.72 598.815 136.31C597.441 134.744 595.596 132.856 593.634 134.243C592.291 135.19 591.623 137.573 591.338 139.417C590.967 141.825 591.338 144.338 591.227 146.801C591.196 147.488 590.595 148.144 590.261 148.813C589.574 148.379 588.652 148.101 588.237 147.482C587.067 145.736 586.108 143.855 585.136 142.153C581.33 143.323 577.74 144.424 573.865 145.613C574.361 148.54 574.949 151.61 575.369 154.705C575.642 156.723 575.778 158.777 575.735 160.808C575.722 161.383 574.893 161.946 574.435 162.516C573.865 162.039 572.956 161.662 572.788 161.074C571.452 156.364 570.003 151.653 569.124 146.851C568.697 144.542 569.514 142.023 569.57 139.597C569.589 138.811 569.124 137.449 568.642 137.331C567.837 137.133 566.624 137.474 565.955 138.031C562.291 141.082 561.505 148.528 564.105 154.117C564.897 155.819 566.197 157.515 563.368 160.356C562.879 159.365 562.421 158.443 561.963 157.521C561.765 157.131 561.567 156.735 561.369 156.345C561.208 156.407 561.047 156.469 560.893 156.531L561.382 158.326L561.369 158.319ZM456.998 396.016C457.511 396.134 458.025 396.257 458.539 396.375C460.903 392.042 463.93 387.92 465.44 383.303C466.796 379.169 466.375 374.471 466.944 370.045C467.619 364.815 467.761 359.505 470.429 354.622C471.314 353.006 472.44 350.345 469.704 348.593C469.209 348.277 468.819 347.293 468.9 346.681C469.655 340.974 465.805 335.162 469.284 329.524C469.426 329.288 469.432 328.911 469.376 328.614C468.504 323.78 467.693 318.927 466.641 314.137C466.461 313.307 465.211 312.719 464.456 312.014C464.307 312.169 464.153 312.33 464.004 312.484C463.583 310.343 463.156 308.201 462.698 305.868C461.12 307.044 459.814 307.972 458.57 308.975C458.174 309.291 457.716 309.792 457.679 310.244C457.214 315.721 456.472 321.199 456.472 326.683C456.472 340.881 456.849 355.073 456.985 369.272C457.072 378.178 457.004 387.091 457.004 395.997L456.998 396.016Z" fill="white"/>
<path d="M413.555 283.159C411.976 286.532 412.403 290.79 408.201 293.334C408.467 289.15 408.51 284.935 409.049 280.782C410.033 273.243 411.32 265.742 412.478 258.228C413.672 250.485 414.842 242.742 416.074 235.005C417.107 228.488 418.153 221.971 419.317 215.472C419.787 212.823 420.703 210.384 423.687 209.363C424.423 209.109 425.048 208.144 425.451 207.364C428.483 201.496 433.633 198.303 439.661 196.557C454.275 192.336 468.962 188.356 483.625 184.29C484.113 184.154 484.671 184.011 485.141 184.123C489.659 185.169 492.246 182.26 494.846 179.419C496.814 177.271 497.687 177.432 501.629 181.282C506.259 176.046 510.858 170.84 515.463 165.629C515.289 165.332 515.116 165.035 514.937 164.738C513.067 164.843 511.198 164.942 509.088 165.059V157.205C508.945 157.193 508.803 157.18 508.66 157.168C508.425 158.294 508.165 159.415 507.949 160.547C506.513 168.043 505.399 169.138 498.033 170.506C496.208 170.846 495.304 170.531 495.892 168.426C496.078 167.752 495.997 166.997 495.997 166.279C496.003 163.141 495.997 159.996 495.347 156.753C494.351 161.346 492.977 165.901 492.482 170.549C492.135 173.811 490.204 174.622 487.858 174.702C484.293 174.82 480.697 174.442 477.138 174.059C476.699 174.009 476.018 172.629 476.086 171.917C476.662 165.437 477.379 158.963 478.029 152.489C478.085 151.913 477.949 151.313 477.906 150.75C477.014 155.664 475.894 160.535 475.306 165.468C474.724 170.289 471.543 172.443 467.644 174.077C465.88 174.82 464.023 175.346 461.349 176.262C460.786 174.046 460.204 171.762 459.566 169.243C457.283 169.813 456.565 168.433 456.354 165.957C455.983 161.643 455.24 157.354 454.658 153.058C454.374 153.077 454.083 153.095 453.798 153.114C454.039 158.598 454.281 164.088 454.534 169.85C453.297 169.85 451.687 170.147 450.27 169.757C449.119 169.441 447.627 168.494 447.274 167.479C445.38 162.058 443.796 156.524 442.292 151.628C439.977 150.966 437.334 150.743 435.397 149.456C434.233 148.689 434.048 146.287 433.652 144.573C433.404 143.471 433.775 142.233 433.534 141.125C431.566 131.977 434.747 124.556 443.319 118.559C445.145 117.277 447.039 116.083 448.809 114.727C449.255 114.387 449.577 113.582 449.577 112.988C449.608 106.019 449.193 99.1426 448.172 92.1672C446.68 81.998 445.009 71.6061 447.64 61.2636C449.657 53.3412 454.126 46.6567 459.641 41.0553C468.541 32.0188 477.912 23.3599 487.722 15.3323C496.399 8.23307 506.698 4.44518 518.099 3.27539C528.733 2.18606 538.518 4.41423 548.105 8.44352C550.526 9.45857 552.549 9.75566 554.685 7.71936C555.526 6.91474 557.105 6.66716 558.38 6.57432C569.552 5.70781 579.789 8.4497 589.073 14.7257C589.661 15.128 590.156 15.6727 590.694 16.1493C592.613 17.8761 594.321 19.6339 596.884 20.7975C599.168 21.8311 600.938 24.5235 602.368 26.8321C609.145 37.7502 611.144 49.8257 610.408 62.4644C610.364 63.1947 609.851 63.9003 609.207 65.4848C608.489 63.4856 608.043 62.2663 607.604 61.0346C606.991 62.4396 607.821 65.2001 604.54 64.5564C604.373 64.5254 603.593 67.6077 603.104 69.2232C608.427 69.7369 613.632 70.2382 618.937 70.7519C618.943 79.7884 617.234 88.2369 613.75 96.1655C612.531 98.9321 609.498 100.9 607.065 103.469C609.782 110.983 625.083 119.004 635.939 117.277C634.032 120.149 632.937 122.848 630.963 124.494C628.778 126.32 625.875 127.416 623.127 128.4C620.49 129.347 617.662 129.743 614.901 130.387C618.157 137.572 625.733 143.44 632.405 141.602C629.879 145.445 629.434 150.081 624.779 152.018C623.43 152.582 622.595 154.686 621.282 154.983C614.059 156.611 608.854 152.489 603.791 148.255C602.881 147.494 602.231 146.417 600.901 144.814C601.315 150.904 602.689 155.738 606.843 159.495C605.019 160.642 601.379 158.827 595.924 154.048C596.463 155.713 596.791 156.722 597.292 158.257C594.433 158.938 591.617 159.613 588.714 160.3C588.695 160.554 588.664 161.067 588.565 162.447C586.752 159.842 585.39 157.892 583.868 155.707C584.004 159.204 584.579 163.079 579.554 163.623C578.322 163.76 578.192 163.623 575.035 157.62C575.883 161.111 576.539 163.797 577.065 165.957C573.921 166.452 570.808 166.935 567.521 167.455C567.658 168.785 567.75 169.751 567.85 170.71C567.998 170.487 568.153 170.265 568.301 170.036C571.514 172.022 575.116 173.588 577.839 176.107C580.705 178.756 583.843 178.837 587.111 178.614C590.249 178.404 592.799 178.509 594.897 181.455C595.745 182.65 597.992 183.089 599.694 183.405C613.137 185.88 626.438 188.839 638.996 194.416C644.078 196.675 648.2 200.029 650.62 205.253C652.427 209.159 653.696 212.996 653.968 217.483C654.519 226.619 655.714 235.754 657.298 244.772C659.749 258.729 662.751 272.594 665.524 286.501C665.623 286.996 665.623 287.559 665.871 287.968C667.505 290.654 666.873 292.938 663.772 294.12C658.685 296.057 653.51 297.766 648.943 299.369C649.091 306.412 649.351 313.363 649.351 320.307C649.351 325.556 648.961 330.798 648.831 336.047C648.59 345.82 648.831 355.636 648.02 365.36C647.612 370.2 649.896 374.192 650.236 378.692C650.447 381.496 651.196 384.262 651.771 387.425C652.588 387.425 653.566 387.413 654.544 387.425C657.775 387.481 661.049 387.252 664.23 387.691C667.864 388.186 669.485 391.566 668.185 395.075C668.012 395.552 667.863 396.065 667.573 396.461C663.822 401.58 664.688 407.243 665.307 413.012C665.753 417.134 665.375 421.337 665.592 425.49C665.648 426.573 666.551 427.619 667.115 428.659C667.393 429.178 667.771 429.643 668.117 430.119C669.027 431.363 669.943 432.595 671.299 434.433C670.834 437.998 670.055 438.914 666.892 438.797C670.042 442.015 669.9 448.396 666.601 451.726C664.831 453.509 665.097 455.025 667.096 456.48C668.179 457.266 669.386 458.374 669.739 459.568C670.711 462.861 669.448 464.118 664.998 464.545C664.757 467.187 664.602 469.917 664.224 472.609C664.082 473.593 663.673 474.887 662.937 475.382C659.65 477.61 652.619 476.967 649.784 474.386C649.685 474.54 649.487 474.825 649.506 474.837C653.733 478.217 652.501 483.781 654.742 487.959C655.008 488.454 655.021 489.172 654.928 489.754C652.885 502.201 648.534 513.942 643.787 525.541C642.543 528.586 641.856 531.501 641.911 534.881C642.153 549.617 641.98 564.361 642.066 579.104C642.202 601.348 641.695 623.636 642.908 645.825C643.62 658.885 639.492 670.453 636.131 682.423C630.795 701.418 620.416 717.857 609.956 734.308C602.052 746.743 595.38 759.864 589.915 773.599C587.377 779.974 584.128 786.064 580.686 792.266C573.24 761.758 561.914 732.26 560.651 700.471C560.292 700.539 559.933 700.607 559.58 700.675C559.834 702.439 560.15 704.197 560.329 705.967C560.781 710.43 560.899 714.948 561.635 719.361C563.22 728.849 564.65 738.4 566.964 747.721C571.334 765.274 576.409 782.647 580.94 800.163C583.769 811.094 586.999 822.03 588.46 833.171C589.908 844.238 593.282 854.617 596.599 865.09C599.452 874.089 602.485 883.039 605.623 891.939C606.23 893.666 605.92 894.415 604.621 895.529C596.129 902.814 586.294 907.92 576.546 913.187C575.89 913.546 575.246 913.93 574.695 914.481C585.675 909.901 596.395 904.85 605.778 897.374C606.18 897.052 606.496 896.625 606.898 896.309C609.993 893.914 611.967 894.328 612.493 898.154C613.218 903.371 613.403 908.713 613.335 913.992C613.236 921.246 607.592 924.978 602.399 928.048C594.984 932.424 586.894 935.661 579.089 939.375C578.384 939.709 577.635 939.956 577.858 940.421C578.761 949.897 579.659 959.373 580.563 968.849C580.061 968.929 579.56 969.009 579.052 969.09C575.667 960.202 575.611 950.565 573.612 940.885C566.575 943.323 559.711 945.694 552.859 948.102C552.197 948.331 551.627 948.807 550.977 949.086C545.029 951.636 546.75 956.426 547.462 960.957C548.489 967.499 549.411 974.06 550.464 980.602C550.847 982.985 551.473 985.325 551.807 986.853C551.206 988.555 550.476 989.608 550.525 990.623C550.81 996.546 550.99 1002.5 551.757 1008.37C552.587 1014.71 554.004 1020.98 555.211 1027.26C555.7 1029.81 557.291 1030.58 559.865 1030.4C565.3 1030.02 570.759 1030.02 576.199 1029.69C578.285 1029.57 580.414 1029.16 582.407 1028.53C587.235 1027 587.47 1026.55 586.925 1021.83C586.702 1019.92 586.343 1018.02 585.935 1015.39C584.493 1016.43 583.193 1017.21 582.104 1018.2C580.352 1019.8 578.823 1021.64 577.028 1023.17C576.273 1023.82 575.06 1023.93 574.057 1024.29C573.921 1024 573.785 1023.7 573.649 1023.41C575.809 1021.77 577.975 1020.12 580.816 1017.95C573.11 1019.97 566.339 1021.74 559.488 1023.54C558.572 1020.69 559.791 1019.88 561.437 1019.19C569.1 1015.98 577.096 1014.2 585.471 1013.46V1006.12C580.773 1008.11 576.459 1010 572.095 1011.77C568.821 1013.1 565.473 1014.26 562.168 1015.52C560.62 1016.11 559.593 1016.01 558.881 1014.16C558.213 1012.43 557.86 1010.94 559.754 1010.01C562.576 1008.64 565.398 1007.15 568.388 1006.27C573.81 1004.68 579.349 1003.5 585.081 1002.09C585.007 1000.92 584.92 999.647 584.796 997.728C578.879 1000.05 573.451 1002.2 568.004 1004.3C564.315 1005.72 560.627 1007.17 556.87 1008.39C555.855 1008.72 554.586 1008.27 553.428 1008.18C553.75 1007.11 553.744 1005.6 554.468 1005.04C556.622 1003.37 558.887 1001.49 561.425 1000.74C568.004 998.762 574.751 997.344 581.435 995.698C582.326 995.481 583.212 995.234 584.282 994.949V987.553C581.12 988.537 578.081 989.533 575.017 990.431C568.896 992.226 562.718 993.847 556.641 995.785C554.326 996.521 553.02 995.618 551.281 993.767C552.5 993.098 553.434 992.275 554.499 992.052C563.721 990.115 572.962 988.246 582.215 986.439C584.945 985.906 585.953 984.05 586.312 981.636C586.696 979.073 586.096 977.198 582.97 977.124C576.614 976.963 570.257 976.53 563.907 976.684C562.502 976.715 560.676 978.442 559.859 979.859C558.262 982.626 557.247 985.727 555.817 989.094C554.456 984.421 556.238 980.621 557.891 976.802C559.834 972.315 563.566 970.711 568.134 970.21C574.15 969.554 580.154 968.898 586.034 970.928C589.865 972.253 591.023 974.666 589.884 978.492C589.333 980.336 588.751 982.193 588.442 984.081C588.312 984.867 588.869 985.764 589.011 986.247C588.479 987.2 587.457 988.246 587.68 988.772C588.528 990.796 586.851 993.891 590.305 994.918C589.754 995.822 589.221 996.682 588.423 997.988C589.624 997.586 590.503 996.973 591.022 997.196C591.648 997.462 592.137 998.378 592.39 999.115C596.581 1011.34 600.771 1023.58 604.843 1035.85C605.58 1038.06 606.087 1040.11 608.235 1041.64C609.448 1042.5 610.104 1044.49 610.488 1046.11C611.645 1050.91 613.038 1055.75 613.416 1060.64C613.917 1067.08 611.516 1070.74 605.252 1072.56C598.648 1074.48 591.796 1076.03 584.963 1076.58C575.029 1077.38 565.009 1077.38 555.025 1077.27C544.992 1077.17 534.965 1076.53 524.939 1076.1C523.236 1076.03 521.838 1075.7 521.404 1073.57C520.971 1071.44 521.621 1070.46 523.62 1069.69C526.74 1068.5 529.735 1066.96 532.688 1065.61C532.415 1061.57 531.821 1057.6 532.007 1053.68C532.118 1051.28 532.83 1048.41 534.346 1046.7C536.779 1043.96 537.404 1040.88 538.035 1037.58C540.387 1025.25 542.913 1012.95 545.159 1000.61C545.834 996.905 545.921 993.086 546.075 989.311C546.156 987.342 546.645 986.098 549.003 986.241C542.783 974.295 540.214 961.539 539.119 948.312C525.768 948.201 513.005 945.112 500.794 938.038C499.995 942.067 499.123 945.874 498.535 949.723C498.275 951.413 498.609 953.189 498.683 955.182C498.9 955.182 498.275 955.182 497.414 955.182C496.987 956.928 496.437 958.84 496.078 960.784C495.731 962.659 495.805 964.423 498.454 964.621C497.594 964.695 496.734 964.776 495.626 964.869C495.106 966.979 494.561 969.164 494.227 970.544C494.988 972.036 495.911 973.026 495.954 974.048C496.461 985.733 496.87 997.425 497.223 1009.12C497.272 1010.84 496.919 1012.58 496.777 1014.3C496.61 1016.3 496.102 1018.26 498.411 1019.69C499.209 1020.18 499.537 1021.79 499.68 1022.94C500.187 1026.99 500.478 1031.06 500.936 1035.11C501.431 1039.53 498.925 1042.84 494.914 1045.34C490.742 1047.92 486.379 1049.24 481.681 1050.23C476.847 1051.25 472.36 1050.37 467.897 1048.94C462.24 1047.12 456.558 1048.69 450.895 1048.52C448.042 1048.43 445.189 1048.43 442.341 1048.23C441.605 1048.18 440.912 1047.57 440.194 1047.22C440.212 1046.86 440.225 1046.51 440.243 1046.15C444.873 1044.91 449.496 1043.67 453.792 1042.51C451.904 1039.52 449.868 1036.29 447.844 1033.06C447.633 1032.72 447.349 1032.34 447.342 1031.97C447.126 1024.48 441.809 1018.47 441.227 1011.18C440.639 1003.81 439.364 996.602 440.584 988.958C441.908 980.664 440.949 972.005 441.035 963.507C441.085 959.094 441.24 954.687 441.357 950.274C441.425 947.6 441.252 944.896 441.63 942.271C442.533 935.94 443.22 929.521 444.898 923.381C446.42 917.799 451.619 915.527 456.614 913.534C456.979 913.392 457.536 913.738 458.384 913.955C455.686 916.09 452.969 917.724 450.957 919.983C449.274 921.877 447.528 924.44 447.336 926.829C446.544 936.503 446.061 946.226 446.024 955.931C446.006 960.87 447.485 965.791 447.732 970.755C448.023 976.554 447.571 982.385 447.701 988.196C447.875 995.853 448.042 1003.53 448.71 1011.15C449.175 1016.38 450.561 1021.52 451.39 1026.73C451.607 1028.1 452.071 1028.81 453.259 1029.69C456.924 1032.39 460.13 1035.74 463.856 1038.35C466.263 1040.04 469.191 1041.14 472.026 1042.05C479.013 1044.28 485.958 1043.89 492.673 1040.83C493.422 1040.49 494.252 1039.85 494.567 1039.13C495.929 1036.04 497.074 1032.87 495.886 1029.71C492.5 1030.54 489.121 1032.05 485.723 1032.09C474.291 1032.18 456.917 1023.25 453.29 1006.44C451.434 997.827 452.244 989.174 452.189 980.54C452.133 972.327 452.3 964.095 452.771 955.894C453.198 948.442 454.151 941.021 454.887 933.588C455.116 931.254 455.085 928.834 455.71 926.606C456.323 924.44 457.301 922.212 458.681 920.454C462.958 915.007 467.155 909.443 473.325 905.841C473.833 905.544 474.056 904.256 473.944 903.495C472.267 891.556 470.454 879.635 468.807 867.696C467 854.605 465.682 841.434 463.521 828.399C460.6 810.766 458.545 793.107 458.762 775.208C458.818 770.615 457.957 765.979 458.384 761.443C459.498 749.646 456.057 738.331 455.277 726.757C454.374 713.357 453.748 699.933 452.443 686.576C451.508 677.001 449.62 667.519 448.197 657.987C446.99 649.91 445.931 641.814 444.638 633.75C443.61 627.337 441.933 621.006 441.271 614.569C440.652 608.522 440.998 602.382 440.868 596.285C440.85 595.406 440.67 594.478 440.33 593.673C435.403 582.006 430.452 570.346 425.463 558.71C422.901 552.731 420.301 546.758 417.596 540.847C413.864 532.696 412.936 524.322 415.238 515.632C416.117 512.302 417.033 508.984 417.869 505.642C418.06 504.862 418.16 503.977 417.999 503.203C416.216 494.582 414.05 486.022 412.639 477.344C411.184 468.394 410.435 459.333 409.402 450.315C409.154 448.174 408.913 446.032 408.807 443.884C408.25 432.422 410.615 421.293 412.806 410.152C414.724 400.392 416.674 390.631 418.543 380.864C418.772 379.676 418.574 378.407 418.574 377.206C413.722 374.762 412.787 369.99 416.111 365.731C416.612 365.088 416.538 363.726 416.303 362.804C413.685 352.604 413.778 342.707 419.391 333.379C420.301 331.863 420.227 330.854 418.611 329.604C415.065 326.868 415.461 322.802 419.15 320.109C419.639 319.75 419.769 318.791 419.905 318.079C420.313 315.882 420.456 313.623 421.075 311.494C421.508 310.002 422.548 308.69 423.086 307.724C419.1 306.01 414.458 304.209 410.033 301.968C408.944 301.417 407.749 299.208 408.046 298.193C408.585 296.361 410.33 295.903 412.564 296.447C426.62 299.889 440.732 303.113 454.819 306.431C460.39 307.743 463.546 304.537 462.215 298.911C460.482 291.613 458.929 284.267 457.01 277.013C455.692 272.036 454.033 267.135 452.207 262.319C451.762 261.143 450.016 260.493 448.964 259.503C448.407 258.977 447.949 258.284 447.633 257.584C447.404 257.077 447.695 256.285 447.404 255.864C445.944 253.772 446.563 252.094 448.5 250.429C445.863 248.102 443.332 245.855 440.788 243.621C438.263 241.393 435.725 239.171 432.934 236.708C435.354 235.154 437.557 234.795 439.426 236.243C443.27 239.22 446.86 242.526 450.604 245.639C451.384 246.289 452.399 247.155 453.266 247.106C455.432 246.982 456.224 248.201 456.707 249.872C460.371 262.505 464.27 275.082 467.545 287.819C469.024 293.582 469.216 299.672 470.033 305.608C470.614 309.835 471.141 314.075 471.908 318.271C472.725 322.752 473.208 327.221 473.177 331.783C473.158 334.271 471.568 335.812 469.866 335.694C468.603 335.608 467.316 333.429 466.393 331.968C466.041 331.411 466.369 330 466.882 329.393C468.9 326.973 468.021 324.776 467.099 322.214C465.812 318.618 465.118 314.811 464.208 311.228C461.194 311.593 461.392 313.765 461.318 316.105C460.786 332.729 460.117 349.348 459.511 365.973C459.263 372.756 459.084 379.546 458.873 386.329L457.307 386.416C456.391 378.908 455.11 371.425 454.664 363.893C454.206 356.187 454.565 348.432 454.565 340.701C454.237 340.782 453.588 340.949 452.82 341.141C452.956 340.788 452.981 340.54 453.092 340.491C455.741 339.327 455.754 337.087 455.865 334.605C456.206 326.825 456.794 319.063 457.307 310.906C446.928 309.934 436.319 308.938 426.354 308.003V319.571C430.514 321.112 433.93 321.985 436.951 323.6C440.126 325.296 440.8 328.657 440.98 332.08C441.295 338.232 439.965 344.155 438.479 350.035C437.167 355.209 437.136 360.786 433.825 365.354C433.707 365.515 433.577 365.744 433.608 365.911C434.58 371.209 430.526 372.868 427.128 375.12C426.268 375.69 425.463 376.94 425.364 377.949C424.869 382.888 424.9 387.889 424.231 392.804C423.13 400.85 421.774 408.871 420.264 416.855C418.11 428.225 416.433 439.57 418.042 451.188C419.608 462.477 420.97 473.798 422.387 485.112C422.777 488.219 423.055 491.338 423.383 494.458C423.773 494.538 424.169 494.613 424.559 494.693C430.445 479.857 436.338 465.027 442.391 449.783C438.857 449.603 438.547 448.31 439.723 446.02C440.144 445.203 439.754 443.971 439.754 442.931C439.791 434.297 440.615 425.725 444.427 417.895C446.043 414.578 449.137 412.003 451.415 408.983C452.065 408.122 452.61 406.847 452.523 405.826C452.121 401.19 454.38 397.495 456.738 393.967C458.991 390.582 461.807 387.574 464.332 384.367C464.673 383.934 464.939 383.321 464.957 382.783C465.248 374.093 464.611 365.255 466.047 356.763C467.087 350.617 470.571 344.786 473.468 339.067C478.116 329.901 483.117 320.914 488.093 311.915C490.6 307.384 493.379 302.996 496.053 298.558C496.331 298.094 496.771 297.729 497.656 296.732C497.173 302.841 494.53 307.335 492.302 311.939C486.057 324.826 479.614 337.607 473.536 350.573C472.335 353.142 472.391 356.317 471.958 359.226C470.992 365.676 470.082 372.137 469.129 378.698C471.147 376.544 473.146 374.415 475.139 372.286C475.411 372.434 475.677 372.583 475.95 372.731C474.78 375.294 473.889 378.036 472.372 380.375C469.395 384.986 466.096 389.381 462.903 393.85C459.74 398.275 457.301 402.781 456.794 408.537C456.54 411.452 453.488 414.132 451.675 416.905C451.254 417.549 450.437 418.069 450.32 418.743C448.958 426.263 447.689 433.802 446.365 441.533C466.096 431.537 486.93 424.103 507.949 416.998C505.591 416.695 503.239 416.212 500.874 416.15C498.819 416.1 498.157 414.98 498.64 413.445C498.937 412.517 500.274 411.273 501.134 411.279C505.628 411.31 510.121 411.706 514.615 411.953C521.206 412.312 527.798 412.733 534.39 412.981C543.612 413.328 552.877 413.123 562.05 413.934C572.683 414.869 583.212 417.202 593.851 417.877C601.934 418.39 607.369 423.924 614.257 426.567C617.173 427.687 619.754 429.661 622.465 431.24C623.17 424.71 621.047 419.127 617.005 414.107C616.43 413.389 616.164 412.22 616.164 411.266C616.182 405.634 616.164 399.989 616.479 394.369C616.777 389.121 616.151 384.101 614.975 378.952C613.898 374.242 613.954 369.222 613.886 364.332C613.793 357.834 613.83 351.316 614.233 344.83C614.994 332.624 616.603 320.512 619.983 308.721C620.694 306.239 621.227 303.305 624.829 302.73C626.339 302.488 627.15 297.852 626.667 296.249C624.482 288.952 622.174 281.673 620.459 274.259C618.602 266.231 617.247 258.079 615.978 249.934C615.805 248.814 617.352 247.428 618.107 246.165C618.93 246.827 619.865 247.39 620.533 248.183C620.998 248.734 621.103 249.594 622.038 250.429C622.929 246.877 623.826 243.33 624.699 239.771C625.374 237.017 625.968 234.25 626.686 231.508C626.939 230.537 627.206 229.379 627.874 228.754C628.988 227.727 630.436 227.058 631.742 226.241C631.798 227.591 632.238 229.064 631.848 230.271C629.848 236.417 627.428 242.433 625.572 248.616C624.42 252.441 624.018 256.495 623.275 260.444C623.622 260.58 623.962 260.716 624.309 260.852C625.268 258.692 626.104 256.464 627.218 254.378C629.947 249.272 632.77 244.221 635.629 239.189C636.217 238.156 637.121 237.308 637.882 236.373C638.254 236.497 638.631 236.627 639.003 236.751C639.003 237.723 639.324 238.843 638.953 239.641C635.834 246.245 632.596 252.794 629.378 259.354C628.518 261.106 627.608 262.833 626.327 265.352C631.086 265.631 635.586 266.677 639.764 265.921C644.214 265.117 648.355 262.604 652.848 260.741C652.192 259.775 651.777 259.169 650.942 257.943C653.04 257.943 655.572 257.392 655.937 258.049C657.076 260.091 655.547 261.589 653.69 262.678C646.238 267.054 638.13 269.109 629.57 269.493C628.604 269.536 627.602 268.917 626.085 268.434C626.085 270.173 625.794 271.845 626.135 273.373C627.465 279.315 629.031 285.214 630.443 291.137C630.795 292.61 630.901 294.145 631.204 296.237C636.118 295.692 641.225 295.562 646.12 294.467C651.845 293.186 657.354 290.951 663.017 289.361C665.004 288.803 664.992 288.104 664.527 286.322C660.696 271.535 657.014 256.705 653.288 241.894C643.787 244.271 640.872 244.252 639.609 241.727C642.314 240.211 646.597 239.852 652.83 240.656C652.167 232.783 651.511 224.929 650.818 216.691C646.894 218.238 642.908 219.804 638.749 221.438C639.665 217.768 645.328 215.422 651.363 215.998C653.541 211.498 650.205 208.719 647.915 205.847C641.874 198.265 633.265 195.127 624.278 192.763C616.244 190.646 608.285 188.133 600.139 186.611C597.23 186.066 593.585 187.372 590.794 188.827C586.145 191.247 581.918 194.465 577.202 197.009C579.999 192.07 585.112 189.328 588.417 184.797C586.096 186.32 583.738 187.799 581.454 189.371C573.364 194.948 564.322 198.086 554.61 198.135C548.056 198.166 541.409 197.065 534.947 195.746C525.768 193.871 516.67 191.519 507.646 188.988C503.728 187.886 499.63 186.629 496.845 182.811C494.747 184.092 492.63 185.385 490.39 186.753C498.553 189.489 506.494 192.491 514.633 194.793C526.133 198.043 537.701 201.131 549.387 203.601C556.269 205.055 563.375 204.529 570.567 201.366C567.961 203.96 562.663 205.495 558.225 205.798C547.338 206.547 537.014 203.545 526.579 201.304C513.519 198.507 501.011 194.088 489.245 187.941C481.384 193.011 472.465 194.719 463.794 197.114C456.571 199.113 449.348 201.113 442.168 203.273C435.05 205.414 430.105 210.644 425.172 215.8C424.887 216.097 424.937 216.759 424.906 217.254C423.916 233.347 421.613 249.229 417.633 264.869C416.086 270.941 414.873 277.099 413.511 283.221L413.604 283.153L413.555 283.159ZM483.408 644.507C483.594 643.739 484.052 642.922 483.922 642.211C483.006 637.148 481.972 632.103 480.976 627.059C480.79 627.09 480.604 627.121 480.418 627.152C481.434 632.92 482.455 638.695 483.47 644.464C483.724 646.271 483.934 648.09 484.237 649.892C486.125 661.082 487.672 672.34 490.018 683.432C493.571 700.217 497.668 716.885 501.592 733.59C502.793 738.684 504.192 743.735 505.498 748.81C505.745 748.754 505.993 748.693 506.234 748.637C506.08 747.776 505.962 746.904 505.764 746.05C503.913 738.152 502.013 730.267 500.187 722.363C497.532 710.888 494.734 699.45 492.352 687.919C489.82 675.658 487.74 663.304 485.37 651.012C484.943 648.802 484.064 646.685 483.402 644.513L483.408 644.507ZM503.56 182.811C505.708 183.671 507.806 184.773 510.035 185.354C522.209 188.517 534.346 191.866 546.639 194.484C551.918 195.61 557.835 196.353 562.935 195.115C570.096 193.376 575.605 188.078 580.736 182.482C579.764 182.117 579.077 181.907 578.439 181.61C574.293 179.673 569.812 178.131 567.243 173.984C566.253 172.388 566.042 170.32 565.114 168.668C561.45 162.132 558.782 155.268 557.885 147.791C557.649 145.848 558.312 143.211 557.272 142.109C556.034 140.791 553.403 140.772 551.38 140.203C551.188 140.147 550.965 140.215 550.767 140.172C542.405 138.408 534.947 134.837 528.751 128.889C526.956 127.162 525.638 125.088 525.805 121.938C527.124 122.699 528.027 123.133 528.844 123.702C535.949 128.629 543.76 131.909 552.166 133.822C560.138 135.635 567.955 138.365 576.403 135.976C579.677 135.053 581.967 133.475 583.137 130.504C586.486 121.994 589.655 113.415 592.799 105.115C590.416 102.491 588.572 101.779 586.071 104.583C585.161 105.604 582.698 105.462 580.959 105.4C580.439 105.381 579.968 103.859 579.281 102.701C580.395 102.571 580.921 102.602 581.379 102.435C582.828 101.897 584.245 101.278 585.675 100.69C584.678 99.5263 583.589 98.4246 582.704 97.1744C581.559 95.5589 580.148 93.9559 579.616 92.13C578.848 89.5181 578.768 86.7081 578.396 83.9848C578.279 84.0034 578.105 83.9848 578.087 84.0343C577.926 84.4799 577.728 84.9256 577.654 85.3898C575.995 95.7013 572.163 103.822 560.546 106.52C550.34 108.885 542.411 105.765 538.27 96.574C535.85 91.2016 534.192 85.4888 532.18 79.906C527.978 81.9547 523.23 84.2695 518.403 86.6277C518.854 87.7046 519.857 89.5862 519.659 89.7162C517.202 91.4059 519.473 92.619 520.086 94.1663C519.418 94.451 518.83 94.8472 518.198 94.9462C515.234 95.3856 513.581 93.2689 511.662 91.5792C509.886 90.0071 507.732 88.6702 505.454 90.2546C502.972 91.9753 502.019 94.5686 503.22 97.5333C503.592 98.4432 504.353 99.7553 505.071 99.8482C506.296 100.003 507.627 99.3468 508.914 99.025C508.871 98.6165 508.828 98.2018 508.791 97.7933C507.225 97.4962 505.659 97.1991 504.087 96.902C503.975 96.6668 503.864 96.4254 503.752 96.1903C504.767 95.6085 505.844 94.4325 506.779 94.5377C511.006 95.0205 513.463 98.3998 514.998 101.631C517.128 106.112 511.681 106.941 509.23 110.048H516.793C516.936 111.107 516.657 112.722 517.326 113.366C521.318 117.24 521.076 122.328 521.293 127.112C521.621 134.298 521.405 141.509 521.324 148.713C521.287 151.789 520.476 154.952 520.996 157.904C521.553 161.055 521.349 163.797 519.647 166.353C517.963 168.884 516.261 171.496 514.113 173.625C510.852 176.856 507.2 179.703 503.573 182.829L503.56 182.811ZM638.241 299.524C634.243 302.606 630.715 305.162 627.404 307.972C626.389 308.832 625.565 310.336 625.361 311.661C624.544 316.996 623.95 322.362 623.381 327.735C622.526 335.738 621.542 343.734 621.022 351.762C620.521 359.437 620.546 367.149 620.342 374.842C620.28 377.144 619.747 379.571 620.28 381.731C622.068 389.065 622.613 396.375 620.998 403.783C620.329 406.853 620.385 409.546 622.718 412.232C624.631 414.429 625.664 417.4 627.038 419.938C628.802 419.164 630.727 418.186 632.745 417.474C634.726 416.775 636.805 416.342 639.17 415.704C638.736 412.232 638.241 408.815 637.895 405.38C637.09 397.402 638.445 392.977 645.761 390.891C646.516 390.674 647.321 390.631 648.2 390.495C648.126 389.61 648.157 388.879 647.99 388.205C645.644 378.853 643.527 369.637 644.27 359.709C645.136 348.135 644.468 336.443 644.48 324.807C644.48 323.786 644.53 322.752 644.641 321.737C645.489 314.304 646.355 306.876 647.21 299.524H638.241ZM489.554 996.069C484.151 995.469 479.775 995.141 475.473 994.392C474.365 994.2 472.818 992.789 472.632 991.731C471.753 986.717 470.973 981.648 470.726 976.573C470.28 967.468 470.881 958.407 472.954 949.476C473.152 948.622 472.496 947.192 471.772 946.567C469.767 944.828 467.458 943.441 465.384 941.776C463.144 939.969 461.757 937.697 461.974 934.621C462.556 926.278 466.74 919.674 472.106 913.683C472.737 912.977 474.18 913.002 475.783 912.525C473.827 917.588 472.063 921.921 470.484 926.321C467.588 934.398 468.368 937.128 474.644 941.331C481.656 934.51 489.114 937.431 496.449 940.848C497.965 936.93 497.811 936.806 494.803 935.098C491.207 933.055 487.53 931.056 484.293 928.512C480.802 925.77 478.357 922.094 477.466 917.551C476.835 914.32 476.018 911.133 475.281 907.92C474.928 907.852 474.569 907.778 474.217 907.71C470.441 912.271 466.919 917.087 462.804 921.32C459.628 924.594 457.883 928.16 457.703 932.597C457.586 935.482 457.536 938.366 457.512 941.25C457.462 946.994 457.437 952.744 457.431 958.487C457.431 966.831 457.487 975.168 457.444 983.511C457.419 988.723 455.958 993.872 457.592 999.17C458.873 1003.32 459.319 1007.73 460.167 1012.02C460.26 1012.49 460.47 1012.98 460.755 1013.36C465.186 1019.34 470.689 1023.85 478.054 1025.67C483.513 1027.01 488.657 1026.09 492.711 1023.88C492.116 1017.55 491.652 1011.9 491.033 1006.27C490.649 1002.76 490.031 999.275 489.554 996.076V996.069ZM589.438 1010.7C589.221 1010.68 588.999 1010.67 588.782 1010.66C588.782 1014.09 588.739 1017.52 588.794 1020.94C588.832 1023.19 589.382 1025.49 589.042 1027.67C588.343 1032.15 585.508 1033.94 580.203 1034.13C574.986 1034.31 569.694 1034.22 564.575 1035.08C557.099 1036.34 551.776 1033.97 549.368 1026.81C548.471 1024.14 547.251 1023.82 544.905 1024.41C543.73 1032.93 542.572 1041.34 541.396 1049.87C561.939 1056.11 581.738 1056.6 600.963 1046.49C597.026 1034.28 593.226 1022.49 589.432 1010.7H589.438ZM536.537 1048.55C537.676 1055.02 538.797 1061.49 539.985 1067.95C540.053 1068.31 540.604 1068.62 540.988 1068.88C545.277 1071.78 550.16 1072.55 555.149 1072.42C565.306 1072.14 575.487 1071.98 585.594 1071.09C592 1070.53 598.32 1068.83 604.621 1067.42C606.713 1066.95 608.26 1065.43 607.95 1062.95C607.629 1060.35 607.189 1057.77 606.774 1055.19C606.583 1054.01 606.985 1052.42 604.67 1053.01C603.587 1053.28 601.972 1052.15 601.142 1052.62C594.26 1056.46 586.795 1057.95 579.089 1058.92C567.676 1060.37 556.684 1059.14 546.131 1054.53C544.268 1053.72 542.38 1051.44 540.851 1051.72C537.577 1052.33 537.553 1050.4 536.544 1048.55H536.537ZM516.509 77.9192C516.744 78.0678 516.855 78.1916 516.911 78.173C517.561 77.913 518.192 77.6036 518.848 77.3622C530.633 73.0358 542.133 67.5582 555.335 69.5945C561.648 70.5663 567.856 71.965 572.838 75.9262C575.605 78.1235 577.499 77.3065 579.9 76.1924C583.583 74.4841 587.259 72.7449 590.992 71.1542C592.161 70.6591 593.523 70.6034 594.631 70.3744C593.956 67.4592 593.344 64.8101 592.749 62.2663C587.569 61.5421 584.493 57.6552 581.051 53.9725C580.822 54.7771 580.649 55.3713 580.476 55.9717C580.371 55.9593 580.259 55.9469 580.154 55.9346V51.503C579.417 53.5145 579.021 55.557 578.91 57.6119C578.619 62.9533 577.647 63.8508 572.38 63.467C569.966 63.2876 569.019 62.192 569.434 59.6977C569.805 57.451 569.812 55.1423 569.985 52.8585C568.017 55.4147 566.68 58.0204 565.169 60.5209C564.798 61.1336 563.845 61.3998 563.158 61.8207C562.83 61.1275 562.248 60.4528 562.217 59.7472C562.106 57.0177 562.174 54.2882 562.174 52.0167C560.973 54.7586 559.649 58.1256 558.015 61.3379C557.451 62.452 556.238 63.6898 555.106 63.956C553.286 64.3892 551.281 64.0736 548.941 64.0736C550.631 60.787 552.135 57.8595 554.016 54.2016C550.086 57.2467 549.696 62.4582 544.485 63.8136C545.933 60.5147 547.177 57.6924 548.155 55.458C545.586 57.8347 542.752 60.719 539.632 63.269C536.476 65.8438 533.084 68.1648 528.658 68.4742C531.147 65.5157 533.635 62.551 536.123 59.5925C532.434 60.9913 529.067 62.582 525.811 64.3707C524.963 64.8349 524.239 65.8438 523.855 66.766C522.116 70.95 520.934 75.462 516.496 77.9068L516.509 77.9192ZM645.798 442.306C645.743 443.327 645.631 444.157 645.668 444.98C645.867 449.69 646.213 454.394 646.275 459.104C646.312 461.846 645.823 464.594 645.749 467.348C645.724 468.159 646.071 469.279 646.653 469.725C647.377 470.276 649.091 470.759 649.376 470.418C650.063 469.607 650.162 468.308 650.694 466.531C653.393 467.262 656.215 468.023 659.576 468.927C657.973 455.935 662.609 444.411 663.952 432.471C662.039 431.939 660.028 431.555 658.177 430.794C657.267 430.416 656.067 429.408 655.974 428.572C655.299 422.444 654.686 416.298 654.426 410.146C654.216 405.238 656.976 400.435 662.188 399.692C662.398 397.613 662.615 395.527 662.825 393.453C662.058 393.237 661.359 392.822 660.709 392.884C657.329 393.2 653.015 390.21 650.985 395.545C650.899 395.774 650.335 395.836 649.982 395.948C647.89 396.598 645.706 397.037 643.75 397.972C642.92 398.368 642.011 399.828 642.097 400.707C642.561 405.25 643.341 409.769 644.072 414.689C644.585 412.907 645 411.483 645.384 410.152C648.559 409.1 650.063 410.697 650.564 413.358C650.96 415.432 651.103 417.604 651.01 419.715C650.793 424.697 650.348 429.667 650.063 434.65C650.038 435.12 650.447 435.634 650.694 436.104C651.282 437.237 652.378 438.339 652.421 439.484C652.607 444.732 652.644 449.993 652.452 455.242C652.341 458.299 651.709 461.338 651.307 464.384C650.88 464.359 650.459 464.328 650.032 464.303C650.032 460.429 650.533 456.474 649.883 452.717C649.283 449.213 651.356 444.578 645.792 442.294L645.798 442.306ZM537.658 76.5514C539.645 82.3508 541.421 88.076 543.581 93.6588C545.048 97.4467 547.747 100.244 552.122 100.572C554.511 100.752 556.95 100.399 559.327 100.64C563.003 101.018 564.786 99.0497 565.863 95.9736C567.627 90.9602 569.366 85.9407 571.037 81.1377C560.329 76.1119 549.479 72.1507 537.652 76.5514H537.658ZM491.547 962.981C491.968 960.35 492.426 957.485 492.884 954.607H475.69C481.068 950.342 487.283 951.865 493.311 951.815C493.979 949.699 494.604 947.712 495.205 945.805C494.419 945.149 493.664 944.741 493.212 944.11C491.256 941.411 488.291 941.213 485.556 941.56C483.389 941.838 481.198 943.051 481.947 946.208C482.077 946.759 481.347 948.027 480.864 948.108C479.013 948.43 477.107 948.411 474.39 948.56C474.198 959.36 473.852 970.414 473.92 981.469C473.938 984.161 473.517 987.708 477.2 989.032C481.099 990.437 485.036 991.724 488.972 993.068V985.832C484.869 986.018 481.006 985.95 477.8 982.521C481.57 980.014 485.475 982.781 488.935 981.951V977.656H476.358C475.937 973.292 477.578 972.878 481.446 972.321C484.497 971.887 487.666 972.234 490.965 972.234V965.512C490.464 965.481 489.956 965.389 489.467 965.438C485.71 965.816 481.966 966.311 478.209 966.571C477.256 966.639 476.253 966.001 475.275 965.686C476.018 964.986 476.649 964.058 477.528 963.649C478.518 963.185 479.719 963.031 480.833 963.006C484.299 962.931 487.771 962.975 491.541 962.975L491.547 962.981ZM581.336 83.7682C583.861 86.9433 586.74 90.5084 589.537 94.1354C590.063 94.8162 590.577 95.7384 590.583 96.5554C590.602 99.0745 592.199 100.22 594.198 99.8915C596.94 99.4397 599.842 98.7031 602.163 97.2672C606.812 94.3829 608.155 89.0415 610.333 84.4304C611.385 82.2023 611.844 79.6337 612.246 77.1703C612.599 74.9916 611.615 73.5619 609.12 74.0014C603.667 74.9669 598.246 76.1367 592.768 76.9413C588.281 77.6036 583.985 78.3339 581.342 83.7682H581.336ZM628.258 425.651V440.468C629.415 439.564 630.108 439.02 630.43 438.766C629.793 434.52 629.199 430.534 628.592 426.498C631.563 426.257 632.213 427.532 632.108 429.76C631.971 432.57 632.077 435.393 632.077 438.425C636.842 438.035 641.256 437.677 645.867 437.299C645.631 432.193 645.39 427.025 645.155 421.832C639.553 423.094 633.81 424.388 628.264 425.638L628.258 425.651ZM419.001 349.453C420.846 349.373 422.17 349.317 424.448 349.212C422.164 351.564 420.592 353.192 418.908 354.925C420.691 355.395 421.83 355.692 422.969 355.995C421.83 356.918 420.697 357.846 419.342 358.941C419.416 359.133 419.831 359.697 419.806 360.235C419.664 363.33 422.888 362.996 423.606 362.637C425.314 361.789 427.623 359.988 427.735 358.434C428.329 350.128 428.329 341.778 428.527 333.417C425.085 333.064 420.864 338.176 420.091 344.353C421.155 343.969 422.133 343.617 424.033 342.936C422.047 345.511 420.617 347.355 419.001 349.459V349.453ZM538.4 567.845C537.924 567.919 537.453 567.994 536.977 568.068C539.669 593.933 544.751 619.427 549.133 645.033C549.405 644.99 549.684 644.946 549.956 644.903C546.106 619.217 542.25 593.531 538.4 567.845ZM631.012 444.528C634.763 451.231 638.142 457.266 641.522 463.307C641.72 463.245 641.918 463.189 642.122 463.127C641.751 456.783 641.385 450.445 640.995 443.73C637.56 444.002 634.565 444.243 631.018 444.528H631.012ZM516.577 17.7152C515.648 17.5048 514.72 17.1334 513.785 17.1086C507.862 16.9415 502.799 19.5163 498.213 22.7657C489.566 28.887 482.857 36.927 476.903 45.6107C475.269 47.9936 473.808 50.5003 472.88 51.9857C478.692 45.4869 484.77 37.7873 491.801 31.0966C498.665 24.5668 506.185 18.4579 516.571 17.7152H516.577ZM435.942 330.254C435.756 330.217 435.564 330.186 435.378 330.149C434.815 331.133 433.819 332.092 433.763 333.101C433.522 337.254 433.936 341.463 433.423 345.572C432.649 351.78 431.467 357.957 430.099 364.06C429.653 366.053 428.205 367.749 425.55 367.935C423.068 368.114 420.623 368.894 418.16 369.402C418.234 371.723 419.763 373.375 421.378 372.775C428.044 370.318 432.42 365.843 433.503 358.613C434.363 352.888 435.317 347.169 435.874 341.413C436.233 337.724 435.942 333.967 435.942 330.241V330.254ZM531.537 538.631C531.27 538.384 531.01 538.142 530.744 537.895C530.156 538.241 529.42 538.458 529.005 538.953C527.953 540.21 526.864 541.491 526.102 542.927C521.002 552.601 515.976 562.318 510.975 572.042C510.746 572.493 510.944 573.162 510.944 573.731C511.192 573.787 511.44 573.843 511.687 573.898C518.304 562.139 524.92 550.385 531.537 538.625V538.631ZM460.093 510.891C460.476 511.033 460.86 511.182 461.244 511.324C464.926 501.823 468.615 492.329 472.298 482.828C471.778 482.63 471.258 482.438 470.738 482.24C467.192 491.79 463.639 501.34 460.093 510.891ZM480.01 55.229C483.909 49.3986 487.388 44.1995 490.947 38.8829C485.772 39.7308 480.115 47.8636 480.01 55.229ZM510.87 453.552C510.462 453.645 510.059 453.732 509.651 453.825C512.337 465.553 515.023 477.288 517.709 489.017C518.031 488.949 518.347 488.875 518.669 488.807C516.069 477.059 513.47 465.306 510.87 453.558V453.552ZM546.552 15.4375C542.795 12.4357 538.289 11.761 533.604 13.3764C536.16 14.1811 538.357 14.8743 540.536 15.5613C540.499 17.9875 541.012 19.8382 544.373 19.4668C544.126 18.4517 543.934 17.6409 543.736 16.8301C544.528 16.4402 545.351 16.0317 546.552 15.4375ZM596.475 459.271C596.129 459.506 595.782 459.742 595.429 459.977C600.585 468.258 605.741 476.54 610.903 484.821C611.157 484.66 611.41 484.499 611.664 484.344C606.601 475.989 601.538 467.627 596.475 459.271ZM603.463 51.3916C604.751 44.6885 601.879 34.8536 598.444 33.5786C600.09 39.4151 601.767 45.3755 603.463 51.3916ZM545.011 518.807C544.825 518.59 544.639 518.374 544.454 518.163C540.53 518.992 536.593 519.76 532.7 520.707C532.013 520.874 531.512 521.815 530.924 522.403C531.685 522.638 532.533 523.22 533.195 523.053C536.736 522.143 540.239 521.078 543.723 519.983C544.225 519.822 544.59 519.215 545.017 518.813L545.011 518.807ZM438.628 135.146C441.159 130.746 443.796 126.159 446.309 121.777C442.496 121.876 438.349 128.79 438.628 135.146ZM510.065 105.035L510.585 104.205C509.7 103.259 508.982 101.804 507.899 101.457C505.324 100.628 501.92 102.417 500.59 105.029H510.065V105.035ZM524.499 54.9319C524.697 55.2166 524.889 55.4951 525.087 55.7798C530.193 52.2148 535.3 48.6435 540.406 45.0784C540.232 44.8308 540.059 44.5771 539.88 44.3295C534.749 47.8636 529.624 51.404 524.493 54.9381L524.499 54.9319ZM500.014 92.2909C500.825 91.5668 501.728 90.9293 502.409 90.1123C503.003 89.3881 503.35 88.4597 503.808 87.618C502.7 87.6118 501.438 87.2528 500.515 87.6613C497.965 88.8125 497.897 90.3475 500.014 92.2909ZM458.787 81.6267C458.787 81.6267 458.743 81.6267 458.725 81.6267V100.387C459.077 100.374 459.437 100.368 459.789 100.356L458.787 81.6267ZM586.145 46.502C587.934 51.2245 589.989 55.8417 594.396 58.8436C591.648 54.7277 588.893 50.6117 586.145 46.502ZM567.986 11.1173C562.533 10.3746 557.068 12.2809 556.455 14.9238C560.249 13.6735 564.216 12.3614 567.986 11.1173ZM502.081 116.888C501.803 117.048 501.524 117.209 501.246 117.37C503.523 121.957 505.801 126.543 508.079 131.129C508.339 130.999 508.599 130.869 508.859 130.739C506.599 126.122 504.34 121.505 502.081 116.888ZM490.191 44.4904L489.275 43.8839C488.174 45.456 487.066 47.0219 485.964 48.594C489.092 48.2061 490.503 46.8383 490.198 44.4904H490.191ZM428.285 327.178C428.335 326.831 428.391 326.478 428.44 326.132C425.432 325.742 422.424 325.352 419.416 324.956C422.17 327.122 425.036 328.409 428.285 327.178ZM602.869 107.288C602.621 107.641 602.374 108 602.132 108.352C605.376 110.537 608.619 112.722 611.862 114.907C612.048 114.641 612.227 114.375 612.413 114.115C609.232 111.837 606.05 109.565 602.875 107.288H602.869ZM496.511 95.7199C496.672 97.5024 496.808 98.9383 496.963 100.653C498.399 99.9596 499.37 99.4892 500.484 98.9507C500.163 97.7562 499.884 96.7101 499.624 95.7137H496.517L496.511 95.7199ZM530.101 76.0995C530.057 76.0376 529.803 75.5549 529.735 75.5796C528.033 76.2233 526.331 76.8918 524.685 77.6716C524.561 77.7273 524.703 78.9281 525.044 79.188C525.36 79.4356 526.232 79.3366 526.622 79.0581C527.755 78.2411 528.764 77.257 530.094 76.0995H530.101Z" fill="black"/>
<path d="M458.842 808.612C462.389 834.329 465.83 859.247 469.302 884.388C462.042 882.247 454.596 881.461 448.37 876.961C445.597 874.956 442.212 873.73 439.649 871.521C436.678 868.964 434.258 865.752 431.727 862.719C431.374 862.298 431.535 861.166 431.826 860.528C433.559 856.691 435.348 852.878 437.229 849.109C438.3 846.955 439.476 844.838 440.856 842.876C441.091 842.542 442.868 842.765 443.443 843.272C446.618 846.095 449.626 849.103 452.746 851.999C453.278 852.494 454.052 852.736 455.129 852.6C452.733 849.759 450.27 846.967 447.992 844.034C447.355 843.217 446.724 841.774 447.015 840.945C450.604 830.72 454.367 820.557 458.093 810.382C458.217 810.048 458.372 809.72 458.842 808.612Z" fill="black"/>
<path d="M508.685 281.358C507.194 274.283 505.826 267.766 504.309 260.574C497.928 262.709 491.002 265.018 484.089 267.363C482.752 267.815 481.495 268.744 480.146 268.886C475.714 269.363 473.319 272.878 470.125 275.212C468.813 276.171 467.464 277.068 466.288 277.885C467.798 274.537 468.962 270.891 471.029 267.865C472.032 266.392 474.656 265.767 476.668 265.271C485.605 263.062 494.605 261.1 503.542 258.865C504.675 258.581 505.974 257.392 506.445 256.297C509.026 250.256 512.77 245.193 517.833 240.984C522.376 237.209 526.282 232.499 531.227 229.423C539.205 224.459 548.118 221.537 557.612 220.547C571.854 219.068 587.024 228.228 592.619 241.727C595.72 249.204 599.236 256.501 602.33 263.978C603.872 267.698 604.163 271.628 603.117 275.67C602.343 278.641 602.3 281.809 601.452 284.756C600.975 286.421 599.681 287.937 598.505 289.311C588.98 300.458 577.431 308.35 562.601 310.194C553.614 311.314 545.042 309.303 536.692 305.589C528.374 301.894 520.798 297.289 514.2 291.05C513.934 290.796 513.723 290.493 513.829 289.67C516.917 291.415 520.253 292.833 523.038 294.968C529.203 299.697 536.29 302.451 543.339 305.372C558.349 311.593 572.262 308.863 584.79 299.455C590.583 295.104 595.943 289.88 598.759 282.67C602.819 272.278 600.22 262.759 595.504 253.444C593.473 249.439 591.412 245.428 589.042 241.622C583.459 232.666 575.506 226.86 564.922 225.666C559.878 225.096 554.672 225.888 548.885 226.087C549.937 227.807 550.408 228.649 550.94 229.441C553.434 233.173 553.614 237.036 551.435 240.235C549.009 243.794 544.559 245.478 540.381 244.457C535.132 243.175 530.837 240.372 527.105 235.717C523.923 238.942 521.287 242.47 517.852 244.877C513.575 247.879 512.498 252.28 510.443 257.454C513.637 257.114 516.286 256.835 518.929 256.551L519.028 256.91C517.152 257.46 515.308 258.209 513.389 258.513C510.239 259.002 509.248 261.087 509.669 263.718C510.548 269.158 511.718 274.556 512.962 279.928C513.098 280.51 514.466 280.949 515.333 281.172C516.41 281.45 517.567 281.438 518.7 281.952C504.266 283.53 489.566 283.84 477.788 294.256C484.398 288.426 490.433 281.772 500.348 282.348C503.133 282.509 505.98 281.686 508.679 281.327L508.685 281.358ZM533.709 232.177C538.63 235.686 542.003 240.576 548.39 239.598C549.442 234.616 545.45 232.134 543.971 228.395C540.56 229.652 537.454 230.797 533.703 232.177H533.709Z" fill="black"/>
<path d="M547.926 285.09C546.818 287.219 545.586 289.899 544.082 292.406C542.572 294.912 540.474 296.949 537.398 297.283C532.094 297.858 528.188 293.105 528.621 287.145C528.906 283.245 530.577 280.163 532.972 277.861C531.939 277.087 530.664 276.573 530.175 275.639C529.779 274.883 530.008 273.441 530.503 272.643C533.814 267.264 539.087 266.788 542.306 271.473C541.099 272.055 539.874 272.649 538.295 273.41C543.6 278.43 549.343 282.063 556.133 282.905C562.038 283.641 568.308 284.044 574.045 282.831C580.569 281.45 586.95 278.56 590.75 272.191C591.252 271.349 592.576 270.997 593.517 270.421C593.962 271.69 594.909 273.014 594.773 274.215C594.303 278.3 591.462 281.017 588.237 283.004C580.148 287.98 571.309 289.88 561.883 288.16C557.321 287.33 552.816 286.173 547.938 285.09H547.926ZM542.479 283.295C542.356 282.948 542.225 282.602 542.102 282.249C541.012 282.639 539.75 282.818 538.896 283.505C538.345 283.951 538.4 285.145 537.992 286.786C540.047 285.183 541.266 284.236 542.479 283.295Z" fill="black"/>
<path d="M610.847 326.255C609.386 326.484 607.907 326.986 606.465 326.905C587.711 325.934 568.957 324.906 550.21 323.835C544.887 323.532 539.521 323.384 534.266 322.579C525.687 321.261 517.616 323.254 509.508 325.463C503.059 327.221 496.597 328.935 490.142 330.675C489.962 330.427 489.777 330.173 489.597 329.926C490.587 329.208 491.472 328.168 492.58 327.828C501.078 325.209 509.614 322.727 518.142 320.215C525.421 318.067 532.694 319.286 540.003 320.128C544.379 320.629 548.817 320.648 553.23 320.827C563.999 321.261 574.788 321.397 585.526 322.164C593.938 322.765 602.299 324.132 610.68 325.166C610.735 325.531 610.791 325.896 610.853 326.262L610.847 326.255Z" fill="black"/>
<path d="M453.52 237.339C455.537 231.787 460.043 229.701 464.289 228.129C473.288 224.799 482.542 222.113 491.739 219.352C504.452 215.534 517.567 216.499 530.596 216.214C537.317 216.066 544.045 215.094 550.717 214.129C566.073 211.9 581.305 211.374 596.284 216.406C596.742 216.561 597.138 216.889 597.441 217.508C593.696 216.827 589.977 215.787 586.201 215.546C579.182 215.094 572.127 214.772 565.108 215.007C558.287 215.236 551.504 216.413 544.689 216.858C535.591 217.452 526.387 217.137 517.375 218.325C507.163 219.668 497.124 222.33 486.979 224.261C477.423 226.08 468.399 229.373 459.69 233.6C457.71 234.56 455.909 235.884 453.526 237.345L453.52 237.339Z" fill="black"/>
<path d="M413.462 283.227C418.581 284.31 423.811 285.034 428.799 286.557C438.653 289.565 448.364 293.019 458.143 296.274C458.904 296.528 459.678 296.732 460.507 297.655C458.941 297.741 457.277 298.218 455.822 297.853C443.202 294.665 430.619 291.304 418.017 288.036C415.424 287.362 414.273 285.486 413.561 283.153C413.555 283.153 413.462 283.227 413.462 283.227Z" fill="black"/>
<path d="M481.712 368.356C486.28 367.774 490.835 366.951 495.428 366.647C508.84 365.762 522.252 364.766 535.683 364.444C545.116 364.215 554.61 364.599 564.006 365.478C574.002 366.412 583.936 368.089 593.839 369.792C597.645 370.448 601.284 372.057 604.905 373.722C564.229 362.061 523.051 365.632 481.873 369.303C481.817 368.987 481.768 368.671 481.712 368.356Z" fill="black"/>
<path d="M436.653 215.354C460.687 204.331 486.292 201.249 512.306 200.228C512.424 200.729 512.535 201.23 512.653 201.732C510.307 202.251 507.98 203.038 505.609 203.217C502.23 203.477 498.807 203.434 495.415 203.26C485.135 202.74 475.343 205.068 465.644 208.07C457.06 210.725 448.463 213.349 439.859 215.93C438.881 216.221 437.798 216.147 436.758 216.239C436.721 215.942 436.69 215.651 436.653 215.354Z" fill="black"/>
<path d="M516.138 239.171C497.248 242.396 478.457 245.893 460.359 252.373C477.992 243.801 496.61 239.456 516.138 239.171Z" fill="black"/>
<path d="M588.07 200.129C604.8 198.315 619.153 205.489 633.215 213.628C625.825 211.003 618.522 208.082 611.014 205.835C603.469 203.582 595.726 202.004 588.064 200.129H588.07Z" fill="black"/>
<path d="M529.723 342.205C530.639 342.088 531.561 341.871 532.477 341.871C548.842 341.852 565.213 341.531 581.565 341.995C589.389 342.218 597.169 343.932 604.905 345.547C579.956 341.803 554.833 343.443 529.791 343.084C529.766 342.793 529.742 342.496 529.717 342.205H529.723Z" fill="black"/>
<path d="M579.12 267.921C578.365 266.132 577.4 264.399 576.886 262.542C575.19 256.396 573.618 250.219 572.126 244.017C571.971 243.361 572.652 242.507 572.943 241.74C573.599 242.266 574.565 242.662 574.868 243.343C578.229 251.049 579.962 259.12 580.197 267.494C579.838 267.636 579.479 267.772 579.12 267.915V267.921Z" fill="black"/>
<path d="M577.567 388.403C576.484 388.403 575.339 388.638 574.324 388.366C562.31 385.178 550.352 381.774 538.295 378.76C534.644 377.85 530.732 377.974 526.245 377.559C527.396 377.095 528.101 376.668 528.857 376.519C535.411 375.25 541.378 377.98 547.468 379.496C555.496 381.496 563.362 384.12 571.347 386.317C573.346 386.868 575.512 386.818 577.604 387.047C577.592 387.499 577.579 387.951 577.567 388.403Z" fill="black"/>
<path d="M424.597 265.785C434.221 264.919 443.152 268.044 452.245 270.26C442.769 270.341 433.386 269.895 424.597 265.785Z" fill="black"/>
<path d="M533.288 398.838C545.147 398.052 556.616 401.165 568.914 401.914C565.46 403.715 538.029 401.277 533.288 398.838Z" fill="black"/>
<path d="M578.625 389.727C578.755 389.133 578.897 388.459 579.064 387.679C584.004 388.508 588.807 389.164 593.541 390.148C598.171 391.108 603.123 391.293 607.573 395.143C597.534 393.262 588.249 391.528 578.631 389.727H578.625Z" fill="black"/>
<path d="M483.903 348.661C489.436 348.661 494.976 348.766 500.509 348.587C501.858 348.543 503.214 347.627 504.501 346.984C508.091 345.183 511.637 343.313 515.209 341.475L515.599 342.162C512.615 344.681 509.818 347.485 506.575 349.596C505.058 350.586 502.657 350.53 500.676 350.437C495.099 350.177 489.535 349.657 483.971 349.243C483.952 349.051 483.934 348.853 483.915 348.661H483.903Z" fill="black"/>
<path d="M478.389 389.864C490.755 388.576 503.121 387.283 516.088 385.934C515.444 387.091 515.24 387.858 514.968 387.883C502.818 388.997 490.656 390.05 478.5 391.108C478.463 390.693 478.419 390.279 478.382 389.858L478.389 389.864Z" fill="black"/>
<path d="M492.024 409.948C483.718 410.728 475.436 411.508 467.539 412.25C470.497 408.172 488.564 406.241 492.024 409.948Z" fill="black"/>
<path d="M447.509 377.3C448.692 381.471 443.226 383.068 435.106 382.548C435.669 378.946 441.939 376.297 447.509 377.3Z" fill="black"/>
<path d="M538.871 256.594C539.44 254.898 539.812 253.084 540.678 251.556C541.074 250.856 542.473 250.423 543.402 250.448C543.903 250.46 544.602 251.636 544.813 252.397C545.716 255.703 543.544 257.962 541.755 260.252C541.576 260.481 539.824 259.992 539.416 259.404C538.97 258.766 539.242 257.634 539.199 256.711C539.088 256.674 538.976 256.631 538.865 256.594H538.871Z" fill="black"/>
<path d="M591.945 302.829C592.025 300.204 593.647 300.229 595.213 300.532C601.507 301.764 607.789 303.082 614.072 304.37C614.028 304.716 613.985 305.069 613.936 305.416C606.614 304.556 599.298 303.695 591.938 302.829H591.945Z" fill="black"/>
<path d="M654.785 277.632C648.342 283.902 640.246 285.981 631.668 286.854C639.374 283.778 647.08 280.708 654.785 277.632Z" fill="black"/>
<path d="M522.648 304.023C515.791 304.853 508.66 304.469 502.502 308.381C508.041 301.69 515.246 302.414 522.648 304.023Z" fill="black"/>
<path d="M569.496 251.494C571.575 255.821 573.655 260.147 575.735 264.479C575.227 264.727 574.72 264.968 574.212 265.216C572.102 260.883 569.991 256.551 567.887 252.218C568.425 251.977 568.964 251.742 569.502 251.5L569.496 251.494Z" fill="black"/>
<path d="M612.741 222.546C615.18 220.083 617.117 220.838 618.918 222.231C619.345 222.565 619.698 223.574 619.494 223.989C619.271 224.453 618.25 224.954 617.798 224.799C616.133 224.224 614.555 223.382 612.735 222.546H612.741Z" fill="black"/>
<path d="M592.563 410.32C597.342 410.654 602.114 410.988 606.892 411.322C606.855 411.774 606.818 412.226 606.787 412.672C601.977 412.796 597.286 411.391 592.563 410.32Z" fill="black"/>
<path d="M428.657 247.279C432.408 248.505 436.158 249.736 439.915 250.962C439.835 251.222 439.761 251.488 439.68 251.748C435.843 250.727 432.005 249.699 428.168 248.678C428.329 248.214 428.496 247.743 428.657 247.279Z" fill="black"/>
<path d="M615.198 256.384C611.788 256.161 608.378 255.938 604.967 255.715C604.98 255.517 604.998 255.326 605.011 255.127H615.279C615.254 255.548 615.223 255.963 615.198 256.384Z" fill="black"/>
<path d="M609.671 276.691C612.716 277.031 615.761 277.366 618.807 277.706C618.763 278.114 618.714 278.529 618.67 278.938C615.625 278.616 612.574 278.294 609.529 277.966C609.578 277.539 609.622 277.112 609.671 276.691Z" fill="black"/>
<path d="M581.714 259.256C581.429 257.795 581.039 256.347 580.903 254.867C580.853 254.329 581.417 253.729 581.701 253.159C582.265 253.654 583.304 254.149 583.304 254.638C583.292 256.217 582.896 257.795 582.648 259.373C582.339 259.336 582.029 259.293 581.714 259.256Z" fill="black"/>
<path d="M603.432 237.215H594.377V236.603H603.352C603.376 236.807 603.407 237.011 603.432 237.215Z" fill="black"/>
<path d="M585.136 115.402C581.064 118.466 577.115 118.707 574.949 115.532C578.495 115.093 581.776 114.69 585.056 114.288C585.081 114.659 585.112 115.031 585.136 115.402Z" fill="black"/>
<path d="M636.923 378.543C633.791 381.062 630.344 380.375 626.847 379.162C630.158 378.636 633.469 378.11 636.787 377.584L636.929 378.543H636.923Z" fill="black"/>
<path d="M647.68 398.231V408.475C645.514 403.189 645.477 401.574 647.68 398.231Z" fill="black"/>
<path d="M559.865 83.6567C560.063 84.9194 560.552 85.922 560.255 86.5843C559.624 88.0202 558.603 89.2952 557.656 90.5703C557.631 90.6074 556.189 89.9575 556.152 89.5614C555.985 87.7603 555.062 85.6126 557.625 84.5851C558.175 84.3623 558.726 84.1271 559.859 83.6567H559.865Z" fill="black"/>
<path d="M596.599 97.9603C595.64 92.5137 594.643 87.2341 593.801 81.9298C593.461 79.8131 593.374 77.6654 596.395 77.195C597.224 77.065 597.954 76.3532 598.412 76.0933C602.968 77.8077 601.198 82.066 602.386 85.1421C602.955 86.6214 603.364 88.1811 604.07 89.5861C605.14 91.7152 604.589 93.9001 602.51 94.9585C600.628 95.9178 598.74 96.8648 596.599 97.9479V97.9603Z" fill="black"/>
<path d="M589.791 82.0537C591.883 84.6718 591.834 87.7974 589.797 90.3908C587.613 86.7143 587.575 84.7523 589.791 82.0537Z" fill="black"/>
<path d="M641.113 429.117C640.426 431.24 639.875 432.954 639.213 434.99C636.849 431.066 637.282 429.389 641.113 429.117Z" fill="black"/>
</svg>
