<svg width="1080" height="1080" viewBox="0 0 1080 1080" fill="none" xmlns="http://www.w3.org/2000/svg">
<path d="M617.653 721.74C618.056 724.42 618.428 726.611 618.718 728.814C620.804 744.727 627.941 758.598 636.234 771.985C643.872 784.315 649.913 797.417 654.951 810.978C660.812 826.755 666.971 842.451 672.133 858.463C676.533 872.111 679.987 886.093 683.335 900.05C685.86 910.584 687.563 921.323 689.618 931.968C689.884 933.361 689.89 934.84 690.403 936.128C690.663 936.784 691.79 937.669 692.05 938.009C694.371 941.029 698.37 941.419 700.722 943.672C704.794 947.584 707.059 953.037 707.406 958.737C707.734 964.147 706.911 969.618 707.028 975.046C707.146 980.221 707.672 985.407 708.304 990.551C708.879 995.267 709.424 1000.06 710.73 1004.61C712.723 1011.54 715.464 1018.25 717.68 1025.13C718.856 1028.78 720.001 1032.51 720.441 1036.3C721.047 1041.46 721.078 1046.71 721.159 1051.92C721.22 1056.05 716.875 1060.45 712.759 1060.33C701.916 1060.03 691.041 1059.91 680.247 1058.99C673.897 1058.45 667.274 1058.83 661.258 1055.92C660.063 1055.35 658.9 1054.68 657.674 1054.18C653.063 1052.25 651.33 1048.55 651.256 1043.83C651.237 1042.8 651.256 1041.77 651.256 1040.73C651.256 1035.46 652.048 1034.51 657.427 1033.54C655.143 1026.12 656.071 1019.17 659.067 1011.9C661.053 1007.08 661.741 1001.18 661.091 996.003C660.633 992.364 658.924 988.688 659.345 984.832C660.175 977.182 661.561 969.587 662.087 961.919C662.366 957.827 661.425 953.637 660.881 949.515C660.484 946.519 659.934 943.536 659.259 940.596C659.017 939.556 658.275 938.597 657.637 937.687C656.424 935.948 654.549 934.444 653.954 932.531C650.618 921.787 647.846 910.869 644.38 900.167C639.843 886.161 633.239 873.052 626.14 860.172C620.309 849.594 614.992 838.725 609.193 828.129C601.765 814.568 597.08 799.937 591.69 785.546C588.347 776.621 583.389 768.309 579.242 759.675C569.401 739.169 559.14 718.85 552.108 697.125C551.706 695.893 550.994 694.76 550.617 693.981C542.973 695.658 535.496 697.088 528.143 698.976C523.031 700.288 518.029 702.089 513.078 703.933C510.348 704.948 509.216 708.216 510.924 710.568C513.035 713.471 511.939 716.163 511.425 719.066C510.472 724.439 510.138 729.953 508.758 735.196C507.706 739.2 506.047 743.329 500.854 744.232C499.963 744.387 499.01 746.126 498.756 747.277C498.595 748.014 499.499 749.202 500.217 749.871C503.355 752.805 505.168 756.481 506.4 760.492C507.52 764.131 508.535 767.807 509.686 771.441C509.953 772.276 510.46 773.106 511.054 773.762C514.935 778.113 518.958 782.34 522.715 786.797C523.637 787.892 523.365 789.996 524.3 791.08C525.135 792.051 526.986 792.064 528.174 792.837C529.61 793.766 531.058 794.874 532.055 796.229C533.076 797.622 534.209 799.423 534.178 801.02C534.011 808.577 533.534 816.134 533.033 823.679C532.5 831.614 531.82 839.542 531.188 847.471C530.452 856.749 529.752 866.033 528.935 875.305C528.706 877.904 528.713 880.095 530.495 882.472C533.615 886.619 531.479 891.18 530.346 895.525C530.025 896.769 529.468 898.007 528.762 899.078C525.42 904.153 525.779 909.668 526.961 915.17C527.958 919.825 527.543 924.114 525.655 928.508C522.108 936.777 518.89 945.195 515.461 953.742C516.885 954.052 517.974 954.479 519.07 954.498C526.348 954.603 531.751 960.384 532.872 966.864C533.639 971.32 532.68 976.061 532.643 980.672C532.63 982.436 532.519 984.497 533.336 985.909C535.898 990.359 536.945 994.951 536.858 1000.09C536.784 1004.74 537.873 1009.4 537.916 1014.06C537.972 1019.96 535.496 1024.93 531.25 1029.07C524.367 1035.79 516.792 1041.66 508.349 1046.16C505.199 1047.85 501.158 1048.45 497.512 1048.47C491.502 1048.52 485.486 1047.67 479.464 1047.27C477.786 1047.16 476.097 1047.31 474.413 1047.38C463.235 1047.78 452.051 1048.13 440.879 1048.65C436.726 1048.84 432.591 1049.55 428.438 1049.78C426.445 1049.89 424.415 1049.25 422.416 1049.3C418.752 1049.39 415.057 1049.47 411.442 1050.03C405.568 1050.93 402.53 1049.3 400.481 1043.67C400.066 1042.54 399.255 1041.54 398.828 1040.41C396.254 1033.62 398.946 1030.35 404.034 1026C412.705 1018.58 421.797 1011.66 430.741 1004.56C433.44 1002.42 436.243 1000.4 438.948 998.275C439.647 997.724 440.303 997.012 440.737 996.239C442.426 993.218 444.605 992.606 447.663 994.419C450.596 996.158 455.288 993.144 456.452 989.907C459.392 981.731 457.658 973.388 458.116 965.137C458.283 962.055 457.987 958.941 458.24 955.872C458.358 954.423 458.439 952.833 460.939 952.43C464.448 951.867 463.773 948.265 464.312 945.764C465.098 942.131 465.779 938.492 469.468 936.579C472.451 935.038 472.63 932.525 472.327 929.635C471.851 925.061 471.671 920.456 471.12 915.888C470.421 910.076 469.858 904.203 468.521 898.521C467.407 893.786 463.452 890.908 459.237 888.983C454.892 887.002 452.837 883.982 452.546 879.272C452.106 872.142 451.451 865.024 450.708 857.925C449.779 849.037 448.616 840.18 447.681 831.292C447.285 827.535 447.322 823.729 446.994 819.965C446.468 813.9 445.589 807.853 445.267 801.781C445.038 797.504 445.472 793.184 445.645 788.889C445.732 786.753 446.116 784.742 444.612 782.705C443.733 781.511 443.924 779.536 443.745 778.552C447.706 774.733 451.76 775.656 455.913 776.534C456.514 775.513 456.916 774.269 457.757 773.496C460.153 771.286 461.162 769.411 458.977 766.099C458.042 764.682 459.175 761.618 459.868 759.464C461.131 755.559 464.38 753.244 467.667 751.158C473.714 747.315 475.385 746.064 470.563 739.12C465.005 731.129 462.591 722.241 459.924 713.248C459.447 711.639 457.801 710.37 456.637 708.879C452.565 713.267 449.031 717.079 445.342 721.053C447.161 723.455 449.291 726.017 451.116 728.777C451.865 729.904 451.964 731.457 452.36 732.819C450.72 733.048 449.024 733.642 447.458 733.401C445.725 733.128 444.153 731.996 442.451 731.389C440.068 730.547 437.89 729.551 435.024 730.356C431.317 731.395 427.752 729.093 425.74 726.555C418.913 717.927 411.975 709.244 406.435 699.792C400.314 689.345 392.521 679.751 389.185 667.694C386.518 658.051 383.417 648.551 383.25 638.425C383.064 627.327 382.359 616.211 382.798 605.145C383.417 589.554 388.523 574.916 393.71 560.34C395.344 555.753 395.554 550.66 397.231 546.098C400.45 537.315 404.238 528.737 407.816 520.084C408.936 517.367 408.286 516.668 405.457 516.241C402.604 515.813 399.874 514.619 397.052 513.907C395.492 513.517 393.858 513.381 392.249 513.232C387.279 512.793 382.297 512.415 377.327 511.988C374.876 511.778 373.997 510.119 374.814 508.132C375.953 505.353 374.535 504.041 372.672 502.506C367.628 498.353 362.714 494.045 357.706 489.855C353.869 486.649 353.751 482.725 355.243 478.386C358.585 468.65 363.029 459.434 368.389 450.621C365.61 447.409 362.986 443.98 359.947 440.984C357.038 438.118 357.824 434.856 358.74 431.898C361.03 424.477 363.543 417.081 368.253 410.718C368.495 410.396 368.618 409.932 368.928 409.721C377.568 403.699 379.809 394.155 382.42 384.902C384.909 376.076 390.578 369.986 398.148 365.35C399.082 364.774 400.073 364.285 401.063 363.815C404.096 362.373 405.216 360.244 403.867 356.938C403.483 356.004 403.793 354.809 403.712 353.732C403.099 344.981 402.195 336.241 401.898 327.477C401.316 310.357 403.873 293.832 413.083 278.977C416.196 273.958 419.922 269.328 423.475 264.37C422.391 262.043 420.801 259.047 419.588 255.909C418.145 252.171 418.598 250.048 421.816 247.77C427.337 243.865 432.944 240.034 438.799 236.667C451.698 229.258 464.776 222.165 477.768 214.923C478.541 214.49 479.42 214.044 479.934 213.37C482.645 209.829 486.396 207.744 490.444 206.438C492.876 205.652 493.043 204.296 492.79 202.408C492.313 198.893 491.743 195.39 491.124 191.28C489.428 191.49 487.386 191.986 485.344 191.961C479.705 191.893 474.067 191.713 468.447 191.305C467.407 191.23 466.274 190.036 465.507 189.095C461.645 184.379 459.583 178.734 457.578 173.089C456.99 171.437 456.532 170.069 454.298 170.279C453.598 170.347 452.626 169.586 452.088 168.942C448.746 164.926 444.562 162.264 439.666 160.494C432.01 157.727 429.008 151.334 427.275 144.036C424.706 133.193 425.919 122.794 431.558 113.176C436.206 105.241 441.188 97.4985 446.233 89.8052C451.029 82.4893 455.894 75.2044 461.137 68.2104C463.823 64.6268 467.104 61.3278 470.638 58.5798C475.484 54.8104 479.829 50.4222 485.659 47.7917C494.095 43.979 511.135 43.292 518.772 54.6495C522.944 60.8574 527.128 67.0592 531.083 73.4033C535.372 80.2673 540.757 84.9651 549.465 84.3461C556.174 83.8757 562.89 83.4982 569.612 83.1763C578.797 82.7369 587.524 84.7051 594.784 90.3251C598.269 93.0236 600.472 97.4119 603.158 101.107C605.411 104.202 607.874 107.222 609.626 110.595C612.875 116.859 618.619 118.728 624.778 120.183C628.114 120.969 631.462 121.742 634.743 122.72C640.759 124.515 643.148 128.439 641.916 134.492C641.006 138.943 640.412 143.56 638.729 147.719C637.404 150.993 634.656 153.698 632.496 156.632C630.633 159.169 628.634 161.608 626.839 164.195C625.403 166.262 624.555 168.194 625.669 171.115C627.037 174.705 623.732 176.648 620.916 179.037C621.448 177.249 621.825 175.98 622.265 174.507C617.647 177.236 618.168 181.816 623.949 185.307C620.025 188.718 616.218 191.849 612.653 195.235C611.397 196.429 610.716 198.243 609.824 199.809C609.496 200.391 609.502 201.412 609.057 201.641C607.138 202.613 606.179 204.098 606.965 206.054C607.906 208.381 609.026 210.832 612.294 210.597C612.597 210.572 612.906 210.646 613.835 211.303C612.219 212.509 610.604 213.71 609.205 214.756C610.332 218.136 611.273 221.082 612.3 224.003C613.47 227.333 611.861 230.192 609.645 231.857C605.12 235.262 600.058 237.954 595.193 240.894C594.45 241.346 593.552 241.544 592.723 241.859C593.076 242.33 593.429 242.8 593.781 243.264C596.975 243.264 600.181 243.401 603.369 243.227C607.312 243.017 611.242 242.454 615.184 242.231C618.199 242.057 620.519 243.685 623.168 245.035C631.184 249.113 633.152 257.197 636.841 264.067C642.058 273.784 646.979 283.675 651.572 293.695C657.476 306.563 664.371 318.861 671.668 330.962C676.106 338.321 680.866 345.494 685.186 352.922C687.977 357.718 691.685 361.587 695.442 365.579C697.039 367.275 697.354 370.673 697.342 373.297C697.317 380.056 696.902 386.821 696.401 393.567C696.184 396.47 695.126 399.311 694.922 402.214C694.792 404.009 695.095 406.132 695.993 407.642C700.146 414.642 704.751 421.382 708.848 428.413C711.553 433.049 712.067 437.574 709.752 443.218C705.555 453.468 701.978 464.163 699.855 475.013C698.202 483.455 699.069 492.405 698.963 501.126C698.901 506.337 696.791 510.732 693.913 514.829C692.162 517.324 689.407 516.439 687.055 516.172C685.186 515.962 683.391 515.108 681.348 514.477C678.297 519.558 675.196 524.695 672.145 529.863C671.872 530.328 671.693 531.052 671.848 531.534C678.452 551.817 686.727 571.196 701.049 587.499C708.6 596.102 715.699 605.101 723.046 613.884C723.56 614.497 724.439 615.184 725.145 615.184C729.583 615.184 729.947 618.755 731.018 621.491C720.143 632.984 714.697 647.307 708.898 661.499C705.159 670.659 700.758 679.553 696.661 688.571C693.554 695.417 690.224 702.169 687.488 709.163C686.461 711.788 687.223 715.062 686.486 717.853C684.035 727.131 678.947 734.837 670.956 740.178C666.717 743.013 661.753 743.941 656.523 742.32C651.262 740.686 645.877 739.454 640.598 737.863C639.378 737.492 638.289 736.483 637.299 735.592C633.585 732.25 631.877 726.883 626.505 725.169C623.46 724.197 620.532 722.873 617.678 721.752L617.653 721.74Z" fill="white"/>
<path d="M631.01 172.65C630.564 166.937 634.384 160.865 638.549 160.636C636.476 164.864 635.9 169.741 631.01 172.65Z" fill="white"/>
<path d="M622.067 195.55C622.197 201.059 619.993 202.581 614.831 201.028C617.165 199.264 619.474 197.519 622.067 195.55Z" fill="white"/>
<path d="M453.06 733.847C445.026 724.891 438.688 714.92 434.262 703.791L435.303 702.85C436.739 704.107 438.49 705.147 439.561 706.663C442.117 710.29 444.358 714.14 446.679 717.822C447.762 716.349 448.888 714.814 450.021 713.273C446.604 706.818 450.572 699.273 457.572 695.782C455.616 695.089 454.335 694.637 452.559 694.006C453.598 693.35 454.564 692.743 455.641 692.062C453.239 689.958 450.082 688.151 448.448 685.433C447.211 683.372 446.945 679.659 447.991 677.548C449.742 674.008 448.566 671.334 447.632 668.159C444.401 657.136 441.386 646.044 438.36 634.965C435.804 625.613 433.043 616.304 430.896 606.859C427.566 592.221 424.601 577.497 421.63 562.779C420.008 554.739 418.697 546.63 417.224 538.56C417.155 538.182 416.87 537.835 415.893 537.297C414.296 542.75 412.829 548.246 411.046 553.631C410.353 555.735 411.232 558.947 407.524 559.573C404.987 555.345 405.296 550.827 406.485 546.445C409.437 535.564 414.092 525.395 420.009 515.801C428.346 502.29 436.701 488.785 444.995 475.249C448.399 469.69 451.971 464.207 454.849 458.382C456.26 455.529 456.798 451.983 456.811 448.752C456.854 437.549 456.81 426.328 456.179 415.15C455.684 406.429 454.137 397.776 453.283 389.068C452.651 382.587 452.509 376.064 451.915 369.584C451.277 362.614 450.343 355.676 449.588 348.725C448.901 342.449 448.071 336.18 447.669 329.885C447.099 320.997 446.821 312.084 446.524 303.178C446.437 300.516 446.214 298.053 448.486 295.559C449.866 294.042 449.154 290.663 449.489 288.131C451.123 275.771 454.564 264.049 462.932 254.449C470.997 245.196 479.061 235.881 487.856 227.339C491.167 224.127 491.112 221.732 490.004 218.148C489.175 215.462 488.803 212.633 488.166 209.588C476.678 216.069 465.141 222.58 453.604 229.097C441.869 235.732 430.518 242.912 420.677 251.955C424.935 261.573 429.076 271.179 433.464 280.673C434.85 283.675 435.228 285.73 432.598 288.552C428.117 293.343 424.366 298.814 419.946 304.465C426.996 316.541 428.086 331.253 432.808 344.826C435.222 351.771 438.143 358.536 440.83 365.381C444.358 374.374 447.056 383.59 447.6 393.289C447.966 399.751 448.715 406.299 448.071 412.686C447.23 420.974 445.292 429.162 443.609 437.351C441.771 446.295 439.685 455.195 437.673 464.101C437.556 464.634 437.116 465.098 436.831 465.587L435.995 465.469C436.162 463.266 436.187 461.044 436.528 458.865C437.92 449.86 439.573 440.891 440.792 431.861C441.69 425.207 442.736 418.455 442.501 411.789C442.229 404.108 440.879 396.433 439.511 388.839C438.546 383.466 437.029 378.15 435.29 372.969C432.851 365.697 429.75 358.647 427.355 351.362C425.622 346.095 424.328 340.648 423.252 335.202C421.184 324.791 416.988 315.136 413.33 305.27C412.637 303.401 413.342 300.058 414.692 298.579C418.479 294.42 422.843 290.75 427.207 287.16C428.674 285.953 428.457 285.464 427.584 284.108C423.252 277.393 419.068 270.585 414.834 263.807C409.295 254.95 411.021 251.837 419.024 245.313C439.177 228.868 462.431 217.542 485.647 206.221C486.396 205.856 487.176 204.631 487.169 203.814C487.126 200.564 486.773 197.315 486.507 193.694C482.837 194.474 479.346 193.966 475.719 195.402C469.827 197.736 463.377 195.037 460.252 188.811C457.485 183.302 455.046 177.626 452.447 171.988C451.425 171.988 450.194 171.901 448.975 172.019C448.226 172.093 447.273 172.285 446.845 172.792C446.474 173.238 446.493 174.278 446.728 174.903C447.298 176.419 448.183 177.812 448.789 179.316C450.634 183.89 448.356 187.133 443.429 187.04C442.916 187.028 442.396 187.047 441.882 187.04C438.874 186.972 437.84 185.691 438.348 182.671C439.419 176.308 438.576 174.043 433.384 169.654C432.486 171.728 431.62 173.721 430.698 175.862C430.239 174.971 429.85 174.204 429.584 173.69C426.904 174.457 424.18 174.866 421.853 176.054C420.77 176.605 420.027 178.629 419.928 180.046C419.841 181.241 420.578 183.017 421.531 183.655C423.605 185.035 426.056 185.833 428.34 186.904C429.058 187.238 429.85 187.56 430.382 188.105C430.883 188.619 431.087 189.417 431.422 190.092C430.79 190.315 430.14 190.754 429.521 190.723C423.462 190.364 417.904 188.916 414.797 182.986C412.5 178.598 414.772 171.406 419.074 169.091C419.513 168.856 419.915 168.565 420.522 168.181C418.021 166.182 415.23 164.598 413.404 162.258C412.234 160.754 412.327 158.161 412.16 156.025C412.092 155.109 412.81 154.132 413.281 152.881C407.129 153.556 401.638 155.202 397.331 159.547C395.319 161.571 393.747 163.88 396.848 166.436C397.244 166.758 397.287 167.507 397.498 168.07C392.825 167.804 392.454 162.475 393.605 158.216C394.645 154.373 397.528 151.903 400.871 150.096C402.715 149.1 403.848 148.344 403.285 145.832C403.006 144.581 404.294 142.978 404.906 141.456C401.62 139.06 401.769 136.919 405.414 132.958C405.916 132.562 406.417 132.165 406.924 131.763C406.794 131.59 406.664 131.41 406.528 131.237L404.87 132.512C400.735 134.616 398.624 138.46 396.501 142.291C396.124 142.972 395.839 143.702 395.257 144.297C395.313 139.104 397.566 134.765 401.149 131.249C403 129.442 405.476 127.728 407.915 127.27C409.363 126.997 410.873 127.072 412.204 126.193C412.272 126.149 412.284 126.026 412.383 125.803C408.812 121.402 405.203 116.902 406.621 110.54C403.062 111.326 399.627 115.566 398.847 120.276C398.42 122.838 398.828 125.116 401.873 126.094C401.849 126.378 401.824 126.657 401.799 126.942C400.605 127.164 399.157 127.913 398.272 127.492C396.978 126.874 395.678 125.592 395.109 124.28C393.561 120.69 394.731 117.193 396.148 113.789C396.452 113.065 396.644 112.291 396.891 111.542C397.033 111.388 397.182 111.227 397.324 111.072C397.071 111.109 396.817 111.153 396.57 111.19C395.14 111.809 393.716 112.434 392.193 113.096C391.667 109.803 392.744 108.002 395.214 106.572C397.213 105.415 398.847 103.626 400.5 102.24C399.095 99.7022 397.819 97.3935 396.532 95.0725C399.293 90.1581 399.41 88.8275 397.188 87.3915C395.14 89.8178 395.864 92.4792 396.545 95.1406C392.751 91.6189 394.285 87.9362 396.427 84.2164C394.129 84.4351 393.21 88.0868 393.672 95.1715L392.782 95.3696C392.125 92.4297 391.463 89.4897 390.838 86.7045C386.951 89.4526 387.05 90.4057 392.509 99.4298C390.145 99.0275 387.372 96.0257 387.007 93.2095C386.388 88.3632 386.852 84.0555 391.556 80.9112C393.177 79.8219 394.354 77.7918 394.038 74.7776C393.586 70.4079 397.139 67.4555 400.747 65.3635C404.312 63.2901 408.143 61.6809 411.752 59.6693C412.767 59.1061 413.918 57.961 414.116 56.915C415.106 51.6479 419.056 49.624 423.363 47.8229C424.973 47.1482 426.817 46.5355 427.956 45.3285C431.465 41.584 434.262 41.2497 438.954 44.363C439.462 44.6972 440.006 44.9757 440.081 45.0191C442.81 40.5627 445.292 36.0321 448.238 31.8233C451.048 27.8002 454.768 24.6437 459.385 22.7188C461.991 21.6356 464.423 21.7099 466.67 23.7029C467.178 24.1547 468.242 24.4394 468.861 24.2352C475.855 21.8832 479.111 25.7825 480.522 31.78C484.551 28.4006 488.71 24.9098 493.161 21.1776C493.123 21.0972 492.715 20.3111 492.257 19.4198C491.861 19.5993 491.638 19.7293 491.397 19.8098C487.813 21.0229 484.248 21.1281 480.862 19.2651C478.591 18.0087 478.523 15.8919 480.621 14.4374C486.414 10.4452 496.342 15.4153 496.571 21.4314C496.583 21.7408 496.441 22.2174 496.59 22.335C499.102 24.2475 501.399 26.7914 504.24 27.825C508.368 29.329 512.558 30.2574 515.04 34.3919C515.566 35.2708 516.513 36.4035 517.361 36.4901C521.069 36.8677 520.134 39.3744 519.806 41.4787C519.397 44.0907 518.716 46.6654 518.079 49.624C524.144 49.4197 528.588 50.9609 532.24 54.6621C534.623 57.0822 535.025 61.1052 533.317 64.2061C532.89 64.9798 533.627 66.3167 533.404 67.3008C533.033 68.9596 532.321 70.5378 531.609 72.5803C534.202 72.0604 536.554 71.7448 538.813 71.1073C542.341 70.1108 545.752 68.6192 549.329 67.8702C551.341 67.4494 554.324 66.032 554.924 70.2841C555.098 71.5096 557.066 72.4813 558.446 73.7873C559.072 73.0941 559.814 72.1285 560.693 71.3115C562.37 69.7518 564.407 69.3743 566.22 70.7669C568.033 72.1595 569.277 71.8624 570.967 70.5688C574.347 67.9878 578.314 67.307 582.405 68.2787C583.643 68.5696 584.93 69.6466 585.698 70.7174C586.899 72.4071 587.976 73.614 590.334 73.2117C594.122 72.568 594.951 75.6688 596.115 78.3736C599.364 78.1632 602.608 77.5999 605.795 77.8413C609.255 78.1075 612.232 79.7538 613.909 83.1085C614.856 84.9962 615.921 86.8283 616.806 88.747C617.314 89.8425 617.944 91.0866 617.858 92.213C617.585 95.8771 620.006 97.7154 622.581 99.1327C628.232 102.246 629.606 104.505 628.98 110.961C628.9 111.771 628.968 112.601 628.968 112.607C631.722 114.383 633.901 116.092 636.352 117.243C637.609 117.837 639.36 117.608 640.852 117.429C644.943 116.933 647.536 119.019 647.511 123.104C647.499 125.165 648.124 126.768 649.145 128.656C650.786 131.683 651.609 135.421 649.641 138.794C647.468 142.508 644.973 146.042 642.59 149.688C645.481 152.114 645.785 154.354 643.476 157.666C643.154 158.13 642.634 158.761 642.745 159.176C643.568 162.376 641.408 164.647 640.424 167.296C640.071 168.256 639.837 169.537 640.177 170.428C641.539 174.006 640.356 176.308 636.853 177.874C634.972 178.716 633.536 180.566 631.902 181.959C630.744 182.943 629.58 183.921 628.404 184.917C628.46 185.004 628.528 185.208 628.664 185.295C633.374 188.334 633.356 190.203 628.534 193.044C626.894 194.01 625.199 194.876 622.995 196.083C626.325 197.098 629.16 197.872 631.932 198.844C634.767 199.834 637.336 201.394 638.202 204.463C639.663 209.638 634.829 214.007 630.218 212.881C627.6 215.462 625.558 218 622.995 219.788C621.727 220.667 619.467 220.389 617.71 220.172C616.899 220.073 616.224 218.879 615.252 217.962C614.546 218.278 613.222 218.879 611.947 219.448C612.919 221.435 614.287 223.391 614.831 225.551C615.487 228.163 613.451 229.295 610.554 229.914C613.562 230.645 613.563 231.771 611.761 233.083C608.289 235.615 604.774 238.084 600.596 241.067C610.833 241.662 620.371 242.212 629.902 242.763C630.007 242.763 630.119 242.739 630.212 242.763C631.456 243.203 632.7 243.655 633.944 244.1C632.731 244.892 631.524 245.691 630.305 246.477C630.082 246.619 629.822 246.706 629.735 246.749C637.379 259.592 645.011 272.336 652.574 285.117C661.66 300.473 670.598 315.922 679.783 331.222C685.384 340.543 691.375 349.629 697.094 358.876C698.518 361.178 699.453 363.772 700.802 366.124C703.909 371.527 701.681 376.986 701.217 382.457C700.542 390.374 699.706 398.308 699.78 406.231C699.799 408.391 702.789 410.576 704.516 412.668C708.929 418.022 713.657 423.233 715.136 430.277C715.52 432.09 715.285 434.609 714.264 436.039C710.036 441.937 707.802 448.702 705.834 455.443C702.442 467.066 701.216 479.098 700.734 491.199C700.486 497.419 700.133 503.645 699.44 509.829C699.112 512.762 698.19 515.616 695.213 517.454C691.598 519.682 688.28 522.294 683.775 522.603C682.178 522.715 680.631 523.544 679.065 524.052C678.7 523.792 678.334 523.532 677.969 523.266C678.093 524.931 677.759 526.812 678.421 528.23C684.542 541.413 690.75 554.553 697.094 567.631C701.377 576.463 708.514 583.185 714.561 590.717C721.288 599.098 727.862 607.602 734.429 616.106C735.871 617.975 735.926 619.869 734.237 621.924C733.061 623.348 732.281 625.236 731.767 627.043C728.369 639.026 722.328 649.795 716.603 660.719C708.73 675.747 699.533 690.156 694.489 706.539C693.313 710.364 692.861 714.412 691.975 718.875H688.002C685.347 724.228 682.865 730.201 679.516 735.642C677.282 739.269 674.2 742.623 670.826 745.241C665.596 749.295 659.525 747.847 653.731 746.219C644.2 743.539 636.593 737.597 629.11 731.451C626.579 729.372 623.942 727.434 620.829 725.782C622.358 728.728 623.744 731.761 625.44 734.608C635.275 751.14 645.11 767.678 655.087 784.123C660.831 793.599 664.068 803.972 666.711 814.606C669.781 826.953 673.024 839.258 676.038 851.624C679.82 867.122 683.168 882.726 687.235 898.144C690.292 909.724 694.185 921.088 697.701 932.55C697.905 933.206 698.221 933.862 698.258 934.531C698.538 939.111 700.915 942.068 705.388 943.4C708.21 944.236 710.414 947.628 709.671 950.413C708.099 956.305 708.792 962.08 709.844 967.972C710.482 971.512 710.148 975.238 710.16 978.884C710.173 983.105 709.999 987.326 710.092 991.541C710.117 992.655 710.748 993.776 711.194 994.859C712.754 998.653 714.449 1002.4 715.916 1006.22C717.748 1011.02 719.475 1015.86 721.097 1020.73C721.66 1022.43 721.753 1024.27 722.062 1026.08C726.178 1026.62 727.565 1028.25 727.942 1034.24C728.369 1041.06 728.146 1047.9 726.011 1054.46C725.572 1055.82 724.365 1057.12 723.176 1058C716.009 1063.27 708.043 1066.38 699.044 1066.61C696.512 1066.67 693.975 1067.25 691.462 1067.11C683.112 1066.63 674.726 1066.31 666.451 1065.2C660.478 1064.4 654.648 1062.48 648.786 1060.97C648.081 1060.78 647.072 1060.01 647.029 1059.44C646.967 1058.62 647.419 1057.38 648.068 1056.94C649.671 1055.87 649.473 1055.04 648.26 1053.89C645.314 1051.11 644.893 1047.34 645.178 1043.75C645.537 1039.19 646.515 1034.64 647.61 1030.18C648.483 1026.63 650.463 1025.58 654.196 1025.86C654.338 1026.19 654.48 1026.52 654.629 1026.85L655.013 1026.7L654.722 1025.42C653.577 1020.91 654.586 1016.57 655.842 1012.27C656.647 1009.5 657.717 1006.8 658.349 1004C658.639 1002.71 658.132 1001.26 658.064 999.878C657.655 991.906 656.857 983.922 657.012 975.956C657.124 970.132 658.714 964.351 659.184 958.508C659.364 956.311 658.72 953.755 657.649 951.799C652.976 943.264 651.058 933.807 648.18 924.677C646.106 918.104 644.825 911.24 642.256 904.878C640.177 899.722 636.581 895.204 633.888 890.271C627.631 878.796 621.039 867.463 615.456 855.66C607.658 839.165 600.144 822.491 593.497 805.501C589.492 795.264 587.388 784.278 584.373 773.644C584.008 772.351 583.562 770.81 582.628 769.98C571.617 760.17 565.805 747.117 560.39 733.94C556.206 723.764 552.814 713.255 549.144 702.869C548.655 701.482 548.178 700.709 546.488 700.727C536.87 700.833 527.227 700.356 517.727 702.559C515.529 703.067 514.13 703.884 513.889 706.193C513.245 712.481 512.589 718.769 511.995 725.064C511.716 727.998 511.525 730.938 511.364 733.884C511.135 738.099 508.783 741.379 505.991 744.016C503.59 746.287 503.788 748.559 505.496 750.137C511.264 755.466 512.874 762.522 514.564 769.634C514.718 770.271 515.028 770.896 515.356 771.472C519.008 777.828 522.678 784.179 526.125 790.151C527.091 789.99 528.632 789.248 529.851 789.607C534.017 790.832 536.969 794.014 539.235 797.399C540.491 799.281 540.361 802.258 540.398 804.752C540.528 812.811 540.528 820.875 540.423 828.934C540.342 835.396 540.268 841.864 539.779 848.301C538.975 858.823 537.638 869.307 536.963 879.842C536.753 883.085 537.44 886.248 536.27 889.584C534.079 895.841 530.675 901.238 526.367 906.456C531.219 915.82 531.263 925.154 525.513 934.679C522.133 940.275 519.831 946.526 517.033 952.505C525.828 950.828 531.838 955.222 535.96 962.191C539.891 968.832 538.498 975.467 533.521 981.539C538.708 984.417 541.184 989.251 543.183 994.364C545.405 1000.06 543.394 1005.11 540.379 1009.91C543.09 1012.03 543.548 1013.69 541.518 1016.78C540.07 1018.98 539.259 1021.1 539.878 1023.66C539.977 1024.08 540.355 1024.42 540.59 1024.78C537.718 1025.77 536.932 1028.13 536.536 1031.44C536.301 1033.42 534.382 1035.8 532.562 1036.87C527.388 1039.9 521.842 1042.31 516.513 1045.1C515.641 1045.56 515.176 1046.76 514.458 1047.55C513.907 1048.17 513.332 1049.05 512.645 1049.19C507.984 1050.12 503.311 1051.45 498.607 1051.62C483.938 1052.12 469.257 1052.06 454.582 1052.4C443.732 1052.65 432.864 1052.85 422.057 1053.71C415.496 1054.23 409.085 1054.35 402.679 1052.93C401.533 1052.67 400.295 1052.18 399.447 1051.42C397.132 1049.32 394.713 1049.08 391.649 1049.53C388.981 1049.91 386.053 1049.27 383.386 1048.54C382.265 1048.24 381.529 1046.53 380.093 1044.86C385.032 1043.55 389.291 1042.42 393.611 1041.28C393.332 1040.03 392.744 1038.49 392.732 1036.94C392.732 1036.19 393.784 1035.42 394.391 1034.69C394.62 1034.41 395.04 1034.25 395.195 1033.94C398.036 1028.3 403.446 1025.27 408.007 1021.41C416.827 1013.97 425.845 1006.77 434.646 999.309C437.066 997.254 438.905 994.524 441.189 992.296C443.831 989.715 447.471 989.839 450.807 989.22C451.772 989.041 452.75 988.942 453.035 988.898C453.035 984.25 452.806 980.023 453.084 975.826C453.567 968.572 454.291 961.337 455.065 954.108C455.684 948.296 455.783 948.302 461.681 947.454C459.812 939.965 460.549 937.025 469.858 931.145C468.503 920.592 467.172 910.281 465.816 899.722C460.103 899.035 455.511 895.272 451.723 891.137C449.358 888.562 448.263 884.31 447.755 880.652C446.523 871.771 445.769 862.815 445.187 853.865C444.537 843.838 444.395 833.774 443.85 823.735C443.342 814.346 442.408 804.975 442.012 795.579C441.721 788.66 442.074 781.715 441.993 774.783C441.962 772.345 443.163 771.193 445.292 770.748C448.529 770.073 451.791 769.516 455.034 768.86C455.901 768.687 456.73 768.346 457.603 768.074C454.229 761.08 459.008 755.423 463.6 751.4C465.117 750.075 466.942 749.097 468.384 747.705C469.839 746.306 470.991 744.585 471.999 743.341C469.319 739.454 466.187 735.84 464.145 731.693C462.158 727.657 461.316 723.065 459.899 718.738C459.664 718.027 459.156 716.968 458.63 716.875C457.349 716.653 455.598 716.399 454.725 717.061C452.967 718.398 451.568 720.261 450.244 722.074C449.897 722.551 450.225 723.684 450.491 724.42C451.791 727.985 453.227 731.507 454.508 735.078C455.56 738.006 455.405 738.464 452.187 737.833C445.601 736.539 439.152 734.552 432.579 733.178C427.448 732.107 424.762 727.998 421.841 724.575C414.649 716.145 407.561 707.536 401.36 698.375C397.07 692.044 393.932 684.827 390.992 677.715C387.502 669.285 384.259 660.682 381.87 651.893C379.784 644.2 378.818 636.172 377.76 628.231C376.998 622.494 376.454 616.663 376.609 610.889C376.937 598.603 378.428 586.453 381.672 574.508C386.833 555.5 394.651 537.65 404.331 520.567C404.498 520.27 404.659 519.973 404.981 519.391C402.035 520.918 400.217 520.716 399.528 518.785C397.293 518.877 394.867 519.144 394.83 516.346C390.132 516.346 385.311 517.373 381.139 516.166C364.595 511.37 350.143 503.918 344.665 485.455C343.062 480.058 344.455 476.567 347.785 472.909C349.493 471.027 350.886 468.855 352.495 466.88C356.413 462.071 360.374 457.299 364.36 452.465C360.931 449.414 357.267 446.146 353.59 442.897C350.192 439.901 349.357 435.018 351.3 430.957C353.51 426.334 355.732 421.698 357.533 416.908C360.324 409.486 365.691 404.411 372.387 400.933C375.612 399.255 376.182 397.163 376.479 394.137C376.943 389.47 377.716 384.828 378.434 380.186C379.146 375.587 382.173 372.641 385.781 370.122C390.72 366.681 395.764 363.369 400.481 359.637C401.533 358.808 401.83 356.431 401.713 354.828C401.298 349.041 400.407 343.285 399.98 337.498C399.416 329.842 398.581 322.154 398.822 314.511C399.286 299.86 402.666 285.947 411.653 273.908C412.179 273.203 412.829 272.237 413.541 272.119C414.5 271.959 415.725 272.293 416.542 272.844C416.938 273.11 416.907 274.434 416.678 275.158C414.394 282.499 411.709 289.728 409.772 297.162C407.748 304.929 407.376 312.876 407.852 320.985C408.694 335.294 409.041 349.641 409.121 363.982C409.158 370.617 408.088 377.252 407.518 383.931C402.406 383.027 403.65 379.016 403.149 376.274C402.486 372.604 402.623 368.785 402.394 364.552C397.937 368.327 393.623 371.694 389.706 375.476C388.604 376.54 388.56 378.781 388.195 380.52C386.419 388.944 383.714 397.033 379.524 404.578C379.085 405.371 378.577 406.212 377.884 406.763C376.479 407.877 375.086 408.36 374.968 405.457C369.299 409.245 366.068 414.221 364.552 420.683C363.617 424.657 361.6 428.383 360.207 431.88C363.333 435.265 366.594 438.781 369.837 442.315C371.001 443.584 372.27 444.791 373.217 446.202C374.851 448.634 373.099 452.527 370.166 454.533C368.123 455.931 366.161 457.739 364.818 459.787C361.667 464.584 359.074 469.752 355.905 474.537C354.482 476.691 354.463 478.424 355.856 480.256C359.223 484.7 362.454 489.292 366.198 493.408C370.877 498.558 376.058 503.255 380.904 508.256C381.467 508.838 381.319 510.113 381.498 511.066C381.319 511.345 381.139 511.623 380.953 511.902C381.356 511.803 381.764 511.698 382.167 511.599C387.007 512.044 391.841 512.496 396.65 512.942C396.241 500.495 401.905 489.849 409.023 479.748C409.728 478.752 410.359 477.588 411.319 476.895C414.89 474.32 415.979 470.73 415.923 465.958C411.263 466.701 406.614 467.363 402.003 468.193C398.246 468.873 394.546 469.919 390.77 470.439C389.774 470.576 388.288 469.616 387.551 468.725C386.016 466.887 387.96 466.039 389.124 465.692C393.846 464.287 398.593 462.833 403.433 461.985C407.63 461.254 411.969 461.316 416.425 461.019C416.92 456.841 417.428 452.54 417.997 447.749C413.442 447.093 408.973 446.443 404.511 445.799C400.71 445.255 396.91 444.716 393.103 444.19C391.401 443.955 390.294 442.878 390.894 441.343C391.284 440.334 392.887 438.997 393.796 439.103C401.997 440.068 410.161 441.318 418.69 442.538C419.365 438.217 420.368 433.105 420.838 427.949C420.956 426.699 419.34 425.294 418.35 423.666C415.707 425.684 413.411 427.436 411.121 429.181C410.842 428.933 410.557 428.686 410.279 428.444C412.117 426.253 413.955 424.069 416.128 421.481C413.107 418.962 409.951 416.326 406.788 413.689C403.805 411.201 400.729 408.812 397.857 406.2C395.913 404.43 396.433 403.408 398.828 402.393C401.347 401.323 403.415 402.028 405.476 403.285C411.529 406.974 416.964 411.337 420.863 417.39C421.247 417.984 421.803 418.461 422.577 419.315C423.728 412.166 424.663 405.284 426.019 398.482C426.675 395.195 425.87 391.172 429.67 389.049C429.843 388.95 430.054 388.925 430.58 388.764C430.871 389.39 431.453 390.058 431.465 390.739C431.527 394.96 431.731 399.212 431.366 403.408C430.809 409.901 429.88 416.363 429.026 422.825C427.869 431.607 426.557 440.365 425.461 449.154C424.842 454.118 424.57 459.119 424.081 464.095C423.295 472.086 422.608 480.089 421.587 488.048C420.801 494.126 419.878 500.229 418.424 506.171C417.149 511.376 413.788 515.51 409.722 519.014C409.066 519.577 408.385 520.289 408.1 521.068C402.406 536.74 396.514 552.35 391.215 568.157C387.743 578.512 384.952 589.127 384.5 600.15C384.185 607.732 383.411 615.376 383.999 622.902C385.199 638.332 386.27 653.929 391.934 668.536C395.034 676.527 399.051 684.202 403.111 691.771C410.421 705.413 419.674 717.754 428.736 728.92C431.434 728.92 433.545 728.493 435.408 729C441.164 730.56 446.821 732.479 452.521 734.255C452.886 734.404 453.252 734.546 453.617 734.695C453.431 734.416 453.245 734.138 453.06 733.859V733.847ZM469.189 379.617C469.313 380.192 469.437 380.768 469.561 381.343C469.734 381.3 469.907 381.257 470.08 381.213C469.926 380.557 469.765 379.907 469.61 379.251C469.127 377.865 468.645 376.479 468.162 375.092L466.286 368.364C466.064 367.102 465.835 365.839 465.612 364.583C465.401 363.629 465.185 362.676 464.844 361.154C484.78 370.537 502.532 367.553 519.039 353.33C518.704 354.512 518.426 355.156 518.345 355.831C517.696 360.974 514.941 365.61 515.597 371.149C516.959 382.717 517.708 394.36 518.766 405.965C519.769 417.013 520.443 428.11 521.997 439.084C523.847 452.156 526.169 465.178 528.849 478.108C531.535 491.069 534.574 503.986 538.108 516.742C540.862 526.701 544.087 536.598 548.023 546.142C555.667 564.691 567.724 580.443 580.945 595.329C586.224 601.27 591.559 607.163 596.963 612.993C604.637 621.274 612.028 629.853 620.21 637.602C629.42 646.329 637.949 655.632 645.24 665.918C650.909 673.915 655.378 682.76 660.509 691.146C662.762 694.829 664.805 698.895 667.893 701.761C672.071 705.642 677.164 708.538 681.868 711.856C683.273 712.846 686.386 711.72 686.43 710.129C686.646 701.94 689.772 694.606 693.318 687.488C700.517 673.048 708.198 658.85 715.279 644.361C719.098 636.556 722.137 628.361 725.386 620.29C725.677 619.572 725.206 618.192 724.618 617.542C714.975 606.884 705.308 596.251 695.553 585.698C686.826 576.253 681.175 565.05 676.663 553.185C675.011 548.84 673.624 544.396 672.238 540.348C668.79 546.649 665.374 553.092 661.747 559.418C660.243 562.048 658.083 563.843 654.598 563.459C646.112 562.525 637.614 561.336 629.104 561.083C621.844 560.866 615.494 556.1 608.036 557.468C606.816 557.691 605.516 557.499 604.254 557.499C604.235 557.784 604.217 558.069 604.198 558.347C606.897 559.282 609.595 560.21 612.319 561.151C610.177 565.211 610.171 565.341 605.943 565.174C600.311 564.951 595.057 563.131 590.322 560.21C577.578 552.343 573.418 539.81 572.007 525.816C571.536 521.161 572.793 517.683 577.045 516.402C573.121 509.302 569.135 502.346 565.446 495.228C564.691 493.773 564.345 491.341 565.05 490.029C568.801 483.078 573.208 476.48 576.897 469.499C581.149 461.459 585.32 453.425 591.138 446.35C593.038 444.042 595.261 441.591 596.022 438.843C597.966 431.836 599.172 424.619 600.707 417.353C596.35 413.887 592.215 410.05 595.465 403.291C595.65 402.901 595.131 402.177 594.964 401.601C593.775 397.467 591.541 393.648 590.21 389.736C584.906 374.127 580.66 358.152 575.999 342.319C575.269 339.825 577.281 339.188 578.587 339.547C580.413 340.048 580.579 339.256 580.666 338.073C581.316 329.309 581.842 320.533 582.578 311.775C582.981 306.953 583.705 302.157 584.28 297.422C587.827 297.1 588.861 298.164 589.35 302.317C590.588 312.753 589.016 323.052 587.778 333.363C587.382 336.668 585.952 340.11 586.509 343.217C588.205 352.761 590.631 362.175 592.667 371.18C595.979 360.262 599.506 348.626 603.078 336.854C605.114 336.508 605.033 338.185 604.829 339.615C604.068 344.838 603.517 350.13 602.273 355.243C600.255 363.537 597.928 371.762 595.323 379.889C594.766 381.628 594.536 382.971 594.877 384.71C596.034 390.615 596.981 396.563 598.064 402.48C598.157 403 598.528 403.557 598.931 403.91C602.1 406.633 605.417 409.196 608.481 412.03C611.799 415.094 615.092 418.232 617.994 421.673C618.904 422.75 618.514 424.923 618.718 426.594C617.573 426.383 616.298 426.421 615.302 425.913C612.665 424.57 610.146 422.998 607.484 421.457C606.989 426.383 606.494 430.951 606.08 435.525C605.962 436.85 605.813 438.205 607.905 438.347C615.933 438.886 623.948 439.653 631.982 440.124C641.52 440.675 651.077 440.978 660.621 441.467C661.667 441.523 662.694 442.086 663.727 442.414C663.684 442.748 663.647 443.089 663.603 443.423C660.961 443.782 658.324 444.364 655.669 444.463C642.653 444.964 629.63 445.335 616.614 445.775C615.716 445.806 614.825 446.097 613.922 446.134C611.365 446.233 608.624 446.876 606.284 446.183C602.379 445.026 600.119 445.954 598.213 449.495C595.36 454.78 592.11 459.856 588.91 465.216C589.901 465.482 590.464 465.636 590.754 465.711C589.541 466.769 587.747 467.667 586.992 469.109C582.758 477.204 578.766 485.424 574.724 493.619C574.334 494.405 573.74 495.463 573.975 496.131C576.395 502.89 578.741 509.686 581.588 516.266C583.136 519.837 582.715 521.7 578.568 522.975C581.669 537.056 588.613 548.506 601.221 556.156C600.837 555.03 600.039 554.213 599.438 553.266C598.498 551.792 596.659 549.886 597.037 548.784C597.705 546.804 596.647 546.377 595.731 545.399C593.472 542.991 591.169 540.602 589.182 537.978C588.662 537.291 589.226 535.781 589.294 534.654C590.328 534.896 591.442 534.97 592.364 535.434C593.243 535.88 594.084 536.61 594.642 537.421C597.823 542.044 603.127 544.118 607.026 547.868C607.237 548.066 607.682 548.048 608.029 548.079C614.998 548.648 622.005 548.914 628.918 549.843C637.862 551.044 646.731 552.764 655.607 554.262C663.857 538.56 672.126 522.839 680.315 507.254C681.194 507.452 682.054 507.384 682.277 507.73C684.697 511.45 687.637 509.253 690.336 508.374C691.041 508.145 691.803 506.827 691.827 505.985C692.025 499.591 691.697 493.167 692.211 486.804C692.849 478.906 694.068 471.058 695.182 463.204C696.172 456.216 697.639 449.352 701.347 443.163C703.327 439.852 705.165 436.447 706.805 432.957C707.226 432.053 707.047 430.394 706.459 429.565C702.207 423.586 697.725 417.762 693.418 411.82C690.7 408.069 688.089 404.195 689.023 399.169C689.172 398.37 689.729 397.64 690.094 396.885C690.694 397.3 691.363 397.634 691.877 398.135C692.731 398.971 693.486 399.911 694.55 401.106C694.173 398.921 693.684 397.256 693.628 395.579C693.411 389.049 693.43 382.507 693.164 375.977C693.028 372.623 695.281 369.2 692.366 365.864C689.76 362.874 687.588 359.482 685.403 356.146C677.183 343.613 668.852 331.141 660.923 318.416C656.349 311.082 652.364 303.376 648.31 295.726C642.343 284.473 636.383 273.215 630.782 261.783C628.529 257.191 627.235 252.128 625.576 247.486C616.323 247.61 606.649 248.618 597.148 245.833C595.638 245.388 594.604 245.313 593.119 246.539C585.376 252.945 577.386 259.054 569.544 265.348C567.421 267.05 565.515 269.025 563.194 271.166C564.221 271.166 564.635 271.135 565.044 271.166C572.137 271.785 579.236 272.373 586.317 273.122C586.905 273.184 587.957 274.527 587.808 274.911C586.88 277.393 586.045 280.03 583.16 281.119C582.492 281.373 581.817 281.868 581.384 282.431C574.025 291.987 567.891 302.305 562.754 313.192C552.356 335.214 546.68 358.734 541.803 382.408C538.702 397.436 536.721 412.699 534.171 427.844C533.887 429.534 533.144 431.149 532.618 432.796L531.727 432.678C531.541 431.323 531.107 429.949 531.207 428.612C531.739 421.488 532.327 414.364 533.039 407.252C534.004 397.609 534.679 387.916 536.239 378.366C537.997 367.646 540.485 357.038 542.88 346.429C547.076 327.811 554.504 310.525 564.877 294.513C567.842 289.933 570.918 285.427 574.043 280.741C568.367 280.438 562.989 280.339 557.654 279.788C555.036 279.516 551.427 280.289 550.926 275.982C550.518 276.037 550.109 276.099 549.694 276.155L549.732 276.235C550.06 275.573 550.221 274.719 550.734 274.267C558.96 267.088 566.988 259.648 575.554 252.889C586.069 244.589 597.006 236.815 608.401 230.979C607.522 229.741 606.612 228.596 605.857 227.364C604.347 224.888 603.362 221.917 601.375 219.943C594.016 212.658 584.93 208.047 575.145 205.076C564.481 201.839 553.631 199.227 543.078 196.399C541.166 199.407 541.339 201.524 543.239 204.866C551.285 219.021 553.13 233.981 548.723 249.627C545.133 262.377 541.314 275.059 537.551 287.76C536.554 291.127 535.267 294.414 534.326 297.799C532.748 303.475 531.337 309.2 529.691 315.538C527.172 306.421 522.709 299.359 515.647 294.203C502.544 284.628 488.221 283.18 473.206 288.794C467.567 290.904 462.016 293.479 458.321 298.678C458.036 298.994 457.745 299.303 457.461 299.619C455.04 301.903 452.441 304.069 451.729 308.507C454.18 305.189 456.093 302.602 458.005 300.015C458.277 299.724 458.55 299.427 458.822 299.136C466.095 295.125 472.804 289.765 481.444 288.899C486.52 288.391 491.694 287.556 496.639 289.796C496.299 289.97 495.772 290.056 495.642 290.329C493.414 295.057 490.963 299.699 489.162 304.583C488.116 307.417 489.967 309.596 492.678 310.778C495.172 311.861 498.886 311.973 500.607 309.856C502.655 307.337 504.939 305.01 506.876 302.416C507.625 301.414 507.706 299.91 508.089 298.66C508.238 298.845 508.387 299.025 508.529 299.21C508.578 299.136 508.634 299.068 508.684 298.994C508.486 298.895 508.281 298.802 508.083 298.703C505.106 301.946 502.166 305.226 499.127 308.408C497.524 310.091 494.07 310.067 491.545 308.643C489.119 307.281 490.32 305.202 490.685 303.537C491.075 301.779 492.158 300.176 492.901 298.591C496.113 300.139 499.047 301.556 501.98 302.967C502.16 302.639 502.346 302.305 502.525 301.977C499.542 300.337 496.553 298.697 493.638 297.094C494.733 294.649 495.841 292.192 496.943 289.728C497.32 289.728 497.71 289.654 498.063 289.741C511.76 293.033 521.205 301.259 526.138 314.436C527.079 316.955 527.815 320.007 527.295 322.532C525.847 329.52 523.761 336.378 521.768 343.235C521.037 345.754 520.437 348.62 518.828 350.52C506.82 364.657 486.551 368.754 469.858 360.72C468.249 359.947 466.584 359.284 464.943 358.566C464.541 358.511 464.139 358.449 463.73 358.393L461.898 351.176L461.025 351.405C461.737 353.962 462.455 356.518 463.167 359.074C463.371 359.699 463.582 360.324 463.786 360.949C464.132 362.218 464.486 363.481 464.832 364.75C465.104 365.957 465.376 367.157 465.649 368.364C466.311 370.766 466.98 373.167 467.642 375.562C468.156 376.906 468.663 378.249 469.177 379.592L469.189 379.617ZM483.548 438.991C483.709 438.886 483.97 438.812 484.019 438.669C488.736 425.121 493.433 411.56 498.125 398.005C498.713 396.315 499.27 394.613 499.852 392.924C500.427 391.246 501.009 389.575 501.585 387.904C493.842 404.287 488.221 421.382 483.158 438.669C483.041 439.356 482.93 440.043 482.812 440.73C482.973 440.755 483.134 440.774 483.295 440.798C483.382 440.198 483.462 439.598 483.548 438.991ZM466.609 352.111C466.466 352.247 466.323 352.377 466.651 352.074C466.367 352.427 466.491 352.272 466.615 352.123C466.683 351.22 466.887 350.297 466.781 349.412C466.441 346.435 468.384 346.646 470.316 346.751C474.388 346.968 478.461 347.314 482.534 347.339C489.36 347.382 495.562 345.185 501.349 341.663C502.024 341.249 502.946 341.236 503.658 341.063C504.332 343.235 504.89 345.049 505.453 346.862C507.687 341.434 506.709 335.783 509.42 330.628C507.984 330.962 506.957 331.525 506.313 332.373C502.445 337.535 498.038 341.818 491.564 343.731C481.704 346.64 471.882 345.148 461.973 343.922C461.911 344.758 461.812 345.464 461.812 346.169C461.818 348.379 464.603 351.814 466.602 352.111H466.609ZM405.531 1030.68C402.752 1032.39 402.016 1034.53 402.839 1037.9C403.551 1040.81 402.988 1044.02 402.988 1047.5C403.718 1047.62 404.894 1048.01 406.045 1047.96C414.11 1047.62 422.169 1047.17 430.227 1046.8C440.155 1046.35 450.089 1045.77 460.023 1045.57C470.334 1045.36 480.652 1045.61 490.964 1045.48C494.801 1045.43 498.638 1044.89 502.859 1044.55C500.743 1037.84 495.519 1033.57 492.449 1027.31C496.107 1023.37 500.223 1018.83 504.469 1014.42C505.49 1013.36 506.883 1012.19 508.213 1012.03C509.779 1011.85 511.995 1012.23 512.973 1013.26C514.019 1014.37 512.973 1015.91 511.419 1016.92C506.777 1019.94 502.278 1023.18 497.722 1026.33C499.047 1028.31 500.241 1030.09 501.436 1031.88C501.566 1032.03 501.696 1032.17 501.838 1032.32C503.101 1035.32 504.363 1038.34 505.62 1041.33C506.728 1039.88 507.39 1038.75 508.3 1037.86C510.8 1035.43 513.35 1033.04 515.981 1030.74C517.9 1029.06 519.75 1026.91 522.022 1026.13C524.497 1025.29 524.516 1023.79 524.522 1022.03C524.522 1017.78 525.89 1016.71 529.003 1017.9C531.182 1015.82 533.138 1013.95 535.112 1012.07C533.206 1010.36 530.996 1008.4 528.818 1006.41C527.592 1005.29 526.639 1005.37 525.129 1006.28C521.88 1008.25 518.383 1009.82 514.941 1011.45C514.39 1011.71 513.344 1011.75 512.948 1011.41C507.415 1006.58 501.956 1001.65 496.46 996.771C495.847 996.227 495.116 995.471 494.405 995.434C484.922 994.952 475.435 994.469 465.94 994.234C461.657 994.128 457.349 994.487 453.066 994.778C447.904 995.131 442.674 995.502 440.328 1001.56C441.485 1001.56 442.594 1001.54 443.708 1001.56C445.664 1001.59 447.656 1001.43 449.55 1001.78C450.72 1001.99 452.936 1002.47 451.624 1004.51C449.631 1007.63 447.273 1010.52 445.076 1013.5C444.834 1013.35 444.586 1013.2 444.345 1013.06C445.564 1010.08 446.784 1007.1 447.978 1004.18C444.71 1004.03 441.542 1003.87 438.373 1003.76C437.921 1003.74 437.32 1003.8 437.017 1004.08C433.347 1007.44 429.72 1010.85 425.895 1014.42C431.038 1014.88 435.791 1015.3 440.551 1015.72C439.821 1016.49 439.035 1016.95 438.23 1016.99C433.316 1017.25 428.389 1017.41 423.469 1017.6C422.93 1017.62 422.2 1017.38 421.872 1017.64C416.778 1021.7 411.727 1025.81 406.67 1029.92C406.293 1030.16 405.915 1030.42 405.537 1030.66L405.531 1030.68ZM446.536 776.12C446.332 776.021 446.127 775.922 445.923 775.823C445.954 776.077 445.985 776.331 446.022 776.578C446.579 783.102 447.124 789.625 447.687 796.149C448.486 805.421 449.303 814.686 450.089 823.958C450.411 827.746 450.683 831.54 450.992 835.482C457.299 829.726 464.04 830.605 469.041 836.392C471.851 839.635 473.126 843.306 473.058 847.663C472.971 853.252 471.182 858.104 466.949 861.608C462.567 865.235 457.46 866.045 452.082 863.087C452.725 870.366 453.338 877.378 453.994 884.774C456.259 884.378 458.308 883.97 460.376 883.667C461.979 883.425 464.646 883.815 465.018 883.042C466.132 880.727 467.846 881.736 469.338 881.507C469.944 881.414 470.588 881.525 471.182 881.395C478.659 879.811 486.092 880.51 493.501 881.816C499.604 882.887 505.682 884.063 511.822 885.208C512.707 880.782 509.458 876.147 513.573 871.505C515.337 876.741 517.275 881.222 515.04 887.083C518.81 887.083 522.301 887.362 525.717 886.972C527.63 886.755 529.331 885.505 529.362 882.936C529.406 879.476 529.814 876.029 529.926 872.569C530.186 864.442 530.365 856.316 530.557 848.189C530.606 846.029 530.482 843.857 530.612 841.696C531.176 832.505 531.77 823.314 532.438 814.135C532.748 809.877 533.287 805.643 533.615 801.385C533.67 800.649 533.423 799.584 532.915 799.157C529.412 796.205 525.5 793.667 522.3 790.43C518.939 787.032 516.222 782.996 513.251 779.27C513.251 782.019 513.289 784.965 513.245 787.917C513.115 796.161 513.01 804.399 512.768 812.637C512.651 816.71 512.094 820.776 512.038 824.849C511.921 833.873 512.001 842.897 512.001 851.927C511.977 850.857 511.5 849.718 511.407 848.548C510.714 840.013 510.082 831.478 509.463 822.937C509.049 817.267 508.48 811.591 508.368 805.91C508.269 800.803 509.073 795.666 508.795 790.578C508.461 784.414 507.402 778.293 506.604 771.744C504.196 771.998 501.603 772.345 498.997 772.543C490.369 773.205 481.729 773.824 473.101 774.449C470.155 774.666 467.202 774.87 464.256 775.049C458.358 775.414 452.453 775.755 446.549 776.108L446.536 776.12ZM544.44 242.627C540.962 243.772 538.108 244.781 535.205 245.61C534.604 245.784 533.819 245.295 533.12 245.109C533.578 244.564 533.936 243.716 534.505 243.531C537.829 242.454 541.209 241.538 544.681 240.535C544.91 238.654 545.566 236.599 545.331 234.643C544.563 228.237 543.524 221.862 542.465 215.493C542.137 213.525 542.038 210.888 540.769 209.811C536.208 205.943 533.955 200.688 531.101 195.749C530.458 194.635 529.115 193.743 527.889 193.186C523.309 191.101 522.368 186.174 525.939 182.64C526.602 181.984 527.444 180.95 527.351 180.195C526.936 176.766 525.903 173.387 525.717 169.958C525.599 167.779 526.583 165.545 527.072 163.335C527.419 163.347 527.759 163.354 528.106 163.366C529.108 166.436 531.628 167.878 534.295 167.705C537.464 167.501 540.794 166.04 541.382 162.438C541.952 158.928 541.97 155.202 541.45 151.687C541.197 149.991 539.16 148.555 537.718 146.723C536.264 149.669 535.236 151.755 534.215 153.828C537.21 155.407 537.885 157.133 536.981 158.978C535.366 158.774 533.992 158.297 532.711 158.495C529.975 158.916 528.855 158.285 529.412 155.493C529.969 152.714 531.324 150.09 532.172 147.825C528.898 142.78 522.938 142.991 517.757 141.586C512.304 140.106 507.26 136.56 501.95 137.575C499.053 141.734 496.645 145.466 493.965 148.988C489.119 155.363 482.36 156.626 474.939 155.462C469.511 154.614 465.426 151.656 462.697 146.296C460.865 147.67 459.125 148.728 457.732 150.127C457.002 150.864 456.346 153.005 456.557 153.141C457.9 154.014 459.441 154.682 461.001 155.072C462.152 155.363 463.427 155.128 465.049 155.128C464.244 156.205 464.008 156.607 463.693 156.923C462.529 158.093 461.428 159.374 460.072 160.271C459.788 160.463 458.568 159.157 457.726 158.613C456.34 157.715 454.91 156.886 453.499 156.025C453.27 156.143 453.041 156.254 452.812 156.372C454.18 161.299 455.548 166.226 456.718 170.422H467.178C467.487 171.357 467.753 172.167 468.218 173.566C465.011 173.808 461.947 174.043 458.686 174.29C459.979 177.106 461.453 179.731 462.418 182.535C463.798 186.545 465.89 189.399 470.52 189.566C471.696 189.609 472.878 190.166 474.042 190.104C480.268 189.77 486.507 189.529 492.702 188.854C500.718 187.981 508.541 186.267 515.393 181.606C515.981 181.21 516.767 181.105 518.023 180.665C515.294 185.871 510.671 187.467 506.375 189.436C504.203 190.432 502.005 191.082 500.439 193.236C498.582 195.792 496.485 198.342 493.972 200.205C492.325 201.431 491.929 202.409 492.337 204.123C494.281 212.324 496.41 220.482 498.087 228.732C499.152 233.993 499.604 239.384 500.167 244.732C500.248 245.511 499.412 246.39 498.997 247.22C498.378 246.539 497.419 245.957 497.19 245.165C495.667 239.929 494.299 234.643 492.857 229.283C489.162 234.278 485.442 239.297 481.896 244.088C483.239 244.862 484.44 245.555 485.641 246.248C481.35 246.995 478.156 248.895 476.059 251.948C482.744 255.91 489.769 259.314 497.363 260.552C509.092 262.464 520.908 261.907 532.451 258.775C535.632 257.915 539.463 257.451 540.955 253.904C542.409 250.438 543.22 246.7 544.458 242.615L544.44 242.627ZM701.681 946.501C699.477 946.786 697.905 947.12 696.321 947.157C695.275 947.182 694.191 946.526 693.164 946.625C687.928 947.12 682.655 947.498 677.487 948.426C672.548 949.311 668.047 951.942 666.902 956.974C665.015 965.292 663.269 973.623 663.474 982.399C663.709 992.587 662.712 1002.84 661.635 1013.01C661.128 1017.8 658.2 1022.31 659.933 1027.39C660.521 1029.11 660.707 1031.79 661.883 1032.35C670.09 1036.27 678.978 1037.09 687.86 1036.1C695.863 1035.21 703.754 1033.34 711.695 1031.91C713.546 1031.57 715.396 1031.22 717.946 1030.75C717.488 1029.63 717.154 1028.37 716.504 1027.3C715.26 1025.25 713.496 1023.46 712.562 1021.29C709.059 1013.21 704.905 1005.5 705.202 996.028C705.487 986.992 703.977 977.894 703.228 968.826C703.148 967.842 702.745 966.883 702.64 965.899C702.194 961.665 701.699 957.438 701.433 953.192C701.297 951.013 701.588 948.81 701.693 946.507L701.681 946.501ZM619.486 650.327L618.186 650.94C618.471 656.127 618.849 661.313 619.022 666.506C619.511 681.404 620.055 696.302 620.253 711.2C620.303 714.907 620.823 717.55 624.592 719.104C626.499 719.89 627.984 721.654 629.735 722.873C636.284 727.41 642.411 732.875 649.535 736.18C660.682 741.348 668.041 741.119 675.289 730.183C678.266 725.689 680.544 720.738 682.995 716.275C681.355 715.105 679.968 714.072 678.538 713.1C673.624 709.751 668.159 706.985 663.888 702.956C657.612 697.038 651.968 690.397 646.441 683.744C637.293 672.745 628.454 661.487 619.486 650.34V650.327ZM518.791 994.06C518.853 992.785 519.441 991.213 518.896 990.365C514.075 982.827 512.713 974.087 510.225 965.769C508.993 961.653 508.69 957.258 507.866 952.406C492.548 951.96 476.356 951.496 460.289 951.032C460.635 963.794 461.873 976.383 457.231 988.576C465.327 988.576 473.348 988.428 481.357 988.632C486.321 988.756 491.31 989.177 496.218 989.926C498.471 990.272 500.762 991.436 502.662 992.767C504.358 993.949 505.533 995.874 507.025 997.557C509.748 993.584 512.156 992.012 518.797 994.06H518.791ZM515.102 698.419C520.586 697.156 526.181 695.615 531.869 694.643C535.669 693.993 539.612 694.136 543.493 693.969C545.486 693.882 546.482 693.275 545.833 690.979C540.503 672.244 535.273 653.484 529.944 634.749C527.078 624.666 524.169 614.596 521.093 604.582C519.249 598.572 517.04 592.673 515.146 587.152C513.988 596.176 512.806 605.392 511.624 614.615C511.692 614.615 513.103 614.565 513.109 614.621C513.264 616.626 514.316 615.97 515.473 615.586C519.917 614.101 521.824 615.723 521.966 620.6C522.139 626.418 518.902 630.818 516.241 635.485C515.9 636.079 515.189 636.649 515.201 637.218C515.269 641.291 515.43 645.363 515.69 649.424C515.74 650.179 516.185 651.293 516.767 651.571C519.923 653.063 521.18 655.217 521.576 658.887C522.257 665.293 522.071 671.458 518.073 676.558C515.95 679.269 515.442 681.608 515.603 684.864C515.845 689.636 515.288 694.451 515.108 698.419H515.102ZM536.746 137.581C537.928 134.79 538.071 133.007 535.997 131.336C535.248 130.736 534.76 128.984 535.063 128.056C536.152 124.763 535.731 123.779 532.581 122.652C528.162 121.08 523.78 119.384 519.484 117.503C518.661 117.144 518.321 115.689 517.751 114.736C518.89 114.544 520.109 114 521.155 114.229C523.866 114.817 526.503 115.745 529.48 116.624C528.397 114.068 527.716 112.106 524.528 111.914C521.384 111.722 518.277 110.552 515.226 109.58C514.236 109.265 513.468 108.244 512.595 107.544C513.598 106.814 514.514 105.706 515.628 105.446C517.175 105.081 518.878 105.353 520.413 105.353C520.883 104.227 521.273 103.298 521.675 102.333C515.257 100.754 508.195 102.815 502.173 99.1761C502.173 98.7738 502.172 98.3714 502.166 97.9753C507.817 97.6535 513.468 97.3378 518.302 97.0655C511.983 93.7975 504.24 93.7171 496.051 93.3271C497.14 92.0645 497.703 91.4084 498.452 90.5419C494.058 90.9195 489.948 90.9442 485.975 91.6931C480.819 92.6649 475.75 94.1627 470.693 95.5862C470.043 95.7657 469.437 96.7684 469.165 97.5173C466.163 105.638 463.222 113.789 460.233 122.033C463.111 121.631 465.989 120.981 468.886 120.876C478.127 120.542 487.374 120.3 496.614 120.282C499.183 120.282 501.807 120.987 504.314 121.693C505.8 122.114 507.043 123.327 508.51 123.896C516.166 126.861 524.083 129.219 530.588 134.635C532.24 136.009 534.567 136.572 536.746 137.587V137.581ZM717.123 1035.99C708.347 1038.67 699.811 1041.7 691.066 1043.84C682.549 1045.93 673.81 1046.4 665.466 1042.68C661.883 1041.09 658.479 1039.09 655.112 1037.33C654.846 1042.05 654.58 1046.79 654.338 1051.06C662.397 1052.14 670.109 1053.17 677.821 1054.18C684.437 1055.04 691.084 1055.69 697.676 1056.73C704.657 1057.84 711.596 1058.48 718.702 1056.99C718.163 1049.77 717.625 1042.62 717.129 1035.99H717.123ZM510.949 950.413C513.722 944.502 516.278 938.43 519.354 932.637C523.124 925.538 521.545 918.123 521.836 910.262C520.208 911.723 519.051 912.707 517.956 913.759C510.429 920.958 502.835 928.075 493.817 933.448C488.339 936.709 482.899 940.027 477.502 943.413C476.214 944.217 475.156 945.387 473.695 946.643C486.532 947.943 498.7 949.175 510.949 950.413ZM502.191 892.326C502.166 892.592 502.085 892.988 502.092 893.384C502.197 903.169 497.227 909.854 488.859 914.069C484.539 916.247 479.866 916.186 475.391 912.911C475.929 917.981 476.413 922.499 476.951 927.518C493.043 917.479 507.656 905.763 521.657 894.021C515.189 893.458 508.746 892.895 502.197 892.326H502.191ZM470.737 890.308C471.331 892.907 471.944 895.222 472.371 897.574C472.99 900.978 474.221 903.906 477.458 905.664C482.119 908.195 486.482 906.92 490.481 904.333C494.609 901.659 496.057 897.289 496.429 892.604C496.472 892.047 495.333 890.995 494.603 890.852C486.674 889.305 478.696 888.94 470.743 890.314L470.737 890.308ZM502.445 634.012C502.667 634.235 502.89 634.458 503.113 634.681C498.397 639.217 493.687 643.748 488.927 648.328C489.261 649.578 489.732 651.336 490.283 653.379C499.158 649.789 504.394 643.234 509.123 635.33C513.22 634.823 518.154 628.702 517.491 623.874C517.349 622.834 516.457 621.243 515.684 621.095C514.365 620.841 512.255 621.039 511.549 621.912C509.222 624.784 507.372 628.039 505.397 631.06C505.787 632.223 506.183 633.399 506.703 634.947C504.92 634.557 503.683 634.284 502.445 634.012ZM454.954 844.061C455.876 846.339 457.274 848.096 457.089 849.675C456.699 853.054 453.27 851.191 451.352 852.101C451.55 853.692 451.729 855.158 452.051 857.752C454.106 853.562 457.163 853.549 460.313 853.419C461.372 853.376 462.536 852.485 463.402 851.711C464.807 850.461 466.002 848.981 467.425 847.453C468.026 850.993 465.705 852.943 463.545 854.614C461.329 856.322 458.655 857.442 456.619 858.581C461.49 860.494 466.181 859.045 469.492 854.261C472.42 850.027 471.671 845.416 469.381 841.059C466.905 836.336 462.771 835.123 457.708 835.854C456.73 838.769 455.733 841.727 454.947 844.061H454.954ZM413.231 477.638C404.145 489.305 400.357 507.179 406.225 516.346C407.135 514.341 407.636 511.475 409.332 509.952C411.331 508.157 411.832 506.171 412.265 503.918C412.668 501.832 413.045 499.727 413.262 497.617C413.918 491.273 414.488 484.922 415.094 478.572C414.859 478.51 414.63 478.455 414.395 478.393C413.77 479.513 413.15 480.633 412.525 481.754C412.377 481.692 412.228 481.636 412.08 481.574C412.414 480.435 412.742 479.296 413.231 477.631V477.638ZM515.597 957.945C518.5 965.8 521.323 973.443 524.145 981.075C529.208 979.757 533.428 971.03 530.588 963.974C527.945 957.394 523.216 955.352 515.597 957.945ZM501.894 134.084C503.72 134.425 505.242 134.555 506.666 135C513.901 137.265 521.205 139.37 528.298 142.031C531.659 143.294 534.518 143.752 537.638 141.214C527.716 134.072 515.671 131.534 504.846 126.372C503.806 129.083 502.847 131.596 501.894 134.078V134.084ZM489.231 750.131C486.687 754.098 487.337 756.351 492.22 757.985C493.786 758.511 495.711 758.536 497.338 758.183C499.771 757.657 501.368 755.107 500.699 753.56C499.529 750.855 496.385 749.19 493.451 749.667C492.251 749.859 491.032 749.939 489.231 750.131ZM455.201 127.709C454.997 127.369 454.799 127.028 454.595 126.688C452.949 127.251 450.764 127.325 449.749 128.452C445.175 133.527 440.873 138.85 436.627 144.21C435.928 145.089 436.039 146.605 435.773 147.831C436.051 147.93 436.33 148.023 436.608 148.122C442.804 141.32 449 134.511 455.195 127.709H455.201ZM486.291 122.38C483.864 122.925 481.537 122.745 480.33 123.828C473.844 129.653 468.341 136.325 464.318 144.105C464.572 144.346 464.826 144.594 465.073 144.835C471.925 137.581 478.782 130.321 486.284 122.38H486.291ZM470.483 664.421C471.708 666.618 472.748 668.474 473.862 670.474C476.945 666.797 482.534 665.163 482.224 658.961C480.745 656.808 478.925 657.03 476.994 658.714C474.846 660.595 472.699 662.477 470.483 664.421ZM498.087 686.727C501.182 683.806 503.757 681.373 506.263 679.009C504.654 677.282 503.398 675.939 502.049 674.491C499.567 676.174 497.14 677.814 494.689 679.479C495.717 681.676 496.726 683.818 498.087 686.733V686.727ZM516.321 657.724C514.625 663.529 510.751 667.484 506.641 671.055C507.316 672.751 507.929 674.311 508.387 675.456C510.689 673.389 513.22 671.173 515.653 668.858C516.086 668.45 516.278 667.614 516.29 666.964C516.352 663.882 516.321 660.8 516.321 657.717V657.724ZM460.277 674.986C456.198 678.421 452.286 681.893 454.403 688.212C455.647 686.715 456.526 684.914 457.962 684.066C461.681 681.868 462.183 679.009 460.586 675.37C460.524 675.233 460.394 675.128 460.277 674.986ZM462.969 708.798C461.718 705.728 460.592 702.949 459.459 700.17C459.23 700.115 458.995 700.059 458.766 700.003C457.763 703.587 456.755 707.177 455.554 711.46C458.76 710.309 460.982 709.51 462.963 708.792L462.969 708.798ZM514.204 1004.47C516.055 1002.71 520.257 1002.81 518.339 998.232C515.851 998.616 513.332 999.006 510.447 999.451C511.889 1001.38 512.979 1002.84 514.198 1004.47H514.204ZM470.167 673.383C469.425 672.677 468.737 672.089 468.124 671.427C467.468 670.715 466.893 669.929 466.286 669.18C462.554 672.027 462.467 673.556 465.803 677.177C467.258 675.914 468.713 674.652 470.167 673.383ZM451.927 33.5254C455.529 33.0612 458.828 32.8508 461.997 32.108C463.081 31.8543 463.835 30.245 465.228 28.7225C459.255 28.153 455.715 30.6597 451.927 33.5254ZM471.918 704.218C469.882 701.526 468.131 699.211 466.342 696.84C464.566 697.763 465.488 702.646 468.453 706.211C469.641 705.524 470.835 704.837 471.918 704.218ZM472.495 693.009C472.092 693.281 471.287 693.826 470.18 694.575C471.832 697.199 473.441 699.749 475.112 702.411C476.455 701.495 477.298 700.925 477.675 700.665C475.905 698.047 474.29 695.664 472.488 693.003L472.495 693.009ZM493.538 680.148C490.277 682.073 490.543 685.613 494.671 689.067C495.426 688.522 496.2 687.959 496.769 687.544C495.649 684.988 494.585 682.543 493.532 680.148H493.538ZM486.037 686.622C484.941 687.34 483.61 688.219 482.094 689.215C483.091 690.787 483.982 692.205 484.824 693.535C486.365 692.7 487.701 691.976 488.809 691.375C487.893 689.809 487.002 688.281 486.037 686.622ZM504.221 909.414C502.921 911.667 502.822 911.754 505.186 914.533C505.793 915.245 507.291 915.201 508.38 915.505C508.331 914.366 508.715 912.868 508.133 912.175C507.149 910.993 505.558 910.312 504.221 909.414ZM624.32 114.352C626.956 113.517 627.117 113.275 627.105 109.785C627.099 107.408 626.907 105.118 624.32 103.818V114.352ZM531.659 184.973C531.232 184.67 530.804 184.367 530.377 184.063C529.207 185.122 527.487 185.982 527.035 187.288C526.639 188.427 527.679 190.067 528.081 191.484C528.613 191.472 529.146 191.46 529.678 191.447C530.34 189.287 530.996 187.133 531.659 184.973ZM627.73 178.536C625.038 177.639 621.541 179.607 620.315 182.473C622.597 183.178 625.068 181.866 627.73 178.536ZM589.115 80.5089C590.031 78.3674 594.196 81.1526 593.664 77.3028C593.546 76.4487 592.184 74.9942 591.671 75.1056C588.923 75.6874 588.675 77.9218 589.115 80.5089ZM493.749 319.06C494.337 320.508 494.677 321.789 495.364 322.835C495.723 323.38 496.707 323.745 497.401 323.739C497.803 323.739 498.347 322.897 498.576 322.328C499.666 319.635 498.614 318.843 493.749 319.06ZM462.189 324.711C461.712 324.711 461.236 324.711 460.759 324.704C460.759 326.84 460.635 328.987 460.846 331.098C460.902 331.63 462.046 332.051 462.684 332.522C463.024 331.903 463.737 331.228 463.644 330.683C463.303 328.672 462.69 326.704 462.183 324.717L462.189 324.711ZM632.471 208.047C633.121 203.331 631.01 201.437 626.832 201.511C628.466 203.405 630.255 205.485 632.471 208.047ZM488.352 684.431C486.26 685.489 487.794 687.123 488.519 688.441C489.373 689.995 490.617 691.282 492.962 690.608C491.328 688.417 489.923 686.535 488.345 684.431H488.352ZM454.793 836.906C452.181 837.642 450.751 839.066 451.339 841.765C451.531 842.631 452.032 843.43 452.577 844.674C453.437 841.659 454.081 839.4 454.786 836.9L454.793 836.906ZM491.923 922.988C490.023 921.317 489.398 921.595 487.244 925.08C489.299 926.119 489.948 925.829 491.923 922.988ZM632.675 119.322C630.75 115.832 628.95 115.596 627.043 118.66C628.956 118.883 630.738 119.093 632.675 119.322ZM562.153 77.767C562.481 78.0394 562.816 78.3117 563.144 78.584C564.271 77.309 565.428 76.065 566.493 74.7466C566.691 74.499 566.523 73.9544 566.523 73.5521C566.09 73.5954 565.459 73.4654 565.261 73.7006C564.165 75.0066 563.175 76.4054 562.147 77.7732L562.153 77.767ZM477.019 314.127C476.585 312.183 476.158 310.24 475.725 308.296C473.392 310.859 474.339 312.691 477.019 314.127ZM468.416 757.936C467.976 757.861 467.536 757.781 467.097 757.707C466.02 759.211 464.665 760.671 467.097 763.5C467.654 761.148 468.038 759.539 468.416 757.936Z" fill="black"/>
<path d="M403.762 601.01C407.383 602.149 408.391 604.928 409.264 607.787C412.557 618.557 415.738 629.363 419.154 640.096C420.602 644.657 422.553 649.064 424.217 653.558C424.552 654.467 424.657 655.464 424.861 656.417C424.552 656.572 424.242 656.727 423.933 656.887C423.085 655.872 422.063 654.956 421.42 653.824C413.014 639.118 407.735 623.23 403.817 606.846C403.403 605.101 403.762 603.176 403.762 601.01Z" fill="black"/>
<path d="M496.658 289.821L496.949 289.747C495.847 292.21 494.739 294.673 493.644 297.112C496.565 298.715 499.548 300.355 502.531 301.995C502.352 302.323 502.166 302.658 501.987 302.986C499.053 301.574 496.125 300.157 492.907 298.61C492.164 300.194 491.081 301.797 490.691 303.555C490.326 305.22 489.125 307.3 491.552 308.661C494.083 310.085 497.531 310.11 499.134 308.426C502.173 305.239 505.112 301.958 508.089 298.721V298.659C507.706 299.934 507.631 301.438 506.882 302.441C504.945 305.034 502.661 307.368 500.613 309.881C498.892 311.997 495.172 311.892 492.684 310.803C489.973 309.621 488.122 307.436 489.168 304.607C490.976 299.724 493.427 295.076 495.649 290.353C495.779 290.081 496.305 289.994 496.645 289.821H496.658Z" fill="white"/>
<path d="M483.165 438.669C488.234 421.382 493.854 404.287 501.591 387.904C501.015 389.575 500.427 391.252 499.858 392.923C499.276 394.619 498.719 396.315 498.131 398.005C493.433 411.56 488.736 425.121 484.025 438.669C483.976 438.811 483.716 438.886 483.555 438.991C483.431 438.873 483.301 438.768 483.165 438.669Z" fill="white"/>
<path d="M462.195 324.716C462.703 326.703 463.309 328.671 463.656 330.683C463.749 331.228 463.037 331.902 462.697 332.521C462.053 332.051 460.908 331.63 460.859 331.098C460.642 328.987 460.772 326.839 460.772 324.704C461.248 324.704 461.725 324.704 462.202 324.71L462.195 324.716Z" fill="white"/>
<path d="M632.484 208.053C630.274 205.491 628.479 203.405 626.845 201.517C631.017 201.443 633.134 203.337 632.484 208.053Z" fill="white"/>
<path d="M396.532 95.1402C395.852 92.485 395.121 89.8235 397.176 87.3911C399.398 88.827 399.281 90.1577 396.52 95.0721C396.527 95.0845 396.538 95.1402 396.538 95.1402H396.532Z" fill="white"/>
<path d="M491.929 922.994C489.954 925.834 489.305 926.125 487.25 925.086C489.404 921.595 490.029 921.316 491.929 922.994Z" fill="white"/>
<path d="M632.688 119.328C630.75 119.099 628.968 118.889 627.055 118.666C628.962 115.609 630.763 115.838 632.688 119.328Z" fill="white"/>
<path d="M562.166 77.7732C563.194 76.4054 564.184 75.0128 565.28 73.7006C565.478 73.4654 566.109 73.5892 566.542 73.5521C566.542 73.9606 566.709 74.499 566.511 74.7466C565.446 76.0649 564.289 77.3152 563.163 78.584C562.835 78.3117 562.5 78.0394 562.172 77.767L562.166 77.7732Z" fill="white"/>
<path d="M468.428 757.941C468.045 759.544 467.667 761.154 467.11 763.506C464.678 760.677 466.033 759.216 467.11 757.712C467.549 757.787 467.989 757.867 468.428 757.941Z" fill="white"/>
<path d="M466.287 368.37C466.912 370.611 467.537 372.857 468.162 375.098C467.995 375.265 467.828 375.426 467.667 375.593C467.005 373.192 466.336 370.79 465.674 368.395C465.878 368.376 466.082 368.37 466.293 368.37H466.287Z" fill="white"/>
<path d="M463.186 359.105C463.372 358.876 463.564 358.653 463.749 358.424C464.152 358.48 464.554 358.541 464.962 358.597C465.068 359.625 466.287 361.197 463.811 360.98C463.607 360.355 463.396 359.73 463.192 359.105H463.186Z" fill="white"/>
<path d="M468.162 375.098C468.645 376.485 469.128 377.871 469.61 379.257C469.468 379.375 469.332 379.499 469.196 379.623C468.682 378.279 468.174 376.936 467.66 375.593L468.156 375.098H468.162Z" fill="white"/>
<path d="M483.555 438.997C483.469 439.597 483.388 440.198 483.301 440.804C483.14 440.78 482.979 440.761 482.818 440.736C482.936 440.049 483.048 439.362 483.165 438.675C483.301 438.774 483.431 438.886 483.555 438.997Z" fill="white"/>
<path d="M469.61 379.257C469.765 379.913 469.926 380.563 470.081 381.219C469.907 381.263 469.734 381.306 469.561 381.349C469.437 380.774 469.313 380.198 469.19 379.622C469.326 379.499 469.462 379.375 469.604 379.257H469.61Z" fill="white"/>
<path d="M508.102 298.727C508.3 298.826 508.505 298.919 508.703 299.018C508.653 299.093 508.597 299.161 508.548 299.235C508.399 299.049 508.251 298.87 508.108 298.678C508.108 298.666 508.108 298.727 508.108 298.727H508.102Z" fill="white"/>
<path d="M562.235 506.3C554.56 494.819 537.848 445.106 539.172 438.811C540.2 440.259 541.141 441.144 541.543 442.228C544.731 450.862 548.036 459.459 550.889 468.211C554.69 479.871 558.118 491.65 561.683 503.385C561.968 504.326 562.055 505.328 562.235 506.3Z" fill="black"/>
<path d="M590.897 445.917C583.544 439.987 562.909 388.801 565.917 382.742C567.285 384.865 568.764 386.455 569.451 388.337C573.096 398.32 576.408 408.428 580.103 418.392C583.135 426.581 586.534 434.633 589.758 442.748C590.111 443.639 590.408 444.549 590.903 445.917H590.897Z" fill="black"/>
<path d="M591.503 266.091C594.994 259.691 616.985 249.188 622.463 251.162C611.762 255.365 602.824 262.433 591.503 266.091Z" fill="black"/>
<path d="M549.707 276.186C548.413 278.358 547.126 280.53 545.82 282.715C544.149 279.93 545.671 277.454 549.744 276.266L549.707 276.186Z" fill="black"/>
<path d="M479.606 797.845C480.56 794.106 481.32 790.3 482.595 786.673C482.936 785.707 484.849 785.299 486.037 784.63C486.433 785.732 487.188 786.846 487.17 787.942C487.102 792.639 486.903 797.337 486.532 802.022C486.439 803.198 485.764 804.542 484.935 805.377C484.211 806.101 482.689 806.745 481.878 806.448C481.141 806.176 480.609 804.622 480.485 803.576C480.262 801.756 480.423 799.887 480.423 798.043L479.612 797.838L479.606 797.845Z" fill="black"/>
<path d="M464.319 801.379C464.319 803.019 464.628 804.746 464.213 806.268C463.923 807.339 462.635 808.144 461.793 809.072C461.02 808.286 459.713 807.599 459.559 806.708C458.717 801.824 458.172 796.897 457.498 791.989C457.219 789.978 458.216 788.839 459.874 787.929C461.657 786.957 462.883 787.192 463.18 789.303C463.743 793.308 464.145 797.331 464.621 801.348C464.516 801.36 464.417 801.372 464.312 801.385L464.319 801.379Z" fill="black"/>
<path d="M473.491 807.135C470.21 804.387 468.527 788.431 471.022 784.705C474.946 792.157 473.54 799.732 473.491 807.135Z" fill="black"/>
<path d="M526.441 848.604C524.937 850.751 523.699 852.98 521.954 854.694C521.471 855.171 518.927 854.533 518.296 853.685C516.445 851.209 517.899 848.467 519.187 846.394C520.01 845.076 522.325 844.376 524.07 844.147C524.572 844.079 525.42 846.604 526.441 848.597V848.604Z" fill="black"/>
<path d="M518.408 817.756C520.995 819.167 523.285 820.417 525.68 821.729C521.49 822.924 518.247 821.463 518.408 817.756Z" fill="black"/>
<path d="M496.515 161.057C498.688 158.978 500.78 156.799 503.058 154.843C506.227 152.12 509.507 149.526 512.812 146.964C513.635 146.326 514.731 146.036 515.702 145.59L515.647 145.516C514.564 146.952 513.703 148.635 512.367 149.774C508.102 153.401 503.689 156.861 499.245 160.277C498.533 160.822 497.363 160.779 496.41 161.008L496.509 161.07L496.515 161.057Z" fill="black"/>
<path d="M496.416 160.995C496.46 161.144 496.51 161.286 496.553 161.434C496.417 161.422 496.287 161.416 496.15 161.403C496.268 161.286 496.392 161.168 496.509 161.051L496.41 160.989L496.416 160.995Z" fill="black"/>
<path d="M515.703 145.584C515.851 145.435 516 145.287 516.148 145.145C516.173 145.231 516.204 145.324 516.229 145.411C516.037 145.442 515.839 145.479 515.647 145.51L515.703 145.584Z" fill="black"/>
<path d="M405.495 1030.63C406.015 1030.55 406.54 1030.48 407.06 1030.41C408.385 1030.29 409.704 1030.1 411.034 1030.05C422.738 1029.62 434.442 1029.09 446.152 1028.84C455.374 1028.64 464.603 1028.8 472.661 1028.8C470.47 1029.1 467.091 1029.74 463.681 1030C456.625 1030.53 449.556 1030.83 442.494 1031.3C433.811 1031.88 425.14 1032.57 416.456 1033.1C413.473 1033.29 410.458 1033.3 407.493 1033.03C406.757 1032.96 406.157 1031.47 405.495 1030.63Z" fill="black"/>
<path d="M501.436 1031.87C507.093 1025.83 512.707 1019.73 519.93 1015.43C514.638 1021.85 508.393 1027.24 501.839 1032.31C501.702 1032.17 501.566 1032.02 501.436 1031.87Z" fill="black"/>
<path d="M677.307 966.604C682.581 967.278 688.535 967.873 694.414 968.9C696.018 969.179 697.392 970.763 698.871 971.747C697.249 972.187 695.646 972.936 694.012 973.01C687.29 973.319 680.556 973.66 673.847 973.474C671.575 973.412 669.304 971.927 667.12 970.905C666.736 970.726 666.5 969.482 666.723 968.962C666.995 968.349 667.794 967.681 668.45 967.582C671.142 967.167 673.866 966.957 677.301 966.598L677.307 966.604Z" fill="black"/>
<path d="M674.231 983.346C673.921 978.296 674.157 977.887 678.892 978.091C684.772 978.345 690.645 978.822 696.501 979.404C697.491 979.503 698.382 980.641 699.7 981.57C694 984.015 681.367 984.763 674.225 983.34L674.231 983.346Z" fill="black"/>
<path d="M670.356 998.479C670.802 995.453 672.69 994.128 674.961 993.577C680.618 992.197 686.319 991.015 692.019 989.827C694.773 989.251 697.559 988.849 701.347 988.199C700.177 989.61 699.737 990.681 699.032 990.903C690.732 993.503 682.407 996.01 674.058 998.442C673.024 998.745 671.829 998.485 670.35 998.485L670.356 998.479Z" fill="black"/>
<path d="M674.07 1007.32C674.373 1003.28 677.288 1002.49 679.467 1002.38C687.903 1001.93 696.395 1001.56 704.633 1004.18C704.788 1004.23 704.88 1004.48 705.617 1005.41C694.885 1006.06 684.728 1006.67 674.07 1007.32V1007.32Z" fill="black"/>
<path d="M495.098 955.383C498.279 956.676 499.183 958.793 499.022 961.3C498.725 965.88 498.329 970.46 497.685 975.003C497.073 979.286 496.082 983.513 494.578 987.939C494.194 986.924 493.464 985.909 493.483 984.9C493.594 976.81 493.792 968.721 494.083 960.638C494.145 958.997 494.702 957.376 495.104 955.389L495.098 955.383Z" fill="black"/>
<path d="M482.546 118.443C483.469 115.2 484.316 112.161 485.226 109.141C485.312 108.85 485.771 108.577 486.111 108.472C489.986 107.284 496.144 110.267 497.512 114.043C498.125 115.726 497.933 117.001 495.637 117.174C491.471 117.484 487.325 117.967 482.546 118.443Z" fill="black"/>
<path d="M481.426 109.215C481.079 112.316 480.868 114.909 480.448 117.465C480.324 118.208 479.408 119.489 479.179 119.421C478.09 119.099 476.604 118.641 476.202 117.787C475.162 115.59 474.939 113.232 477.52 111.647C478.709 110.917 479.891 110.174 481.42 109.215H481.426Z" fill="black"/>
<path d="M459.212 841.108C460.555 841.331 462.449 841.102 463.099 841.888C463.835 842.792 463.464 844.605 463.613 846.518C461.601 844.791 460.171 843.559 458.741 842.334C458.902 841.925 459.057 841.517 459.218 841.108H459.212Z" fill="black"/>
</svg>
