<svg width="1080" height="1080" viewBox="0 0 1080 1080" fill="none" xmlns="http://www.w3.org/2000/svg">
<path d="M329.731 866.571C337.028 850.646 338.384 833.96 339.845 816.957C332.937 817.093 327.602 814.333 322.186 811.56C318.658 809.753 314.66 808.862 311.107 807.098C304.447 803.786 298.177 800.011 293.176 794.149C290.49 791.005 286.448 788.975 282.89 786.636C277.109 782.829 273.754 777.129 273.556 770.686C273.284 761.853 274.596 752.972 275.246 744.108C275.333 742.889 275.623 741.676 275.654 740.457C275.871 732.12 276.026 723.783 276.248 715.445C276.409 709.244 276.88 703.036 276.781 696.84C276.663 689.586 276.013 682.345 275.723 675.097C275.413 667.404 275.054 659.704 275.079 652.004C275.122 638.858 274.955 625.675 275.815 612.572C276.54 601.518 276.279 590.569 275.797 579.545C275.524 573.362 276.657 567.123 276.88 560.897C276.966 558.545 276.292 556.162 275.933 553.556C262.706 563.113 247.301 566.04 233.492 572.527C227.334 575.417 221.782 579.762 216.311 583.909C208.493 589.838 200.689 595.613 191.51 599.438C188.341 600.763 185.847 603.709 183.055 605.931C181.403 607.243 179.775 608.592 178.128 609.929C179.775 613.655 178.692 617.449 175.089 620.47C167.322 626.987 158.087 630.998 149.15 635.491C145.758 637.199 141.388 635.058 139.352 630.701C137.112 625.91 135.416 620.859 133.249 616.032C132.234 613.766 130.947 611.495 129.3 609.669C124.287 604.111 118.525 599.519 112.057 595.595C107.83 593.032 104.351 589.151 100.78 585.611C97.6293 582.485 94.1016 579.415 92.0282 575.615C88.5373 569.222 85.4426 562.469 83.3011 555.518C79.6989 543.802 77.0002 531.807 73.8683 519.948C73.1566 517.243 72.0487 514.644 71.405 511.926C69.511 503.948 73.4538 498.335 79.3275 493.798C80.9306 492.56 83.3383 491.52 85.2446 491.718C88.2093 492.022 90.3322 494.336 91.8239 496.985C95.4694 503.484 99.8701 509.364 105.323 514.52C110.052 518.995 114.508 523.779 118.84 528.644C124.621 535.13 132.29 537.897 140.262 540.249C142.663 540.961 145.034 541.852 147.312 542.892C150.499 544.353 151.329 546.216 150.567 549.564C150.214 551.136 149.719 552.671 149.422 554.249C149.032 556.317 150.375 557.369 152.022 556.775C158.192 554.54 164.357 556.979 170.522 556.496C172.911 556.31 175.219 556.756 177.237 554.899C177.961 554.231 179.274 553.816 180.264 553.897C188.211 554.553 195.459 551.761 202.911 549.725C213.266 546.89 221.764 540.998 230.064 534.555C241.043 526.032 252.104 517.602 263.238 509.284C274.924 500.55 286.919 492.219 298.437 483.276C308.037 475.83 317.371 468.007 326.413 459.899C334.781 452.397 343.799 445.892 353.467 440.278C358.765 437.202 364.385 434.683 369.869 431.904C364.193 431.904 358.332 432.04 352.483 431.867C346.158 431.681 340.148 430.054 334.633 426.903C333.729 426.389 332.658 425.059 332.708 424.161C332.925 420.287 333.531 416.431 334.07 411.9C332.058 409.82 329.229 406.942 326.444 404.021C323.009 400.419 322.124 395.87 321.369 391.147C321.066 389.253 319.828 386.945 318.287 385.923C313.385 382.668 310.915 377.852 309.324 372.647C305.957 361.593 300.022 352.16 292.341 343.699C283.23 333.66 276.57 322.123 271.464 309.633C269.483 304.787 267.367 299.996 265.597 295.082C264.971 293.337 264.959 291.269 265.102 289.375C265.25 287.358 266.29 286.113 268.376 284.9C273.798 281.75 278.279 281.936 283.082 286.064C292.898 294.506 302.956 302.676 313.156 311.162C317.006 307.294 321.468 302.769 325.961 298.288C334.119 290.155 343.577 283.669 352.978 277.12C359.929 272.28 366.799 267.298 373.973 262.792C379.376 259.4 385.188 256.658 390.826 253.65C397.171 250.265 403.341 246.446 409.951 243.679C414.63 241.723 419.892 241.092 424.93 240.064C429.671 239.099 434.461 238.338 439.24 237.589C441.796 237.186 443.349 239.662 443.683 242.237C444.061 245.183 442.879 249.101 447.223 250.655C448.047 250.952 448.703 252.536 448.895 253.619C449.811 258.917 450.653 264.24 451.278 269.582C451.457 271.11 450.851 272.732 450.579 274.49C479.762 317.506 509.353 360.584 540.12 403.693C544.391 393.103 548.952 383.788 549.93 373.179C550.512 366.872 552.152 360.664 553.124 354.382C553.836 349.771 554.486 345.117 554.721 340.462C554.993 335.071 554.492 329.637 554.851 324.259C555.383 316.243 556.577 308.278 557.104 300.262C557.481 294.512 557.085 288.713 557.308 282.944C557.487 278.309 558.131 273.691 558.49 269.062C559.146 260.688 559.152 252.208 560.563 243.964C561.56 238.14 564.333 232.606 566.475 227.005C568.084 222.79 569.755 218.581 571.748 214.54C575.567 206.815 582.468 203.306 590.39 200.904C594.63 199.623 598.257 200.36 602.391 202.291C603.518 199.815 604.595 197.482 605.641 195.13C611.935 180.981 621.9 169.896 633.945 160.376C643.569 152.776 653.943 146.395 665.455 142.464C674.349 139.432 683.807 138.033 693.047 136.052C698.853 134.808 704.677 134.548 710.656 135.316C720.125 136.535 728.215 140.02 735.698 146.166C745.39 154.125 753.325 163.428 760.524 173.82C762.139 170.446 765.259 169.586 768.335 168.868C775.285 167.24 782.26 165.687 789.261 164.288C796.676 162.803 804.122 161.453 811.58 160.191C818.159 159.077 824.763 158.031 831.386 157.195C835.137 156.725 838.949 156.687 842.737 156.527C848.896 156.267 855.06 155.92 861.225 155.877C865.861 155.846 870.496 156.168 875.132 156.459C880.585 156.799 886.094 156.873 891.448 157.826C895.13 158.482 898.603 160.376 902.124 161.825C906.735 163.725 911.309 165.73 915.89 167.705C919.702 169.351 922.883 171.79 925.012 175.398C927.011 178.784 928.788 182.305 930.793 185.685C933.244 189.807 932.749 194.177 932.273 198.62C931.889 202.235 931.771 205.874 931.505 209.972C933.795 208.864 935.429 207.812 937.211 207.261C941.655 205.887 946.112 204.42 950.673 203.578C955.47 202.693 959.611 204.599 963.182 207.898C965.484 210.027 967.168 212.602 971.024 213.178C973.611 213.562 975.753 216.811 978.148 218.705C983.224 222.728 988.41 226.615 993.405 230.737C995.652 232.594 998.053 234.587 999.47 237.044C1002.57 242.41 1008.07 246.279 1009.26 252.821C1009.75 255.488 1010.28 258.162 1011.01 260.774C1011.76 263.448 1010.1 264.197 1007.78 265.534C1006.39 281.645 1001.04 297.607 997.106 313.904C994.197 325.961 991.883 338.166 989.289 350.297C988.324 354.809 987.426 359.34 986.275 363.803C985.928 365.146 984.901 366.353 984.028 367.504C983.731 367.9 982.963 367.937 981.855 368.339C981.855 374.894 981.819 382.142 981.942 389.395C981.949 389.866 983.186 390.714 983.842 390.708C988.367 390.683 990.434 393.474 988.862 397.658C988.323 399.094 987.866 400.561 987.259 402.35C990.515 407.048 992.662 412.742 992.359 419.129C991.821 430.468 991.653 441.863 990.366 453.121C989.258 462.808 986.727 472.327 984.963 481.945C983.415 490.375 981.93 498.83 980.649 507.303C979.102 517.546 976.756 527.511 972.634 537.086C969.211 545.046 966.351 553.253 963.275 561.361C961.109 567.074 957.253 571.314 952.252 574.755C947.889 577.763 943.828 581.21 939.545 584.348C938.821 584.881 937.657 585.091 936.735 585.017C934.569 584.85 932.879 585.042 931.641 587.276C926.275 596.95 923.954 607.559 922.549 618.303C921.014 630.001 920.581 641.835 919.213 653.552C918.34 661.053 916.793 668.487 915.283 675.895C913.042 686.857 910.579 697.769 908.19 708.699C906.432 716.758 904.47 724.773 902.935 732.875C901.901 738.334 901.289 743.892 900.806 749.437C899.902 759.897 899.203 770.37 898.466 780.842C898.182 784.921 898.163 789.025 897.748 793.091C897.525 795.27 896.993 797.523 896.09 799.51C895.037 801.818 893.626 803.359 890.284 803.372C884.435 803.39 878.592 804.585 872.743 805.272C865.978 806.07 859.226 806.924 852.448 807.617C845.096 808.373 837.668 808.62 830.37 809.716C819.273 811.387 808.275 813.677 797.208 815.521C794.528 815.967 791.718 815.583 788.989 815.818C779.395 816.642 769.783 817.366 760.227 818.511C751.5 819.557 742.865 821.624 734.12 822.268C724.378 822.986 714.555 822.583 704.77 822.701C697.274 822.794 689.767 822.72 682.284 823.103C670.066 823.735 657.861 824.669 645.655 825.499C636.811 826.099 627.972 827.201 619.133 827.182C613.421 827.17 607.665 825.752 602.014 824.564C597.991 823.716 593.961 822.528 590.217 820.863C588.119 819.928 586.367 817.892 584.857 816.029C583.056 813.807 581.186 813.169 578.587 814.345C569.569 818.418 560.415 819.34 550.927 815.787C548.42 814.853 545.604 814.55 542.899 814.383C531.3 813.677 519.683 813.324 508.102 812.451C501.288 811.938 494.535 810.632 487.733 809.821C485.988 809.61 484.168 810.093 482.404 809.988C477.23 809.679 472.068 809.122 466.887 808.868C462.976 808.676 459.033 808.998 455.128 808.719C445.912 808.069 436.714 807.116 427.492 806.448C421.853 806.039 416.184 806.064 410.545 805.674C403.613 805.198 396.688 804.517 389.768 803.842C389.106 803.78 388.196 803.217 387.936 802.647C386.735 799.961 384.959 799.98 382.539 800.933C380.867 801.589 378.93 801.552 377.172 802.035C372.215 803.396 369.454 808.713 370.234 813.776C371.732 823.487 373.019 833.248 373.979 843.027C374.74 850.764 374.74 858.575 375.34 866.33C375.606 869.734 376.442 873.101 377.203 876.443C377.352 877.106 378.404 878.114 378.924 878.046C381.684 877.694 382.378 879.724 382.588 881.5C382.854 883.784 382.421 886.155 382.242 888.488C382.013 891.471 381.567 894.448 381.505 897.432C381.387 903.361 381.468 909.29 381.474 915.22C381.474 915.931 381.474 916.668 381.629 917.355C383.207 924.659 381.523 926.237 374.133 926.979C369.646 927.431 365.103 927.264 360.616 927.691C356.611 928.075 352.489 928.397 348.695 929.616C341.299 931.999 333.865 932.166 326.24 931.653C317.036 931.04 308.384 933.2 299.688 936.418C290.02 939.996 279.956 942.806 269.83 944.731C261.431 946.328 253.861 942.552 247.004 937.681C243.383 935.112 241.477 932.711 241.767 927.276C242.12 920.611 245.481 917.231 249.981 914.149C252.203 912.633 255.137 911.933 257.854 911.413C263.938 910.25 268.747 906.61 273.488 903.2C283.15 896.243 292.558 888.909 301.681 881.265C305.809 877.811 309.145 873.361 312.611 869.171C316.696 864.225 321.536 863.322 327.255 865.736C327.986 866.045 328.772 866.231 329.712 866.528L329.731 866.571ZM435.44 445.409C435.043 445.267 434.647 445.125 434.251 444.982C434.442 445.273 434.635 445.564 434.827 445.855C436.857 447.501 438.912 449.117 440.911 450.806C446.797 455.795 452.627 460.846 458.538 465.803C464.176 470.538 470.094 474.964 475.522 479.921C484.521 488.141 491.663 497.852 497.296 508.677C498.119 510.262 499.233 511.698 500.217 513.202C501.127 510.361 502.068 507.625 501.43 505.322C499.945 499.95 498.113 494.59 495.668 489.589C490.933 479.915 482.225 474.041 473.516 468.471C464.337 462.603 454.806 457.305 445.454 451.71C442.068 449.686 438.776 447.507 435.44 445.403V445.409Z" fill="white"/>
<path d="M961.145 331.94C961.61 330.33 960.118 331.067 959.63 330.819C956.473 329.223 953.192 327.681 949.887 326.629C946.427 325.528 947.3 323.875 947.771 321.585C949.776 311.75 951.286 301.804 954.684 292.297C955.124 291.059 955.736 289.871 956.386 288.732C957.253 287.215 957.995 286.176 959.697 288.292C960.799 289.666 963.071 289.078 964.797 289.518C973.76 291.789 982.548 294.327 990.434 299.501C993.089 301.247 993.59 303.394 992.866 305.697C990.248 314.065 988.961 322.928 983.972 330.442C983.582 331.03 983.743 331.599 983.719 332.206C983.626 334.23 982.455 334.898 980.512 334.861C976.483 334.781 972.491 334.298 968.629 333.283C966.902 332.825 966.487 333.128 966.19 334.688C966.041 335.449 965.546 336.235 965.002 336.811C963.931 337.943 964.395 338.655 965.305 339.59C968.041 342.387 969.798 345.482 967.465 349.412C967.069 350.081 967.521 350.489 967.911 350.594C974.936 352.47 978.061 358.344 981.583 363.827C981.738 364.069 982.059 364.205 982.499 364.539C983.873 361.005 984.214 357.341 984.932 353.782C988.206 337.572 991.969 321.486 996.413 305.542C999.916 292.953 1003.12 280.271 1005.49 267.403C1005.99 264.692 1006.91 262.062 1007.59 259.388C1008.02 257.711 1009.25 256.968 1010.76 257.067C1012.17 257.166 1012.47 258.497 1012.83 259.734C1014.28 264.773 1013.17 269.805 1012.5 274.725C1009.21 298.907 1002.47 322.383 997.446 346.212C994.773 358.876 992.396 371.607 989.945 384.32C989.734 385.397 989.214 386.901 991.053 387.254C994.593 387.935 994.079 390.578 993.374 392.744C992.606 395.102 992.309 397.745 990.545 399.695C989.864 400.45 990.409 400.735 990.812 401.149C998.257 408.886 1000.49 418.244 1000.03 428.729C999.185 447.607 997.093 466.336 994.153 484.978C991.449 502.104 986.894 518.741 981.298 535.143C978.03 544.718 975.363 554.497 971.99 564.053C969.545 570.979 965.367 576.426 959.555 580.728C958.676 581.378 957.661 581.879 956.423 581.656C952.976 581.031 951.088 581.891 949.776 585.067C948.724 587.623 946.52 588.099 944.36 588.31C940.839 588.644 938.22 590.383 937.471 593.67C932.241 616.725 926.844 639.743 921.905 662.861C918.093 680.698 914.645 698.617 911.458 716.572C909.353 728.443 907.954 740.438 906.32 752.396C905.063 761.6 902.805 770.58 900.607 779.586C899.729 783.194 901.821 786.729 901.499 790.436C901.264 793.178 901.672 795.988 900.701 798.649C900.354 799.596 899.995 800.828 899.246 801.286C895.848 803.353 893.88 807.525 889.461 808.032C887.319 808.28 887.925 809.895 887.87 811.065C887.597 816.704 887.517 822.348 885.375 827.727C884.861 829.014 884.101 830.042 883.37 831.15C881.687 833.718 882.299 834.931 885.307 835.501C888.086 836.027 890.847 836.714 893.57 837.494C894.597 837.785 895.842 838.311 895.706 839.734C895.594 840.929 894.548 841.325 893.514 841.579C890.63 842.284 887.777 842.99 884.731 842.934C877.521 842.804 870.304 843.021 863.093 842.86C855.71 842.693 848.357 841.963 841.035 840.972C840.434 840.892 839.865 840.613 839.277 840.421C837.934 839.976 836.659 839.159 836.609 837.766C836.572 836.627 837.946 836.076 838.937 835.55C842.52 833.638 846.488 833.025 850.418 832.437C851.965 832.202 852.052 831.614 851.699 830.438C850.207 825.474 849.793 820.38 849.972 815.237C850.041 813.386 849.31 812.947 847.627 813.169C832.091 815.218 816.562 817.36 801.002 819.204C790.01 820.504 778.974 821.457 767.945 822.417C750.973 823.883 733.996 825.27 717.012 826.601C707.19 827.368 697.348 827.975 687.513 828.625C678.205 829.237 668.89 829.831 659.575 830.388C658.356 830.463 657.798 830.853 657.501 832.115C654.951 842.934 653.818 853.988 651.906 864.913C651.417 867.716 650.705 870.508 649.814 873.213C649.251 874.933 649.832 875.168 651.287 875.1C654.889 874.939 658.417 875.503 661.896 876.357C662.954 876.617 664.52 876.846 664.489 878.065C664.452 879.414 662.874 880.04 661.692 879.965C658.677 879.773 655.781 880.727 652.803 880.658C648.421 880.566 644.361 881.704 640.214 883.116C635.393 884.762 630.243 885.406 625.087 884.527C616.54 883.066 607.993 881.568 599.464 880.002C597.563 879.656 595.675 879.055 594.035 877.979C592.197 876.772 592.21 875.503 594.351 874.735C598.467 873.256 602.732 872.786 607.052 873.547C608.803 873.856 611.056 874.519 612.102 873.553C613.185 872.55 611.489 870.656 610.957 869.202C608.184 861.608 607.014 853.654 605.516 845.775C604.6 840.954 603.307 836.076 603.846 831.224C604.186 828.166 603.097 827.554 600.757 827.393C596.035 827.077 592.643 824.075 588.991 821.624C588.1 821.024 587.32 820.523 586.199 820.634C574 821.866 561.894 821.389 549.75 819.514C538.993 817.855 528.199 816.283 517.294 815.608C507.997 815.026 498.707 814.203 489.448 813.163C470.551 811.034 451.605 810.137 432.592 810.013C423.852 809.957 415.113 809.332 406.386 808.825C403.657 808.664 400.964 808.02 398.247 807.642C397.603 807.556 396.892 807.537 396.836 806.776C396.78 806.077 397.43 805.643 398.03 805.544C400.153 805.198 402.283 804.752 404.418 804.709C415.311 804.461 426.211 804.034 437.092 804.226C453.97 804.523 470.811 805.526 487.597 807.543C502.823 809.376 518.123 810.533 533.386 812.068C543.004 813.04 552.511 815.02 562.203 815.398C568.059 815.627 573.907 816.202 579.775 815.658C581.168 815.528 582.561 815.292 584.114 816.456C578.649 804.863 578.977 792.893 578.915 780.991C578.853 769.064 578.216 757.088 579.088 745.223C580.71 723.108 581.001 700.987 580.685 678.854C580.53 668.183 579.565 657.532 578.395 646.904C577.398 637.843 576.544 628.757 575.845 619.665C575.399 613.921 575.566 614.163 569.81 613.835C564.549 613.531 560.006 616.236 554.918 616.669C547.801 617.276 540.739 618.594 533.639 619.455C524.912 620.513 516.167 621.46 507.422 622.364C502.012 622.927 496.577 623.286 491.162 623.818C483.84 624.542 476.53 625.403 469.202 626.114C461.639 626.845 454.063 627.519 446.487 628.12C436.256 628.937 426.031 629.76 415.788 630.391C411.165 630.676 406.516 630.571 401.874 630.558C399.937 630.558 398.222 629.327 398.111 627.649C398.006 626.083 399.943 625.372 401.521 625.081C409.078 623.694 416.734 623.249 424.372 622.605C426.724 622.407 428.99 621.553 431.484 621.739C417.335 617.92 406.863 608.128 395.456 599.593C393.636 612.504 391.971 625.056 390.083 637.571C388.121 650.606 387.515 663.702 387.552 676.861C387.626 703.302 387.465 729.743 387.781 756.178C387.88 764.472 389.495 772.734 389.873 781.034C390.368 791.878 391.123 802.771 389.031 813.572C388.802 814.766 388.895 816.035 388.895 817.267C388.889 821.655 385.967 825.276 381.647 825.573C379.815 825.697 380.174 826.638 380.267 827.523C381.579 840.161 382.99 852.788 384.092 865.445C384.389 868.868 384.061 872.427 385.528 875.8C386.252 874.995 387.354 873.788 388.548 874.803C390.064 876.091 391.469 877.774 391.309 879.947C390.925 885.053 390.424 890.153 389.829 895.241C388.944 902.841 387.942 910.423 386.976 918.129C388.387 917.962 388.672 916.687 389.904 916.204C390.145 916.724 390.764 917.411 390.622 917.857C389.712 920.728 391.631 921.422 393.648 922.325C396.254 923.489 398.742 924.925 401.299 926.206C402.283 926.695 403.112 927.326 403.05 928.49C402.982 929.765 401.979 929.957 400.896 930.241C399.281 930.662 397.677 930.811 396.025 930.811C394.044 930.811 392.305 930.935 390.467 932.395C388.326 934.104 385.119 933.726 382.439 933.769C371.323 933.949 360.263 935.416 349.19 935.54C334.911 935.694 321.202 939.173 307.356 941.636C298.14 943.276 289.141 946.408 279.907 948.284C271.019 950.091 262.087 951.347 253.354 947.522C246.991 944.737 242.083 940.441 239.842 933.646C239.564 932.81 239.106 932.309 238.444 932.272C234.674 932.074 234.414 929.189 234.278 926.565C234.099 923.105 235.132 919.93 237.484 917.207C242.17 911.773 248.118 908.226 254.784 906.01C270.356 900.848 282.395 890.747 293.554 879.216C298.852 873.745 304.044 868.143 309.974 863.297C312.518 861.218 314.913 859.639 318.553 860.531C320.558 861.02 322.241 858.538 324.457 858.513C327.676 858.476 326.933 855.82 327.391 854.032C328.505 849.656 328.45 844.927 332.361 840.607C326.104 842.253 320.651 841.635 315.248 841.87C308.136 842.179 301.012 841.808 294.061 839.889C292.662 839.505 291.146 838.905 291.363 837.562C291.586 836.157 292.267 834.659 294.402 834.257C299.446 833.316 299.211 833.186 298.227 828.024C297.558 824.521 297.23 820.931 297.274 817.317C297.323 812.483 297.565 807.63 296.809 802.815C296.549 801.162 297.113 799.578 297.577 797.578C308.798 803.755 319.803 810.124 331.575 814.946C329.601 812.712 326.84 811.802 324.402 810.36C314.523 804.517 304.936 798.173 294.637 793.048C292.91 792.188 292.037 790.616 290.905 789.13C286.789 783.708 286.04 778.014 287.984 771.54C290.323 763.747 291.907 755.732 294.835 748.113C295.485 746.417 295.98 744.604 297.887 743.762C298.908 743.31 298.481 742.345 298.536 741.583C299.409 729.656 299.292 717.705 299.118 705.765C298.957 694.724 299.384 683.7 299.873 672.689C300.536 657.822 301.804 642.98 302.758 628.126C303.259 620.333 303.705 612.529 304.07 604.73C304.59 593.54 305.592 582.393 306.44 571.227C307.046 563.23 307.653 555.228 308.52 547.256C309.046 542.397 309.578 537.483 311.255 532.803C311.54 532.011 311.008 530.928 310.711 529.077C309.949 532.092 309.318 534.19 308.903 536.331C307.684 542.651 303.395 547.132 299.57 551.848C293.925 558.817 287.092 564.598 280.389 570.491C279.126 571.598 278.284 572.663 279.052 574.464C279.361 575.188 279.343 576.079 279.343 576.896C279.343 590.086 279.776 603.294 278.687 616.447C276.291 645.308 275.852 674.224 276.409 703.135C276.694 717.872 277.127 732.603 276.607 747.315C276.323 755.447 276.638 763.568 276.31 771.688C276.199 774.492 276.96 777.16 278.712 779.456C279.33 780.267 279.993 781.059 280.519 781.926C281.354 783.3 282.333 785.138 281.25 786.326C280.012 787.682 278.47 786.153 277.232 785.367C273.191 782.792 271.371 779.246 271.309 774.276C271.086 756.766 272.683 739.306 272.64 721.808C272.597 702.974 272.516 684.14 273.135 665.312C273.779 645.704 274.484 626.096 275.376 606.5C275.809 596.987 275.549 587.449 275.561 577.918C275.561 577.255 275.908 576.346 275.128 575.931C274.262 575.467 273.89 576.408 273.414 576.853C262.533 587.035 251.107 596.641 240.82 607.466C239.583 608.766 238.951 610.01 239.1 611.798C239.242 613.544 239.124 615.302 239.131 617.059C239.143 622.19 236.946 625.898 232.694 628.937C229.395 631.295 225.749 633.331 223.199 636.785C222.215 638.122 220.123 638.561 218.192 637.46C213.414 634.736 210.325 630.707 208.041 625.737C204.384 617.771 202.254 609.335 199.797 600.658C195.285 604.062 190.321 606.216 185.642 608.877C183.959 609.836 182.547 611.408 183.556 614.045C185.716 619.702 184.869 622.048 180.109 625.663C174.78 629.71 168.844 632.718 162.834 635.547C160.563 636.618 158.644 638.456 156.447 639.267C145.417 643.321 136.461 639.762 130.786 628.572C128.749 624.561 126.948 620.488 125.803 616.137C125.382 614.528 124.553 613.488 122.801 612.721C112.304 608.097 104.382 600.206 96.9235 591.782C82.4528 575.448 75.1805 555.593 68.8302 535.186C65.5251 524.578 64.0148 513.969 65.6859 502.977C67.1961 493.03 77.5075 483.418 87.3796 482.812C90.8642 482.595 92.981 485.046 94.8316 487.553C97.0226 490.524 98.471 493.916 100.037 497.239C105.298 508.448 113.976 516.612 123.656 523.946C131.498 529.894 140.175 534.567 148.116 540.342C150.684 542.211 154.126 544.018 152.547 548.419C152.176 549.459 153.117 549.577 153.866 549.453C160.829 548.32 167.848 549.007 174.829 549.013C180.208 549.013 185.444 547.967 190.761 547.602C192.451 547.485 193.676 547.002 192.915 544.508C191.968 541.407 194.078 537.835 197.123 535.917C201.524 533.15 206.247 531.008 210.913 528.768C212.244 528.13 213.42 527.412 214.41 526.342C225.626 514.198 238.957 504.524 251.751 494.219C264.736 483.759 277.084 472.606 288.893 460.821C302.962 446.777 317.055 432.727 332.689 420.367C333.333 419.86 333.977 419.352 335.054 418.498C331.953 417.823 330.009 416.288 327.818 415.242C324.705 413.757 323.312 410.947 322.879 407.914C322.464 405.048 324.786 404.999 327.1 405.426C324.284 404.393 321.592 403.644 319.054 402.412C315.198 400.537 314.158 397.72 316.579 394.248C318.398 391.636 320.694 389.439 324.253 389.309C326.735 389.222 326.809 390.609 326.073 392.292C325.51 393.592 324.711 394.824 323.869 395.969C322.019 398.488 322.879 400.01 325.491 401.112C327.855 402.109 329.223 403.854 330.269 406.324C331.569 409.406 332.689 412.866 336.632 414.116C338.476 414.704 339.528 414.481 340.94 413.243C350.273 405.055 359.83 397.132 369.968 389.947C375.161 386.264 380.62 383.021 386.518 380.656C390.158 379.202 394.125 379.449 398 379.647C407.896 380.149 416.252 384.562 424.069 390.175C439.97 401.595 455.963 412.89 471.61 424.644C482.268 432.653 492.406 441.343 502.761 449.748C515.449 460.041 528.113 470.359 540.795 480.658C549.825 487.992 558.533 495.679 566.517 504.159C567.607 505.316 568.795 506.307 570.664 506.492C573.313 506.758 575.189 508.733 577.039 510.478C577.881 511.271 578.32 511.605 579.181 510.528C586.732 501.139 597.316 497.227 608.488 494.398C608.655 494.355 608.785 494.169 609.243 493.792C606.092 492.368 603.227 490.437 600.095 489.775C593.206 488.327 586.979 485.411 580.957 482.038C576.241 479.395 571.054 479.921 566.084 479.012C562.352 478.325 558.775 477.316 555.519 475.298C554.826 474.871 554.071 474.568 553.978 473.398C561.999 475.149 570.157 474.308 578.153 475.477C586.051 476.635 592.896 480.639 600.125 483.623C606.241 486.154 612.437 488.5 618.57 490.982C619.684 491.434 620.805 491.496 621.9 491.285C636.563 488.413 651.399 488.667 666.21 489.076C679.975 489.453 693.734 490.159 707.48 490.908C721.858 491.687 736.236 492.263 750.626 492.758C768.619 493.383 786.618 494.083 804.592 495.203C815.609 495.89 826.57 497.413 837.488 499.238C844.538 500.414 851.6 501.553 858.625 502.847C859.207 502.952 859.572 502.865 860.03 502.624C864.338 500.34 868.664 498.087 872.947 495.772C874.061 495.166 875.293 494.757 875.565 493.061C875.745 491.954 880.795 490.79 881.724 491.483C882.627 492.158 882.435 493.321 882.07 494.021C880.653 496.757 880.622 499.597 880.523 502.599C880.43 505.403 879.341 508.213 878.444 510.936C877.806 512.874 875.77 512.793 874.507 512.23C870.181 510.311 865.582 511.165 861.15 510.676C852.417 509.711 843.746 508.349 835.05 507.148C826.038 505.904 817.033 504.666 807.99 503.689C798.093 502.618 788.153 502.265 778.243 501.411C773.112 500.971 767.957 501.07 762.826 500.817C756.048 500.482 749.253 500.142 742.463 499.932C723.746 499.35 705.03 498.651 686.319 497.951C673.637 497.481 660.961 497.332 648.31 497.685C633.988 498.087 619.858 500.315 606.396 505.613C600.194 508.052 594.104 510.794 588.973 515.133C583.866 519.453 581.453 525.568 578.958 531.535C576.767 536.765 576.309 542.428 575.232 547.936C574.904 549.608 576.427 550.79 576.414 552.325C576.346 560.389 579.212 567.965 580.252 575.844C580.84 580.307 581.576 584.763 581.96 589.251C583.093 602.644 583.928 616.063 585.179 629.444C586.404 642.522 587.506 655.594 588.254 668.71C589.499 690.434 588.806 712.165 588.632 733.89C588.539 745.464 587.159 757.026 587.79 768.625C588.508 781.851 588.316 795.128 590.056 808.292C590.588 812.322 591.392 816.308 592.822 820.108C597.371 817.756 602.187 818.66 606.804 818.975C616.763 819.662 626.722 820.102 636.705 820.083C638.828 820.083 638.686 818.561 638.822 817.415C639.076 815.286 639.156 813.145 639.527 811.009C639.731 809.846 640.357 809.716 641.149 809.635C642.306 809.518 642.034 810.502 642.176 811.133C642.517 812.631 642.913 814.116 643.142 815.633C643.816 820.058 643.798 820.194 648.354 819.996C661.296 819.439 674.249 819.025 687.161 818.059C697.701 817.267 708.235 816.394 718.776 815.627C730.251 814.797 741.726 813.987 753.195 813.126C768.941 811.944 784.649 810.323 800.37 808.819C805.458 808.33 810.515 807.574 815.603 807.042C816.921 806.906 817.329 806.448 817.317 805.13C817.255 796.619 818.927 788.257 819.62 779.815C820.294 771.608 820.498 763.37 820.3 755.126C820.133 748.138 820.3 741.181 821.513 734.261C822.163 730.572 823.451 729.155 827.746 729.062C838.801 728.815 849.712 727.137 860.661 725.881C871.579 724.631 882.46 723.052 893.354 721.629C893.96 721.548 894.598 721.548 895.211 721.604C896.547 721.734 898.62 720.942 898.837 722.867C899.023 724.538 896.869 724.761 895.637 725.15C889.782 726.976 883.661 727.521 877.62 728.35C870.453 729.341 863.255 730.17 856.044 730.74C847.144 731.445 838.249 732.602 829.287 732.095C827.275 731.984 826.533 732.312 826.409 734.633C825.741 747.426 825.19 760.238 823.871 772.97C823.036 781.047 820.944 789 819.391 797.003C818.945 799.305 818.493 801.614 817.936 803.892C817.453 805.854 817.788 806.751 820.109 806.467C826.31 805.699 832.537 805.136 838.745 804.412C846.865 803.465 854.986 802.518 863.087 801.422C871.802 800.246 880.529 799.076 889.188 797.572C895.34 796.502 896.788 793.71 895.637 787.255C895.08 784.148 894.901 780.966 894.585 777.816C894.449 776.448 894.548 775.161 895.935 774.307C897.34 773.44 896.968 771.911 896.949 770.655C896.782 757.756 898.317 744.975 899.691 732.2C901.375 716.535 904.432 701.068 907.595 685.638C911.352 667.305 915.029 648.959 918.916 630.657C921.484 618.563 924.244 606.5 927.178 594.487C927.865 591.664 926.9 590.73 924.554 589.956C920.927 588.755 917.275 587.375 915.344 583.742C913.784 580.808 912.355 577.72 912.949 574.247C913.215 572.694 912.113 572.131 911.259 571.691C907.397 569.717 907.075 566.306 907.62 562.723C908.592 556.298 909.495 549.855 911.111 543.536C911.358 542.558 912.138 540.707 910.671 540.404C909.142 540.088 907.193 541.023 907.026 542.88C906.079 553.272 902.136 562.952 900.088 573.084C898.485 581 897.55 589.089 894.579 596.696C894.139 597.829 893.774 599.017 893.131 600.032C892.629 600.818 892.716 602.514 890.927 601.877C889.467 601.357 888.78 600.398 889.002 598.832C889.423 595.91 889.72 592.97 890.271 590.08C891.701 582.597 892.134 574.953 893.948 567.526C896.157 558.452 899.432 549.719 902.737 541.017C903.801 538.213 906.698 537.551 909.477 537.798C911.625 537.99 912.454 537.315 912.881 535.205C914.069 529.331 915.561 523.519 916.793 517.658C917.04 516.488 917.467 515.25 915.852 514.093C913.778 512.614 915.084 510.045 915.152 508.009C915.208 506.418 917.053 506.356 918.321 506.251C919.46 506.158 919.745 505.781 920.018 504.648C921.398 498.83 922.951 493.049 924.498 487.268C924.628 486.785 925.117 486.166 924.579 485.931C921.93 484.774 922.066 482.719 921.886 480.218C921.701 477.569 922.834 477.427 924.48 477.848C926.653 478.399 927.24 477.805 927.575 475.626C927.996 472.859 929.128 470.204 929.833 467.468C930.31 465.624 931.957 463.569 928.967 462.146C928.243 461.799 928.552 454.106 929.128 453.474C929.964 452.558 931.078 452.998 932.049 453.016C933.64 453.041 934.377 452.738 935.058 450.906C940.306 436.782 945.827 422.75 953.947 409.944C957.494 404.361 961.554 399.224 967.911 396.6C969.254 396.043 969.278 395.059 969.396 394.056C969.835 390.405 970.9 386.957 972.726 383.782C973.19 382.977 973.122 382.228 973.172 381.43C973.388 377.927 972.8 374.516 971.927 371.143C971.216 368.389 966.729 364.762 963.919 364.403C961.957 364.149 962.433 366.848 960.421 366.761C959.939 366.006 960.254 364.991 960.211 364.05C960.186 363.518 960.706 362.763 959.66 362.651C959.171 362.596 958.769 362.589 958.317 363.054C957.197 364.211 952.431 364.31 950.97 363.047C949.367 361.655 948.303 359.86 949.603 357.644C950.797 355.608 950.32 353.429 950.289 351.269C950.227 346.64 954.814 342.697 959.307 343.563C960.966 343.879 961.703 345.086 961.412 346.776C961.041 348.917 962.427 349.288 964.042 349.629C966.209 350.093 965.688 348.23 966.047 347.308C966.809 345.358 966.642 343.186 965.039 341.911C962.526 339.912 962.773 337.906 963.776 335.276C964.902 332.305 964.253 331.686 961.133 331.971L961.145 331.94ZM366.935 832.035C370.723 831.057 372.029 828.915 371.713 824.787C371.205 818.152 371.614 817.954 364.986 816.277C353.121 813.281 341.577 809.45 330.566 804.046C328.152 802.864 325.578 802.016 323.077 801.02C323.275 801.985 323.715 802.4 324.222 802.703C325.274 803.335 326.327 803.978 327.435 804.504C333.971 807.618 340.865 810.428 339.243 819.835C339.126 820.529 339.287 821.271 339.324 821.989C339.974 834.424 337.381 846.413 334.199 858.302C333.834 859.664 333.859 860.264 335.084 861.001C342.957 865.736 350.056 871.449 356.363 878.133C357.898 879.761 359.502 880.101 361.847 879.736C365.561 879.161 369.405 879.383 373.199 879.334C374.269 879.322 375.253 879.569 375.241 881.042C375.235 882.262 374.777 882.825 373.546 883.171C369.931 884.186 366.279 884.991 362.615 885.808C359.335 886.538 356.426 886.365 353.591 884.36C348.745 880.937 343.805 877.638 338.866 874.352C334.032 871.133 329.49 867.395 323.826 865.581C320.014 864.356 317.99 865.006 315.625 868.038C314.109 869.982 312.438 871.814 310.785 873.64C305.747 879.198 300.678 884.737 295.578 890.339C298.251 891.484 300.913 892.505 303.475 893.743C308.786 896.311 313.614 899.604 317.853 903.726C318.348 904.209 318.998 904.871 318.639 905.589C318.342 906.177 317.686 905.961 317.043 905.676C310.34 902.699 303.327 900.328 297.02 896.565C293.498 894.461 291.221 893.724 287.519 896.992C280.036 903.596 270.715 907.335 261.474 910.968C254.258 913.803 247.431 917.157 242.727 923.737C240.338 927.073 240.375 927.952 242.838 931.096C249.275 939.309 257.649 941.803 267.682 940.039C277.041 938.393 286.096 935.632 295.163 932.872C307.647 929.072 320.107 925.178 333.005 922.981C335.858 922.498 339.906 921.558 341.348 923.161C343.675 925.754 345.613 924.881 347.971 924.628C358.877 923.47 369.795 922.461 380.663 920.939C382.52 920.679 382.767 919.949 382.588 918.296C382.117 913.908 381.468 909.489 381.579 905.1C381.759 897.84 382.408 890.586 383.795 883.419C384.111 881.791 384.42 879.823 382.031 879.668C379.289 879.489 378.354 877.712 377.816 875.583C376.157 869.029 375.6 862.295 374.647 855.622C373.972 850.937 373.774 846.165 372.586 841.529C370.469 842.142 369.238 844.698 366.712 843.429C367.876 841.406 369.757 840.434 371.422 839.295C373.626 837.779 372.072 835.872 371.998 834.288C371.936 832.957 369.918 833.421 369.157 833.749C367.065 834.659 366.91 833.638 366.954 832.066H366.935V832.035ZM918.012 562.351C918.86 560.841 920.061 560.575 921.521 560.637C927.847 560.922 934.012 562.141 940.133 563.676C941.631 564.054 943.382 564.864 943.549 562.141C943.586 561.541 944.051 561.2 944.632 561.374C945.468 561.615 944.917 562.178 944.8 562.599C944.286 564.369 945.084 565.106 946.737 565.663C949.727 566.665 952.716 567.773 954.721 570.484C955.779 571.92 956.269 570.819 956.925 569.983C960.007 566.034 961.201 561.268 962.637 556.645C965.336 547.955 967.508 539.11 970.43 530.482C974.199 519.341 978.21 508.256 979.627 496.41C979.237 496.367 978.828 496.28 978.426 496.286C969.223 496.484 962.643 491.514 957.432 484.786C951.286 476.852 952.858 468.49 957.085 460.066C961.573 451.135 968.567 446.61 980.5 448.572C982.901 448.968 984.938 450.274 987.444 451.029C987.085 448.585 987.896 446.536 988.076 444.394C988.664 437.481 989.505 430.586 989.988 423.666C990.483 416.536 992.538 409.177 985.111 403.613C981.886 401.199 977.188 398.816 973.289 400.208C968.492 401.923 965.398 405.655 962.699 409.691C960.013 413.708 958.082 418.121 956.114 422.54C951.979 431.824 948.544 441.355 945.053 450.881C944.446 452.533 944.898 453.134 946.644 452.96C948.222 452.806 949.132 453.796 948.835 455.195C948.185 458.252 947.498 461.322 945.957 464.114C945.22 465.451 944.626 465.364 943.754 464.2C943.388 463.718 943.976 462.331 942.417 462.764C941.377 463.055 941.203 463.755 941.005 464.541C939.922 468.799 938.944 473.082 937.719 477.297C937.372 478.492 937.626 478.944 938.592 479.383C940.43 480.225 940.913 481.722 940.089 483.431C939.26 485.139 939.699 488.135 936.332 487.596C935.107 487.398 934.94 488.098 934.686 489.156C933.405 494.504 931.969 499.808 930.564 505.23C931.685 505.533 932.86 505.787 933.987 506.177C935.416 506.672 936.561 507.941 935.435 509.123C933.058 511.611 932.836 516.024 928.559 516.816C927.593 516.996 927.587 517.961 927.407 518.784C925.804 526.243 924.145 533.695 922.536 541.153C921.014 548.209 919.522 555.277 918.018 562.339L918.012 562.351ZM177.082 615.165C171.178 617.115 171.153 617.251 166.443 616.329C153.915 613.878 146.203 605.095 146.927 591.392C147.175 586.663 145.671 583.699 141.58 581.836C140.732 581.446 140.088 581.006 140.101 580.103C140.119 579.007 141.134 579.019 141.902 578.778C146.915 577.2 149.608 573.56 149.954 568.337C150.189 564.821 148.549 561.801 147.843 558.539C147.416 556.558 146.5 554.503 148.989 552.764C150.443 551.743 150.437 550.183 148.24 549.063C141.209 545.479 133.763 542.731 127.06 538.491C123.47 536.22 119.837 534.017 116.049 531.671C115.708 541.574 114.396 551.068 115.281 560.625C115.337 561.213 115.752 562.302 114.675 562.345C113.282 562.395 113.146 560.897 113.041 560.086C111.828 550.709 110.887 541.308 112.143 531.85C112.403 529.87 112.044 528.539 110.361 527.097C103.299 521.062 97.2022 514.204 93.3462 505.57C91.6874 501.863 89.9916 498.137 87.4663 494.881C86.0056 493.006 84.1054 491.916 81.8339 492.702C79.1539 493.637 76.5977 494.931 75.0752 497.642C71.8691 503.348 72.7355 509.606 73.6454 515.393C75.6384 528.087 79.8657 540.348 84.7491 552.145C93.5442 573.368 107.148 591.182 126.589 603.95C131.033 606.872 134.215 610.548 135.644 615.45C137 620.092 138.788 624.517 140.701 628.912C141.809 631.462 143.257 633.758 145.943 635.083C147.256 635.726 148.085 636.042 149.304 634.81C151.483 632.607 154.188 631.128 157.016 629.822C162.327 627.365 167.507 624.635 172.483 621.534C174.792 620.092 176.723 618.378 177.095 615.165H177.082ZM155.853 557.097C157.437 566.053 155.729 573.82 148.035 579.397C146.822 580.276 146.692 580.709 147.751 581.619C151.885 585.165 152.876 589.888 153.16 595.062C153.377 598.986 154.596 602.582 158.149 605.108C164.221 609.422 170.719 608.283 177.268 606.989C177.559 606.934 177.738 606.401 178.011 606.135C183.463 600.695 189.121 595.489 195.83 591.602C197.055 590.891 197.334 590.327 197.099 588.898C195.273 577.744 193.038 566.634 193.305 555.24C193.36 552.845 191.869 553.983 190.804 554.293C182.256 556.756 173.536 557.914 164.654 557.456C161.695 557.307 158.768 556.632 155.853 557.097ZM958.93 291.814C959.128 294.079 958.466 295.713 958.057 297.403C956.176 305.171 953.855 312.802 951.175 320.328C950.81 321.35 950.487 321.913 951.861 322.371C960.694 325.292 969.024 329.637 978.166 331.705C980.685 332.274 982.319 331.29 982.474 328.765C982.944 321.09 985.08 313.786 987.444 306.557C988.305 303.933 987.673 302.881 985.247 301.711C976.91 297.706 967.936 295.497 958.936 291.814H958.93ZM958.305 474.53C958.218 482.249 964.141 489.459 971.606 492.344C977.424 494.59 980.642 492.789 981.49 487.72C981.768 486.061 981.187 485.894 979.807 485.715C976.997 485.35 974.113 485.145 971.495 483.907C967.409 481.976 964.668 478.77 963.368 474.493C962.768 472.531 963.844 470.681 965.577 469.845C967.706 468.818 967.948 471.046 968.616 472.265C971.055 476.734 974.206 480.045 979.59 481.116C982.301 481.654 982.796 480.8 983.106 478.628C984.133 471.479 985.018 464.299 986.411 457.225C986.918 454.663 986.336 453.524 984.084 452.942C982.895 452.632 981.663 452.422 980.438 452.36C966.852 451.611 959.666 463.043 958.311 474.537L958.305 474.53ZM456.736 541.295C457.157 540.299 456.718 539.686 456.117 539.036C448.56 530.767 440.558 522.962 432.276 515.393C424.007 507.835 415.262 500.804 407.408 492.795C405.179 490.518 402.957 488.227 400.339 486.358C395.802 483.121 395.059 483.047 390.578 486.259C388.982 487.404 387.521 487.739 385.472 487.274C381.579 486.396 377.952 484.662 373.978 484.05C364.991 482.669 355.943 482.496 346.987 483.567C334.973 484.997 327.168 492.374 322.093 502.995C320.657 506.003 319.178 508.987 317.717 511.982C318.466 511.797 318.726 511.376 318.98 510.955C322.211 505.564 325.231 500 329.242 495.154C333.754 489.701 339.857 486.761 346.832 485.783C354.909 484.65 363.03 484.65 371.07 485.981C378.813 487.256 386.388 489.335 393.995 491.267C400.685 492.969 407.036 494.442 412.427 499.888C419.167 506.703 427.052 512.409 433.873 519.255C441.331 526.744 448.542 534.505 456.724 541.295H456.736ZM330.511 835.389C331.817 831.688 331.42 828.142 331.878 824.7C332.188 822.373 331.823 819.966 332.039 817.62C332.25 815.342 330.579 815.385 329.298 815.237C327.453 815.02 328.307 816.617 328.257 817.391C328.115 819.749 328.189 822.119 328.121 824.477C328.097 825.387 328.202 826.78 327.435 827.034C323.542 828.327 325.417 831.577 324.309 834.164C326.902 833.508 329.075 832.45 330.505 835.389H330.511ZM982.938 382.81C982.907 382.73 982.691 382.358 982.629 381.962C981.595 375.395 978.011 369.887 974.892 364.267C973.363 361.519 971.185 358.678 967.428 358.356C966.487 358.276 965.243 356.889 964.612 358.715C964.098 360.194 965.553 360.386 966.339 360.733C970.888 362.726 973.704 366.464 976.254 370.444C978.767 374.362 979.255 379.016 980.592 383.355C980.772 383.937 980.32 385.038 981.589 384.71C982.338 384.518 983.291 384.327 982.938 382.81ZM932.712 571.939C931.82 571.654 931.035 571.852 930.62 572.706C930.187 573.591 930.725 574.272 931.356 574.854C933.776 577.076 936.481 578.883 939.409 580.356C940.436 580.876 940.702 580.585 941.104 579.341C942.163 576.08 940.374 574.557 937.96 573.455C936.32 572.706 934.469 572.428 932.718 571.939H932.712ZM989.103 400.023C989.295 397.027 989.425 395.016 989.543 393.004C989.592 392.1 989.425 391.562 988.552 392.515C987.884 393.245 987.308 392.608 986.646 392.478C984.609 392.076 982.579 392.199 980.592 392.917C980.085 393.103 979.541 393.27 979.541 393.84C979.541 394.409 980.066 394.619 980.586 394.805C983.52 395.864 986.516 396.804 989.103 400.029V400.023ZM951.93 355.639C949.281 359.328 949.819 362.361 954.684 363.171C955.247 363.264 956.089 363.518 956.306 362.825C956.454 362.36 956.071 361.24 955.811 361.209C952.766 360.788 952.536 358.269 951.93 355.645V355.639ZM940.04 570.33C941.631 573.48 943.809 573.87 946.279 573.703C944.441 572.712 942.602 571.716 940.04 570.33Z" fill="black"/>
<path d="M767.133 170.019C771.064 176.326 774.895 182.027 778.274 187.987C786.407 202.334 792.398 217.603 794.602 233.937C795.673 241.89 798.241 249.41 799.393 257.258C800.934 267.787 802.426 278.321 801.318 289.041C801.014 291.962 801.181 295.063 801.844 297.916C802.815 302.113 801.881 306.018 801.119 310.017C801.008 310.605 801.033 311.007 800.241 311.335C795.357 313.371 790.201 314.182 785.033 314.894C780.502 315.519 779.816 315.012 778.77 310.37C777.829 306.198 777.043 301.989 775.997 297.824C775.768 302.583 776.566 307.256 777.705 311.799C778.355 314.38 777.606 315.234 775.372 315.705C774.703 315.847 774.09 316.243 773.057 316.701C776.789 318.595 780.379 320.118 783.387 322.693C784.241 323.423 785.844 323.126 787.175 322.47C789.458 321.349 794.757 324.036 795.432 326.511C795.525 326.852 795.469 327.378 795.252 327.632C794.875 328.077 794.268 327.953 793.841 327.669C786.872 322.897 780.317 326.988 773.961 329.024C759.595 333.623 747.934 342.734 736.948 352.767C730.183 358.944 723.35 365.04 717.012 371.669C715.675 373.062 714.152 374.386 713.212 376.02C711.596 378.824 709.282 378.942 706.441 378.477C709.003 369.769 715.836 364.304 721.66 358.071C721.27 357.842 721.122 357.724 720.955 357.656C719.649 357.099 717.272 357.161 717.885 355.193C718.207 354.159 720.336 355.212 721.555 355.738C722.948 356.338 723.981 356.028 725.083 355.007C731.167 349.356 737.542 344.046 744.14 339.002C752.997 332.224 762.777 327.353 773.924 324.655C770.371 321.938 766.626 320.557 762.554 319.802C760.975 319.511 758.864 320.074 758.264 317.407C757.973 316.101 756.674 317.258 755.962 317.592C753.177 318.892 750.373 320.031 747.291 320.526C744.97 320.904 744.431 320.056 744.747 317.958C744.914 316.862 744.777 315.717 744.777 314.399C743.738 315.253 744.208 316.169 744.196 316.936C744.146 320.904 741.943 322.847 737.858 322.395C736.156 322.204 734.336 321.467 733.16 323.961C734.169 312.79 734.986 302.088 734.572 291.325C734.609 299.885 733.018 308.339 732.925 316.899C732.894 319.561 732.739 322.265 732.213 324.865C731.637 327.718 729.143 329.105 726.797 330.349C720.119 333.895 712.977 336.26 705.407 338.444C707.833 329.235 709.987 320.18 709.226 310.741C708.947 319.276 707.066 327.502 704.553 335.61C703.619 338.624 697.831 341.737 694.848 340.896C693.573 340.537 694.303 339.955 694.489 339.305C695.182 336.916 696.729 334.817 696.804 332.119C694.699 337.696 692.663 343.266 685.112 342.622C687.056 331.042 690.466 319.332 692.02 307.145C686.722 312.598 680.513 316.608 673.47 318.812C668.543 320.353 666.216 322.723 665.399 327.966C664.334 334.787 660.33 340.704 657.662 347.042C657.13 348.304 655.521 349.833 657.056 351.207C658.684 352.655 660.54 352.111 662.496 351.219C668.562 348.465 673.662 344.17 679.418 340.945C679.944 340.648 680.433 340.27 680.978 340.029C681.882 339.627 682.909 338.525 683.738 339.243C684.586 339.973 684.178 341.36 683.924 342.461C683.837 342.851 683.534 343.204 683.503 343.588C683.447 344.232 682.544 344.919 683.46 345.513C684.24 346.02 684.314 344.881 684.846 344.789C685.329 344.702 685.824 344.696 686.449 344.931C680.668 348.774 675.568 353.559 669.137 356.363C668.202 356.771 667.231 357.105 666.346 357.594C661.537 360.225 656.721 359.043 651.986 357.508C650.024 356.87 649.257 355.032 649.728 353.027C649.913 352.228 650 351.424 650.148 350.631C650.396 349.288 652.03 347.914 651.021 346.757C650.179 345.785 648.156 347.376 647.351 346.942C644.702 345.5 641.774 345.278 639.026 344.368C638.067 344.046 637.052 343.823 636.167 343.365C632.49 341.471 629.705 341.929 627.433 345.76C625.836 348.459 623.41 346.775 621.473 345.896C620.421 345.42 619.245 344.461 619.127 343.173C618.576 337.318 615.011 335.833 609.744 336.024C607.076 336.123 605.09 334.106 603.252 332.292C594.729 323.85 592.661 313.928 596.177 302.552C599.228 292.668 602.243 282.746 603.542 272.441C604.019 268.684 603.499 264.84 604.248 261.077C604.396 260.335 604.384 259.58 603.27 259.152C600.225 257.976 599.303 254.999 599.47 252.381C599.81 247.015 598.238 242.051 597.322 236.939C596.066 229.901 596.474 222.864 597.273 215.808C597.799 211.129 598.727 206.53 599.816 201.616C593.614 201.399 588.298 203.64 583.322 206.865C575.047 212.218 570.448 220.141 567.619 229.369C563.076 244.193 560.477 259.295 559.493 274.793C558.465 290.916 557.524 307.046 556.503 323.175C555.284 342.486 553.322 361.704 549.162 380.637C548.482 383.726 547.535 386.765 546.594 389.785C546.217 391.005 545.709 392.28 544.112 392.942C543.87 387.167 544.972 381.739 545.783 376.274C546.78 369.515 547.838 362.75 548.537 355.96C549.497 346.583 550.159 337.176 550.927 327.78C551.255 323.782 551.242 319.765 551.521 315.754C552.4 303.345 552.74 290.898 553.6 278.488C554.857 260.359 556.441 242.286 562.767 224.993C567.545 211.94 575.028 201.678 589.152 197.865C592.983 196.832 597.031 195.581 600.077 200.49C602.385 193.403 604.669 187.022 607.584 180.857C612.158 171.164 618.75 163.149 627.037 156.545C641.954 144.655 658.931 136.863 677.363 132.252C692.162 128.551 706.862 129.621 721.388 133.935C729.484 136.343 737.394 139.153 743.998 144.748C745.366 145.905 746.597 147.267 747.39 148.678C750.565 154.298 756.742 156.848 760.437 161.899C762.12 164.201 763.717 167.414 766.026 168.181C768.285 168.93 771.398 167.067 774.146 166.392C792.652 161.849 811.282 157.888 830.079 154.824C839.048 153.364 848.103 152.33 857.164 151.389C874.989 149.545 892.215 151.928 908.629 158.588C921.534 163.824 930.582 173.133 932.315 187.832C933.671 199.314 932.934 210.851 933.033 222.363C933.194 240.82 930.861 259.091 928.726 277.393C926.974 292.42 925.26 307.436 923.007 322.402C920.24 340.803 916.52 359.012 912.472 377.171C909.136 392.131 906.017 407.122 900.991 421.654C896.436 434.838 891.509 447.872 885.976 460.678C884.026 465.19 882.726 470 879.848 474.091C879.335 474.821 879.019 476.108 877.911 475.681C876.636 475.186 877.311 473.998 877.521 473.039C881.105 456.785 886.366 441.033 891.881 425.368C898.367 406.93 902.458 387.854 906.97 368.89C910.133 355.601 913.333 342.313 915.443 328.826C917.51 315.618 919.59 302.404 920.63 289.047C921.305 280.382 922.79 271.779 923.477 263.12C923.923 257.506 924.276 251.88 924.926 246.291C926.399 233.609 926.102 220.846 926.851 208.134C927.08 204.247 927.692 200.384 927.965 196.497C929.029 181.259 917.702 168.237 904.971 163.898C891.187 159.206 877.02 156.935 862.469 157.876C852.553 158.519 842.706 159.912 832.846 161.23C820.826 162.84 808.955 165.266 796.966 167.042C789.403 168.162 781.858 169.357 774.313 170.607C772.017 170.991 769.844 170.193 767.109 170.044L767.133 170.019ZM649.418 237.849C647.71 241.309 646.695 244.496 644.219 246.805C642.337 248.562 639.936 248.197 637.757 247.931C636.433 247.77 637.014 246.148 637.151 245.282C638.209 238.604 638.382 231.795 639.917 225.185C640.103 224.393 640.413 223.539 639.131 223.174C637.225 230.657 635.226 238.102 634.625 245.833C634.458 247.968 633.592 249.175 631.246 249.348C627.78 249.608 624.332 250.11 620.885 250.599C617.134 251.131 615.754 252.616 615.451 256.2C615.29 258.106 616.825 259.326 617.333 260.991C619.524 268.245 620.607 275.734 622.265 283.099C624.797 294.382 629.11 304.372 640.332 309.831C646.676 312.919 653.02 315.915 660.324 314.498C672.127 312.208 681.98 306.693 688.832 296.518C690.218 294.457 691.716 293.652 693.963 295.806C693.901 292.792 695.077 290.266 694.557 287.555C692.304 275.864 691.673 263.974 690.28 252.177C689.735 247.554 688.529 242.893 686.381 238.845C685.223 236.654 683.534 234.902 684.048 231.981C682.934 233.436 684.92 235.614 682.265 236.295C677.839 237.434 673.495 238.882 669.051 239.928C666.68 240.485 664.39 240.646 662.886 237.62C661.184 234.197 658.764 231.133 656.66 227.909C658.275 232.65 660.714 236.926 663.505 241.067C658.17 242.683 653.051 243.747 649.399 237.849H649.418ZM625.236 303.505C628.219 314.399 631.147 325.267 633.109 336.365C632.867 324.846 630.287 313.873 625.236 303.505ZM721.215 145.342C722.292 145.033 724.093 146.147 724.687 143.82C724.965 142.718 725.182 141.821 724.155 141.109C722.36 139.871 720.323 139.19 718.176 139.19C716.449 139.19 715.421 140.347 715.118 142.019C714.796 143.789 715.644 144.507 717.389 144.89C718.603 145.163 719.779 145.305 721.221 145.336L721.215 145.342ZM724.699 217.646C728.97 231.907 731.731 246.557 736.02 260.811C732.671 246.309 730.932 231.393 724.699 217.646ZM613.854 305.851C613.105 307.541 614.367 309.262 614.021 310.889C612.746 316.961 614.169 322.866 614.819 328.82C614.906 329.631 615.123 330.386 616.026 330.194C616.936 330.002 616.274 329.204 616.305 328.672C616.713 320.929 615.779 313.328 613.854 305.857V305.851ZM703.414 145.355C702.734 145.93 701.297 145.565 700.493 146.698C699.985 147.41 700.511 147.96 701 148.22C703.241 149.396 705.494 150.597 707.839 151.525C708.619 151.835 710.055 151.724 709.789 150.108C709.529 148.536 705.345 145.299 703.414 145.355ZM714.753 261.145C714.066 272.843 713.744 284.56 712.321 296.202C715.137 284.665 715.489 272.942 714.753 261.145ZM693.48 145.355C692.824 145.577 691.982 145.998 692.31 147.18C693.084 150.009 694.923 151.996 697.534 153.246C698.24 153.586 698.884 153.457 699.038 152.398C699.28 150.739 695.387 145.404 693.487 145.355H693.48ZM618.359 228.849C620.464 221.645 622.568 214.44 624.673 207.242C620.755 213.927 619.09 221.255 618.359 228.849ZM742.884 194.195C739.77 188.693 736.663 183.184 733.55 177.682C735.376 183.945 739.127 189.145 742.884 194.195ZM684.178 151.414C684.165 150.219 683.323 148.907 681.559 148.474C680.55 148.226 680.117 148.876 680.346 149.978C680.724 151.822 681.058 153.846 683.187 154.249C684.122 154.428 684.134 152.949 684.178 151.414ZM707.134 143.801C708.65 146.122 710.934 146.753 713.23 147.081C714.091 147.205 714.617 146.425 713.725 145.478C711.986 143.634 709.981 142.86 707.134 143.801ZM639.819 336.872C639.67 332.825 639.267 328.74 637.256 325.075C636.996 325.144 636.73 325.212 636.47 325.274C637.584 329.136 638.704 333.004 639.819 336.872ZM666.321 148.92C662.799 151.191 660.423 154.496 658.547 158.21L666.321 148.92ZM671.106 153.97C672.071 152.231 673.798 150.907 673.748 148.517C670.685 150.727 670.518 151.061 671.106 153.97ZM676.744 151.377C676.546 150.82 677.153 149.693 675.977 149.792C674.962 149.879 674.46 150.894 674.454 151.835C674.454 152.59 674.627 153.673 675.723 153.586C677.091 153.475 676.651 152.262 676.744 151.377Z" fill="black"/>
<path d="M804.543 483.591C803.676 484.724 803.181 486.599 801.083 484.965C800.668 484.644 799.554 485.058 798.83 485.318C789.075 488.803 778.993 490.047 768.706 489.41C764.689 489.156 760.648 488.5 756.854 486.965C755.579 486.451 753.716 485.937 755.87 484.124C756.068 483.957 756.303 483.48 756.29 483.468C753.617 481.586 755.894 478.201 754.038 476.071C753.45 475.397 753.92 474.902 754.539 474.704C755.869 474.27 757.113 473.695 758.673 474.332C761.297 475.403 764.058 476.127 766.75 477.031C768.576 477.644 769.734 477.594 770.216 475.186C771.473 468.923 773.095 462.739 774.444 456.494C776.728 445.96 779.154 435.444 781.073 424.842C782.416 417.427 783.301 409.926 783.852 402.375C784.91 387.817 785.876 373.254 785.554 358.659C785.35 349.443 784.526 340.215 779.952 331.859C779.172 330.435 779.346 329.786 781.048 329.73C781.432 329.718 781.791 329.402 782.181 329.284C785.552 328.269 788.069 329.328 789.732 332.459C790.109 333.177 790.27 334.186 791.291 334.106C792.294 334.025 792.263 333.004 792.554 332.261C793.68 329.389 795.747 328.777 798.415 330.429C800.086 331.463 801.411 332.763 802.5 334.471C804.134 337.033 803.75 339.311 802.048 341.49C800.699 343.21 797.803 343.328 794.634 341.824C797.382 341.576 799.387 340.512 799.783 337.974C800.123 335.833 799.307 333.957 797.004 332.658C796.757 335.177 795.333 336.322 792.968 336.074C791.409 335.913 791.044 336.192 791.471 337.894C792.51 342.059 793.216 346.342 792.968 350.638C792.807 353.398 794.207 353.986 796.36 354.135C798.997 354.314 801.634 354.475 804.277 354.611C805.335 354.667 806.319 354.766 806.703 356.35C802.568 355.032 798.415 356.579 794.46 355.212C793.68 354.939 793.067 355.342 793.098 356.319C793.111 356.728 793.068 357.143 793.061 357.557C792.845 370.215 792.752 382.872 792.38 395.523C792.12 404.33 790.647 413.045 789.174 421.698C786.68 436.329 783.14 450.757 778.813 464.968C777.637 468.842 776.468 472.741 774.499 476.325C773.676 477.823 773.732 478.782 775.768 478.962C783.239 479.618 790.641 479.185 797.994 477.743C798.873 477.569 799.213 477.328 799.238 476.424C799.356 472.902 801.875 471.937 804.734 471.535C809.116 470.916 813.703 474.326 814.606 478.758C815.163 481.487 811.79 485.807 808.219 486.822C806.999 487.169 805.731 487.367 805.477 485.448C805.39 484.792 804.846 484.198 804.512 483.579C805.843 483.109 806.43 485.281 807.823 484.526C810.515 483.078 811.462 480.175 810.249 477.514C808.634 473.986 806.833 476.882 804.945 477.291C806.728 479.568 807.223 481.728 804.512 483.598L804.543 483.591ZM775.694 486.494C779.667 486.148 783.635 485.795 787.608 485.467C789.267 485.331 789.471 484.291 789.366 482.905C789.236 481.178 788.06 481.988 787.336 482.056C780.404 482.744 773.49 483.282 766.62 481.475C765.24 481.11 765.154 482.193 765.234 483.183C765.321 484.291 764.696 485.863 766.806 485.758C769.789 485.609 772.686 486.717 775.7 486.488L775.694 486.494ZM794.2 484.507C796.732 483.944 798.954 483.443 801.169 482.948C803.144 482.508 802.259 480.676 802.791 479.538C802.958 479.185 802.816 478.293 802.153 478.442C799.82 478.974 797.387 479.383 795.271 480.41C794.157 480.955 794.652 482.88 794.2 484.501V484.507ZM763.129 484.965C762.907 483.87 762.882 482.812 762.981 481.728C763.197 479.463 760.902 480.447 759.918 479.661C759.559 479.37 758.661 478.399 757.838 479.507C756.389 481.438 757.33 484.062 759.713 484.501C760.784 484.699 761.879 484.798 763.129 484.965Z" fill="black"/>
<path d="M436.899 709.182C447.341 708.674 460.338 709.169 473.243 710.03C493.062 711.348 512.886 711.422 532.711 711.942C543.109 712.215 553.495 712.289 563.893 712.307C567.6 712.314 568.894 713.514 569.927 717.092C570.534 719.184 569.699 719.45 567.91 719.759C549.812 722.891 531.615 720.62 513.468 720.861C492.684 721.14 471.987 718.732 451.191 718.874C436.206 718.98 421.21 718.237 406.225 717.754C403.062 717.649 399.924 716.999 396.762 716.652C395.053 716.467 394.026 715.452 393.976 713.898C393.933 712.376 395.313 711.509 396.594 711.224C399.379 710.605 402.208 710.123 405.049 709.856C414.797 708.934 424.583 709.225 436.899 709.188V709.182Z" fill="black"/>
<path d="M265.658 285.018C276.149 289.035 284.585 295.608 292.174 303.369C295.98 307.269 299.013 311.762 301.52 316.596C302.027 317.574 302.151 318.738 302.553 319.777C303.179 321.405 301.879 322.012 300.981 322.73C299.675 323.77 299.223 322.414 298.635 321.684C289.512 310.314 278.155 301.345 266.711 291.628C282.295 321.814 301.656 349.313 314.703 380.829C312.469 380.563 311.88 379.554 311.212 378.552C299.972 361.642 288.664 344.789 278.662 327.081C274.026 318.874 268.902 310.927 264.396 302.639C261.567 297.44 258.881 292.148 258.243 286.089C258.052 284.281 257.841 282.734 260.373 283.91C261.4 284.387 261.666 283.594 262.131 283.204C264.501 281.205 267.237 279.819 269.985 278.457C274.831 276.056 279.43 276.73 283.892 279.565C290.533 283.786 295.188 289.957 300.04 295.936C302.101 298.48 304.107 301.073 306.124 303.654C306.576 304.236 307.604 304.688 306.607 305.653C305.883 306.353 305.202 306.266 304.391 305.759C300.542 303.357 297.249 300.244 293.77 297.378C288.534 293.064 283.279 288.793 277.628 285.012C273.766 282.425 269.954 281.967 265.665 285.012L265.658 285.018Z" fill="black"/>
<path d="M639.057 776.207C636.934 759.953 636.656 743.675 636.587 727.379C636.513 709.052 636.29 690.725 635.863 672.405C635.405 652.592 634.91 632.774 633.932 612.987C632.7 588.013 631.085 563.057 631.574 538.033C631.673 533.125 632.206 528.242 633.456 523.47C633.635 522.789 633.833 521.991 634.304 521.533C635.282 520.567 636.191 518.834 637.72 519.385C639.026 519.855 638.296 521.564 638.296 522.696C638.346 535.372 637.912 548.073 638.432 560.73C639.354 583.129 639.546 605.541 639.917 627.946C640.32 652.339 639.8 676.743 640.295 701.136C640.691 720.762 640.518 740.37 640.134 759.984C640.029 765.4 639.429 770.803 639.051 776.213L639.057 776.207Z" fill="black"/>
<path d="M438.379 236.679C429.627 238.195 421.395 240.423 413.399 243.512C395.548 250.407 379.543 260.52 364.174 271.748C349.499 282.474 335.499 294.029 321.815 305.987C317.488 309.769 313.044 313.427 308.743 317.233C307.461 318.366 306.298 318.725 304.93 317.661C303.364 316.441 304.527 315.185 305.146 314.157C307.053 310.988 309.435 308.172 312.004 305.498C332.033 284.628 355.163 267.706 379.79 252.808C393.457 244.539 407.983 237.954 423.939 235.342C429.652 234.407 435.414 233.176 441.312 234.302C443.466 234.717 443.931 235.583 443.337 237.595C442.786 239.483 442.303 241.395 441.188 243.01C440.551 243.939 439.536 244.713 438.267 244.143C437.091 243.617 437.698 242.602 437.778 241.723C437.914 240.126 437.655 238.498 438.385 236.679H438.379Z" fill="black"/>
<path d="M550.648 416.288C550.395 417.223 550.896 418.275 549.924 418.665C549.206 418.95 548.581 418.362 547.987 417.947C542.058 413.8 537.923 407.988 533.838 402.226C520.654 383.639 509.118 363.982 496.776 344.851C488.68 332.292 479.241 320.749 470.743 308.513C463.922 298.696 457.907 288.354 451.909 278.024C451.501 277.318 450.968 276.538 450.962 275.783C450.95 274.397 450.869 272.633 452.089 271.847C453.531 270.912 454.496 272.435 455.369 273.388C461.131 279.701 465.427 287.054 469.927 294.24C478.524 307.968 488.959 320.421 497.593 334.1C507.577 349.913 517.058 366.037 526.98 381.888C533.609 392.478 541.16 402.455 548.624 412.476C549.521 413.676 550.63 414.809 550.654 416.288H550.648Z" fill="black"/>
<path d="M521.379 424.539C528.54 429.695 534.296 435.16 541.686 438.23C543.103 438.818 544.483 439.622 544.106 441.244C543.716 442.921 541.903 442.996 540.516 442.896C536.264 442.587 532.452 440.959 528.955 438.57C527.382 437.493 525.835 436.379 524.114 435.469C526.899 439.814 530.898 442.952 534.865 446.059C538.498 448.9 542.329 451.487 546.117 454.118C546.736 454.545 547.473 454.755 547.219 455.665C546.99 456.482 546.279 456.606 545.511 456.674C542.627 456.94 539.91 455.956 537.026 455.678C543.271 460.091 548.785 465.481 555.711 468.879C554.968 470.953 553.142 470.365 551.793 470.093C542.063 468.118 533.795 463.433 526.974 456.241C525.556 454.743 524.164 453.047 525.952 450.831C526.794 449.785 525.928 449.179 525.278 448.51C520.982 444.103 518.563 439.096 520.06 432.74C520.555 430.623 518.519 429.763 517.417 428.537C515.604 426.526 513.951 424.619 513.852 421.642C513.759 418.857 514.713 417.644 517.529 417.669C523.613 417.724 529.462 419.235 535.342 420.479C543.821 422.267 552.251 424.198 560.966 424.595C563.318 424.7 567.007 424.359 566.889 427.825C566.79 430.772 563.219 430.283 561.102 430.468C553.569 431.118 546.235 429.435 538.919 427.918C534.141 426.928 529.425 425.653 524.672 424.57C523.91 424.397 523.074 424.545 521.36 424.545L521.379 424.539Z" fill="black"/>
<path d="M310.395 321.108C310.432 319.66 311.286 319.326 311.93 318.892C324.68 310.289 338.055 302.825 351.932 296.153C365.4 289.672 379.215 284.145 393.308 279.293C406.368 274.799 419.607 270.894 433.254 268.604C438.924 267.65 444.686 267.582 450.442 267.886C451.637 267.947 452.979 268.177 452.949 269.501C452.918 270.77 451.581 271.191 450.38 271.203C436.436 271.302 423.215 275.183 410.05 279.132C393.147 284.201 376.727 290.613 360.671 297.941C349.277 303.14 338.018 308.612 326.884 314.349C322.248 316.738 317.407 318.744 312.629 320.86C312.023 321.127 311.256 321.021 310.395 321.108Z" fill="black"/>
<path d="M592.897 366.705C592.971 367.987 594.029 368.24 594.927 368.674C600.429 371.36 605.969 373.965 610.177 378.663C611.527 380.167 612.096 380.056 616.639 378.898C617.116 380.056 616.094 380.675 615.599 381.597C617.344 382.433 618.564 380.421 620.396 380.885C619.436 382.878 618.632 384.784 616.02 384.871C615.049 384.902 613.984 384.89 613.693 383.838C613.328 382.513 612.226 382.798 611.83 383.181C611.18 383.794 611.818 384.562 612.331 385.181C614.114 387.322 617.357 388.015 619.864 386.765C622.934 385.236 624.295 382.457 623.509 379.356C623.441 379.078 623.497 378.762 623.497 378.459C625.564 379.4 626.134 380.204 626.134 382.148C626.115 388.678 618.508 393.858 612.412 391.723C608.723 390.429 607.665 386.462 608.234 381.603C608.37 380.458 608.587 380.192 607.256 379.839C604.52 379.115 601.847 378.1 599.235 377.004C597.421 376.243 596.481 376.491 595.36 378.298C589.493 387.78 582.691 396.433 573.308 402.827C568.864 405.853 564.172 407.066 558.372 406.497C566.053 401.038 572.435 394.799 578.16 387.867C581.886 383.355 585.135 378.508 588.484 373.73C589.22 372.684 589.35 371.867 588.224 370.945C587.116 370.035 586.113 368.971 585.179 367.881C583.105 365.467 583.445 362.336 586.218 360.819C589.14 359.222 591.987 357.384 595.465 356.425C595.1 357.768 594.054 358.176 593.231 358.764C591.541 359.978 590.179 361.407 589.319 363.375C588.793 364.582 588.323 366.483 588.991 366.767C590.062 367.225 591.684 368.172 592.99 366.767L592.909 366.699L592.897 366.705Z" fill="black"/>
<path d="M710.959 474.339C710.779 475.069 710.352 475.174 709.95 475.168C702.331 475.094 694.711 475.484 687.086 474.871C680.556 474.345 674.058 473.794 667.572 472.822C654.097 470.798 640.802 468.106 627.681 464.374C618.106 461.65 609.119 457.887 600.683 452.577C594.252 448.523 589.938 442.637 586.59 436.268C583.18 429.775 578.135 426.216 571.599 423.778C567.136 422.113 562.934 419.767 559.189 416.753C558.713 416.369 557.747 415.905 558.23 415.069C558.62 414.395 559.455 414.506 560.167 414.797C568.077 418.052 575.987 421.296 583.891 424.557C586.874 425.789 588.762 428.011 590.167 430.933C591.844 434.417 593.862 437.747 595.899 441.046C598.579 445.385 602.18 448.739 606.519 451.537C617.753 458.785 630.213 462.808 643.018 465.915C661.815 470.476 681.009 471.912 700.27 472.872C703.798 473.045 707.567 472.711 710.953 474.345L710.959 474.339Z" fill="black"/>
<path d="M933.578 296.153C935.311 281.638 934.321 266.326 937.323 251.366C939.997 238.04 945.134 225.668 952.444 214.224C953.18 213.073 953.997 210.64 955.941 211.624C958.101 212.714 958.243 214.967 957.309 217.226C953.948 225.328 950.469 233.386 947.331 241.575C944.038 250.153 942.244 259.103 940.932 268.207C939.489 278.197 938.295 288.236 936.147 298.115C935.949 299.037 936.555 300.838 934.649 300.498C933.114 300.225 933.708 298.69 933.591 297.638C933.554 297.335 933.591 297.019 933.591 296.153H933.578Z" fill="black"/>
<path d="M892.871 336.786C895.415 341.187 895.018 345.736 894.17 350.081C889.206 375.383 880.442 399.509 871.245 423.499C866.646 435.5 862.629 447.706 860.519 460.437C860.29 461.836 860.488 463.303 860.29 464.733C859.683 459.286 860.816 453.963 861.423 448.591C863.905 426.643 872.972 406.602 879.508 385.831C883.444 373.328 888.111 361.048 890.562 348.106C891.28 344.318 892.097 340.555 892.871 336.78V336.786Z" fill="black"/>
<path d="M1014.63 255.086C1009.71 250.141 1004.69 245.294 999.898 240.225C993.318 233.268 986.745 226.318 979.572 219.949C972.12 213.326 963.114 209.631 954.077 205.905C952.239 205.15 950.983 205.262 949.114 206.054C944.769 207.904 940.244 209.637 935.305 208.474C934.748 208.344 933.875 208.69 933.727 207.935C933.56 207.094 934.117 206.338 934.884 205.979C936.729 205.113 938.629 204.37 940.474 203.516C942.238 202.705 944.255 202.136 945.629 200.879C947.257 199.388 948.742 199.425 950.624 199.815C968.598 203.566 982.338 213.815 993.968 227.556C1001.12 236.01 1007.83 244.805 1014.68 253.495C1014.91 253.792 1015.1 254.127 1015.32 254.442C1015.09 254.659 1014.86 254.869 1014.63 255.086H1014.63Z" fill="black"/>
<path d="M663.988 451.543C660.497 452.564 657.043 453.747 653.509 454.582C643.142 457.027 632.707 457.714 622.204 455.411C621.61 455.282 620.991 455.133 620.477 454.836C619.233 454.124 617.729 453.221 618.143 451.667C618.465 450.46 620.074 450.466 621.324 450.472C626.79 450.485 632.261 450.609 637.72 450.448C651.925 450.027 665.715 447.378 679.034 442.389C680.247 441.931 681.38 441.034 682.513 442.624C683.652 444.227 682.432 445.199 681.584 446.078C677.567 450.256 672.523 453.041 667.597 455.938C664.787 457.59 661.859 459.039 658.944 460.505C658.244 460.858 657.378 462.003 656.647 460.809C656.127 459.967 656.159 458.896 657 457.962C659.08 455.653 661.741 454.075 663.994 451.531L663.988 451.543Z" fill="black"/>
<path d="M554.777 667.868C554.56 660.255 554.783 652.654 555.445 645.078C555.916 639.706 556.59 634.346 557.401 629.011C557.568 627.922 557.432 626.071 559.233 625.867C561.09 625.656 563.702 628.225 564.055 630.366C564.742 634.557 564.29 638.771 563.881 642.918C562.872 653.081 561.523 663.213 560.353 673.364C559.87 677.542 559.493 681.726 559.072 685.91C558.961 687.03 558.602 687.952 557.277 687.989C555.965 688.026 555.612 687.185 555.377 686.046C554.133 680.011 555.166 673.915 554.783 667.868H554.777Z" fill="black"/>
<path d="M364.329 279.324C366.923 276.241 370.494 274.781 373.762 273.11C393.228 263.139 413.269 254.548 434.511 249.033C438.379 248.03 442.31 247.424 446.271 248.723C447.67 249.181 448.864 249.893 449.699 251.144C450.262 251.985 450.473 252.976 449.935 253.755C449.322 254.641 448.195 254.504 447.416 253.978C443.25 251.181 438.942 252.406 434.653 253.465C421.259 256.764 408.522 261.919 395.864 267.285C386.593 271.216 377.469 275.499 368.012 278.971C366.948 279.361 365.815 280.122 364.329 279.33V279.324Z" fill="black"/>
<path d="M904.797 255.197C904.618 244.273 904.766 234.122 903.918 223.99C903.281 216.316 903.157 208.604 902.6 200.923C902 192.728 901.195 184.546 900.403 176.363C900.193 174.166 899.864 172.074 901.882 170.421C903.163 169.369 903.85 169.363 904.581 171.04C906.32 175.026 906.958 179.266 907.539 183.5C909.464 197.451 908.282 211.364 907.026 225.297C906.221 234.203 905.849 243.153 905.261 252.078C905.212 252.87 905.032 253.656 904.797 255.203V255.197Z" fill="black"/>
<path d="M726.971 450.72C733.81 448.306 739.875 445.434 746.913 446.264C746.492 448.393 744.623 449.018 743.125 449.767C736.032 453.307 728.865 456.699 721.735 460.171C720.559 460.741 719.278 461.198 718.43 462.424C719.265 463.947 721.326 462.938 722.372 464.312C719.315 465.723 716.442 465.11 713.7 463.829C710.94 462.542 710.588 459.936 712.915 457.961C715.904 455.424 719.624 454.13 723.072 452.372C723.932 451.933 724.965 451.884 725.021 450.435C725.281 443.769 727.528 437.437 728.407 430.864C728.828 427.726 729.422 424.613 729.966 421.488C730.09 420.794 730.288 420.095 730.567 419.451C730.857 418.77 731.396 418.151 732.195 418.288C732.882 418.411 732.888 419.154 733.074 419.754C734.609 424.694 733.166 429.447 732.114 434.188C730.913 439.604 729.112 444.865 726.983 450.708L726.971 450.72Z" fill="black"/>
<path d="M592.977 366.773C596.684 361.785 600.175 356.592 605.467 353.039C612.288 348.459 619.969 347.809 627.792 348.633C630.825 348.954 633.907 348.719 636.934 349.518C638.518 349.938 640.06 350.285 641.545 351.121C640.487 352.488 639.076 351.981 637.832 352.024C630.683 352.241 623.515 352.334 616.62 354.556C610.425 356.555 606.464 361.209 602.992 366.39C601.952 367.937 603.734 367.869 604.192 368.042C607.033 369.144 609.818 370.332 612.56 371.669C615.847 373.266 618.576 375.457 620.668 378.614C612.343 372.418 602.174 370.654 592.902 366.712C592.896 366.712 592.977 366.78 592.977 366.78V366.773Z" fill="black"/>
<path d="M341.423 392.905C334.373 386.264 303.383 327.341 303.711 321.362C305.314 321.201 305.679 322.569 306.304 323.522C315.83 338.073 323.999 353.367 331.346 369.113C334.181 375.191 336.936 381.306 339.715 387.415C340.464 389.061 341.355 390.671 341.429 392.911L341.423 392.905Z" fill="black"/>
<path d="M341.008 337.17C342.642 340.877 343.805 343.687 345.117 346.435C345.798 347.859 345.674 349.338 344.523 350.012C343.174 350.805 342.19 349.282 341.676 348.298C338.904 342.963 335.939 337.696 333.989 331.989C333.605 330.869 332.844 329.253 334.899 328.325C337.065 327.347 337.022 329.383 337.715 330.194C340.655 333.673 344.548 335.839 348.243 338.327C346.299 334.502 343.905 330.999 342.289 327.093C341.825 325.967 340.773 324.456 342.506 323.59C344.102 322.792 344.604 324.506 345.216 325.428C348.683 330.671 352.347 335.814 354.315 341.892C354.606 342.789 355.064 343.712 354.067 344.38C353.207 344.962 352.57 344.058 351.889 343.755C348.287 342.133 344.938 340.048 341.014 337.17H341.008Z" fill="black"/>
<path d="M439.208 329.272C440.91 334.985 443.949 340.042 445.75 345.909C444.624 345.631 443.819 345.21 443.126 344.318C438.868 338.847 435.86 332.738 433.749 326.171C433.44 325.2 433.013 323.943 433.817 323.25C434.764 322.427 435.928 323.213 436.937 323.695C441.43 325.849 444.797 329.47 448.876 332.911C447.688 328.542 445.267 325.168 443.733 321.418C443.157 320.013 442.179 318.738 442.117 317.153C442.08 316.225 441.176 314.931 442.606 314.486C443.788 314.114 443.962 315.495 444.364 316.219C447.861 322.55 450.838 329.123 453.171 335.963C453.536 337.027 455.344 338.197 453.549 339.72C449.446 335.418 443.992 332.911 439.22 329.266L439.208 329.272Z" fill="black"/>
<path d="M730.134 411.126C730.623 408.762 731.137 406.404 731.601 404.033C731.96 402.195 732.195 400.264 731.359 398.568C730.047 395.913 730.914 393.548 732.021 391.246C735.556 383.912 740.253 377.376 746.003 371.607C747.451 370.153 749.921 368.191 751.06 369.218C752.514 370.536 750.088 372.468 749.135 374.015C745.186 380.446 740.637 386.505 737.177 393.245C734.683 398.098 733.754 403.482 731.768 408.502C731.409 409.412 731.105 410.346 730.784 411.269C730.573 411.219 730.356 411.176 730.146 411.126H730.134Z" fill="black"/>
<path d="M425.678 341.317C423.122 334.558 419.848 329.049 418.239 322.86C423.054 330.615 426.019 339.268 430.797 347.896C425.381 345.222 420.615 342.926 415.979 338.878C416.821 340.989 417.366 342.486 418.01 343.935C418.666 345.414 419.489 346.813 420.102 348.311C420.714 349.808 422.596 352 420.999 352.804C419.198 353.708 418.276 350.799 417.546 349.456C415.354 345.426 413.596 341.149 411.789 336.922C411.139 335.4 410.694 333.778 409.4 332.676C408.336 331.766 408.948 331.03 409.493 330.324C410.186 329.433 410.805 329.922 411.554 330.454C416.153 333.704 420.64 337.095 425.672 341.317H425.678Z" fill="black"/>
<path d="M403.273 328.418C409.4 336.687 414.414 345.457 416.481 355.763C411.294 350.737 405.489 346.627 399.25 341.49C401.496 347.339 404.27 352.018 405.477 357.316C400.265 351.176 398.631 343.204 394.812 336.186C401.162 337.832 405.39 342.796 410.88 346.454C408.918 339.986 404.381 334.911 403.279 328.424L403.273 328.418Z" fill="black"/>
<path d="M707.939 391.679C699.998 391.741 695.387 386.796 695.3 380.904C695.238 376.707 700.561 371.341 704.751 371.273C705.302 371.267 706.057 370.976 706.33 371.774C706.664 372.758 705.896 372.963 705.24 373.47C700.604 377.042 700.097 379.969 702.783 385.397C703.81 387.483 708.57 389.761 710.655 389.067C711.955 388.64 712.135 387.062 712.599 385.874C713.354 383.943 713.434 381.603 715.737 380.619C716.238 380.402 716.653 379.635 717.34 380.217C717.916 380.712 718.182 381.362 718.139 382.135C717.836 387.625 713.497 391.679 707.939 391.673V391.679Z" fill="black"/>
<path d="M364.763 371.075C364.8 376.231 363.475 377.753 359.923 377.407C358.604 377.277 357.825 376.59 357.224 375.661C353.424 369.843 349.945 363.858 347.334 357.372C346.572 355.484 347.136 354.63 348.745 354.141C351.369 353.342 355.281 351.925 356.358 354.413C358.19 358.634 362.33 361.085 363.605 365.542C364.175 367.522 364.943 369.41 364.757 371.069L364.763 371.075ZM360.61 373.724C362.937 373.743 362.906 373.749 362.38 371.601C361.662 368.698 360.269 366.142 358.375 363.871C357.831 363.215 357.336 361.828 356.017 362.998C355.015 363.889 354.037 364.638 355.089 366.272C356.296 368.141 357.255 370.178 358.184 372.201C358.735 373.396 359.452 373.984 360.61 373.718V373.724ZM353.263 363.171C354.717 361.085 355.163 358.969 355.949 357C356.438 355.781 355.925 354.921 354.544 355.113C352.644 355.373 350.533 354.32 348.887 355.979C348.8 356.066 349.203 356.679 349.413 357.019C350.639 359 351.883 360.968 353.263 363.171Z" fill="black"/>
<path d="M601.828 390.621C601.648 398.618 598.981 405.11 592.315 409.697C589.202 411.838 586.243 414.227 583.903 417.266C583.488 417.805 582.919 418.665 582.176 418.182C581.372 417.669 581.929 416.66 582.257 416.115C584.164 412.952 586.088 409.697 588.979 407.388C594.147 403.254 596.369 398.061 595.75 391.543C595.57 389.631 596.239 388.034 597.477 386.555C598.158 385.744 598.634 384.939 599.89 385.187C601.042 385.416 601.061 386.338 601.42 387.173C601.939 388.38 601.723 389.6 601.834 390.615L601.828 390.621Z" fill="black"/>
<path d="M482.825 365.863C479.885 368.649 476.635 370.53 473.405 372.387C464.411 377.555 455.078 381.987 444.983 384.599C443.46 384.995 441.053 385.638 440.545 384.246C439.834 382.302 442.433 381.863 443.763 381.312C456.359 376.088 468.744 370.363 481.612 365.802C481.872 365.709 482.2 365.826 482.825 365.863Z" fill="black"/>
<path d="M876.933 752.105C880.647 758.517 879.062 765.09 878.096 771.62C877.682 774.424 877.125 777.209 876.605 779.994C876.363 781.276 875.621 782.538 874.371 782.551C873.182 782.557 872.452 781.443 872.025 780.118C871.319 777.927 871.202 775.52 871.332 773.483C871.802 766.037 871.424 758.517 872.947 751.152C873.188 749.995 873.634 749.048 875.144 748.998C873.015 757.106 875.181 765.381 873.578 773.458C875.435 769.027 875.843 764.304 876.555 759.669C876.735 758.48 875.949 757.15 875.609 755.881C875.212 754.395 875.162 753.015 876.945 752.111L876.933 752.105Z" fill="black"/>
<path d="M374.796 329.551C374.214 326.573 374.969 323.534 374.108 320.663C373.892 319.932 373.564 318.676 374.56 318.181C375.576 317.673 376.244 318.657 376.863 319.313C379.537 322.148 382.179 325.001 384.835 327.848C385.051 327.669 385.268 327.496 385.484 327.316C383.962 321.678 382.446 316.039 380.886 310.258C383.572 310.822 383.875 313.062 384.494 314.838C385.899 318.855 387.063 322.959 388.294 327.038C388.542 327.861 389.502 328.864 388.536 329.551C387.602 330.219 386.432 329.879 385.417 329.198C383.541 327.941 381.641 326.734 380.118 325.026C379.159 323.949 378.181 322.891 376.758 321.337C376.108 325.577 377.265 328.851 378.237 332.181C378.484 333.029 379.747 334.087 378.484 334.917C377.141 335.802 376.473 334.347 375.749 333.617C371.311 329.13 367.752 323.999 364.497 318.651L365.177 318.094C368.383 321.913 371.59 325.732 374.796 329.551Z" fill="black"/>
<path d="M380.911 350.891C383.238 346.485 384.513 346.41 386.933 350.254C388.233 352.321 389.508 354.425 390.56 356.629C391.575 358.758 392.467 361.048 390.164 363.035C388.171 364.755 384.092 365.226 382.192 363.493C377.674 359.358 374.814 354.227 374.282 348.007C374.084 345.661 375.625 344.077 377.377 343.049C378.41 342.437 380.057 342.257 381.326 343.668C377.426 343.291 376.164 345.055 377.055 348.942C378.188 353.893 380.911 357.842 384.34 361.438C385.305 362.453 386.401 363.066 387.577 362.366C388.945 361.549 388.258 360.243 387.837 359.074C387.138 357.155 386.475 355.224 385.844 353.281C385.082 350.941 384.371 348.595 380.924 350.891H380.911Z" fill="black"/>
<path d="M366.588 346.293C365.938 346.565 365.232 346.751 364.645 347.116C363.487 347.84 361.21 347.747 361.507 349.61C361.909 352.098 364.515 353.361 366.867 352.828C367.721 352.637 368.618 352.655 369.528 352.575C369.256 354.791 365.802 354.475 366.334 356.654C366.749 358.362 368.235 359.779 369.064 361.419C370.147 363.573 371.595 365.554 371.682 368.172C371.731 369.614 372.759 370.171 374.276 369.385C375.297 368.859 376.46 368.611 377.686 368.191C377.562 370.054 376.039 370.276 375.16 370.982C373.489 372.325 372.394 373.055 370.5 370.202C367.968 366.383 364.756 362.948 362.453 358.9C361.197 356.697 360.083 354.407 358.833 352.197C357.737 350.26 358.369 348.904 360.151 347.933C362.126 346.856 364.243 346.225 366.588 346.293Z" fill="black"/>
<path d="M643.402 354.45C644.015 355.862 643.866 356.623 643.668 357.446C642.598 361.803 644.788 363.734 649.201 364.013C656.703 364.49 663.511 362.447 670.128 359.47C676.472 356.617 681.919 352.259 687.588 348.298C689.364 347.054 691.054 345.662 693.864 344.684C691.184 348.428 688.25 350.737 685.05 352.748C676.106 358.368 667.089 363.796 656.517 365.919C653.039 366.619 649.548 366.334 646.088 366.179C644.065 366.093 643.216 364.05 642.622 362.311C641.768 359.81 641.428 357.279 643.402 354.438V354.45Z" fill="black"/>
<path d="M400.76 358.275C400.698 359.185 400.865 359.854 400.067 360.126C399.194 360.423 398.383 360.299 397.832 359.581C396.898 358.362 395.914 357.149 395.22 355.793C392.807 351.083 390.492 346.324 388.189 341.558C387.843 340.846 387.738 339.998 387.626 339.2C387.515 338.426 387.849 337.727 388.536 337.386C389.353 336.984 390.151 337.213 390.714 337.956C391.519 339.008 392.454 339.998 393.035 341.162C395.555 346.231 398.303 351.189 400.246 356.524C400.488 357.186 400.642 357.879 400.76 358.275Z" fill="black"/>
<path d="M653.522 503.138C653.608 504.704 652.865 505.57 651.621 506.016C649.139 506.913 646.546 507.507 644.318 509.061C643.773 509.438 642.535 509.612 642.362 509.042C641.106 504.926 637.528 506.709 635.12 506.424C630.379 505.861 625.558 505.991 620.415 504.648C627.105 502.711 633.27 504.407 639.441 504.716C641.329 504.809 642.969 505.236 644.863 503.93C647.419 502.16 650.6 503.305 653.516 503.144L653.522 503.138Z" fill="black"/>
<path d="M437.686 348.199C432.171 340.301 427.275 332.168 424.49 322.816C427.22 322.482 428.247 323.658 429.089 325.657C431.701 331.84 434.517 337.943 437.296 344.058C437.897 345.377 438.038 346.695 437.679 348.205L437.686 348.199Z" fill="black"/>
<path d="M478.888 381.987C472.359 385.787 466.021 389.816 459.046 392.657C458.352 392.942 457.591 393.152 457.009 392.608C456.279 391.927 457.3 391.32 457.275 390.695C457.232 389.278 457.9 388.325 459.033 387.706C465.204 384.339 471.857 382.562 478.882 381.987H478.888Z" fill="black"/>
<path d="M468.75 401.57C468.527 400.376 468.775 399.645 470.638 399.336C473.813 398.81 476.889 397.665 480.015 396.823C480.77 396.619 481.798 396.266 482.119 397.312C482.417 398.284 483.208 399.484 481.878 400.369C479.161 402.177 476.555 404.201 473.665 405.668C471.053 406.992 468.818 405.067 468.756 401.576L468.75 401.57Z" fill="black"/>
<path d="M366.774 336.681C365.592 340.166 362.794 340.927 360.331 341.973C359.013 342.53 358.251 341.174 357.725 340.271C354.884 335.4 353.034 330.077 350.93 324.878C350.156 322.953 352 321.802 353.201 320.657C354.427 319.487 355.639 318.187 357.521 318.113C357.651 318.113 357.973 318.602 357.918 318.757C357.317 320.341 355.751 320.966 354.47 321.653C352.006 322.971 352.322 323.9 353.282 326.499C354.996 331.135 357.837 331.209 361.525 330.151C361.773 331.29 361.006 331.086 360.684 331.234C356.438 333.215 356.104 334.979 359.186 338.519C359.917 339.361 360.665 339.163 361.359 338.921C363.042 338.327 364.664 337.572 366.768 336.693L366.774 336.681Z" fill="black"/>
<path d="M716.733 468.935C717.625 468.88 718.275 469.294 718.813 469.721C720.732 471.256 722.601 472.859 724.483 474.45C725.318 475.162 725.788 475.787 724.996 477.031C724.309 478.108 723.566 478.485 722.489 478.238C719.698 477.582 717.093 476.406 714.505 475.174C713.051 474.481 712.946 473.119 713.342 472.018C713.893 470.507 715.273 469.585 716.727 468.935H716.733Z" fill="black"/>
<path d="M468.224 336.971C465.724 337.993 464.115 338.178 462.289 336.681C456 331.519 452.528 325.094 452.541 316.856C452.541 314.448 455.06 312.245 457.337 312.938C458.173 313.192 458.816 313.644 458.822 314.634C458.835 315.835 457.9 315.482 457.269 315.538C455.245 315.711 454.533 316.813 454.49 318.806C454.317 326.264 460.364 334.657 468.23 336.971H468.224Z" fill="black"/>
<path d="M853.265 781.505C854.973 780.564 855.382 778.986 855.617 777.178C856.539 770.122 856.125 763.036 856.199 755.961C856.211 754.525 856.248 753.139 857.381 751.888C858.569 752.965 858.885 754.321 858.638 755.72C857.499 762.151 858.26 768.631 858.111 775.08C858.068 776.863 857.82 778.596 857.177 780.155C856.527 781.727 855.332 783.095 853.37 781.424L853.271 781.498L853.265 781.505Z" fill="black"/>
<path d="M731.582 362.602C733.569 362.162 734.683 363.487 735.413 365.164C736.342 367.293 737.171 369.478 737.877 371.688C738.069 372.294 738.521 373.414 737.326 373.712C736.41 373.934 735.376 374.566 734.559 373.384C732.764 370.79 730.759 368.327 729.187 365.61C727.881 363.357 728.76 362.348 731.588 362.595L731.582 362.602Z" fill="black"/>
<path d="M309.312 289.988C309.417 290.527 309.126 290.65 308.829 290.731C308.229 290.886 307.882 290.446 307.511 290.106C304.856 287.679 302.2 285.253 299.551 282.815C297.738 281.143 295.918 279.472 294.135 277.764C293.306 276.972 292.446 275.938 293.189 274.83C294.105 273.456 295.002 274.762 295.738 275.276C301.111 279.027 305.072 284.139 309.015 289.258C309.194 289.493 309.25 289.821 309.318 289.988H309.312Z" fill="black"/>
<path d="M836.448 743.118C833.508 743.155 831.318 741.187 831.485 738.773C831.621 736.792 831.738 734.608 834.61 734.577C837.117 734.546 839.593 737.176 839.481 739.838C839.395 741.979 837.946 742.784 836.454 743.124L836.448 743.118Z" fill="black"/>
<path d="M807.408 354.228C809.506 349.27 807.959 343.972 809.085 338.903C810.187 333.939 810.967 328.901 811.889 323.894C814.247 326.902 811.481 346.664 807.408 354.234V354.228Z" fill="black"/>
<path d="M853.364 781.43C851.786 781.047 851.972 779.45 851.972 778.583C851.99 769.157 852.293 759.736 853.859 750.409C853.902 750.155 854.231 749.951 854.59 749.549C856.818 752.829 854.788 756.06 854.676 759.173C854.416 766.625 853.049 774.022 853.259 781.511L853.364 781.43Z" fill="black"/>
<path d="M591.777 496.366C585.804 500.291 579.237 503.15 572.36 505.316C571.364 505.632 570.237 505.267 570.107 504.388C569.971 503.466 571.154 502.958 571.995 502.686C577.337 500.934 582.703 499.251 588.063 497.549C589.301 497.152 590.539 496.763 591.777 496.366Z" fill="black"/>
<path d="M750.224 483.684C745.941 484.396 745.248 481.345 744.357 479.073C743.391 476.616 744.449 474.27 746.783 473.119C749.58 471.739 751.221 473.88 753.071 475.96C751.023 476.789 748.386 476.226 747.426 478.448C746.436 480.738 748.312 482.044 750.23 483.684H750.224Z" fill="black"/>
<path d="M466.962 334.304C467.005 331.184 466.701 328.083 466.305 324.976C465.854 321.417 465.235 320.805 461.72 321.108C460.865 321.182 459.466 321.752 459.293 320.669C459.119 319.598 460.166 318.738 461.478 318.533C463.198 318.261 464.907 318.224 465.848 319.901C468.243 324.184 469.202 328.752 468.045 333.629C467.946 334.056 467.643 334.329 466.956 334.31L466.962 334.304Z" fill="black"/>
<path d="M810.509 321.703C809.952 323.621 808.912 323.838 807.909 323.504C804.455 322.359 800.916 322.272 797.338 322.346C796.434 322.365 795.209 322.421 795.147 321.226C795.085 320.013 796.583 320.093 797.22 320.037C800.036 319.778 802.939 319.474 805.644 320.644C807.142 321.294 808.59 321.975 810.509 321.703Z" fill="black"/>
<path d="M828.736 792.448C831.255 791.173 834.177 791.921 835.427 793.982C836.053 795.022 836.164 796.167 835.433 797.17C834.27 798.767 832.512 798.439 830.897 798.29C829.306 798.142 827.839 797.486 827.214 795.932C826.842 795.016 826.812 793.716 828.21 793.438C830.203 793.048 828.774 794.521 828.99 795.097C829.337 796.013 829.863 796.774 830.834 796.953C831.651 797.108 832.196 796.446 832.506 795.802C832.976 794.818 833.013 793.778 832.079 792.992C831.126 792.188 830.061 791.705 828.736 792.448Z" fill="black"/>
<path d="M424.966 366.91C424.168 366.891 423.401 367.04 423.023 365.926C422.565 364.595 423.518 364.186 424.28 363.902C426.656 363.01 429.089 362.274 431.509 361.506C432.016 361.345 432.53 361.438 432.87 361.921C433.273 362.497 432.852 362.868 432.499 363.202C430.364 365.189 427.869 366.476 424.966 366.91Z" fill="black"/>
<path d="M944.156 361.395C945.45 355.88 944.961 349.994 947.585 344.758C947.888 344.82 948.192 344.875 948.495 344.937C947.356 350.489 946.217 356.035 945.078 361.587C944.768 361.525 944.459 361.457 944.15 361.395H944.156Z" fill="black"/>
<path d="M705.153 378.118C705.246 378.18 705.692 378.341 705.692 378.508C705.692 381.157 707.591 381.529 709.572 381.782C710.377 381.881 710.612 382.302 710.464 383.02C710.309 383.769 709.937 384.382 709.108 384.462C707.344 384.63 706.224 383.54 704.937 382.525C703.556 381.442 704.07 380.167 703.996 378.917C703.958 378.304 704.354 378.013 705.159 378.118H705.153Z" fill="black"/>
<path d="M752.954 343.978C755.739 340.265 759.756 338.587 764.052 337.374C760.35 339.577 756.655 341.775 752.954 343.978Z" fill="black"/>
<path d="M945.06 365.901C950.42 365.232 954.412 366.885 958.354 368.779C954.207 367.881 950.067 366.984 945.06 365.901Z" fill="black"/>
<path d="M961.139 331.933C961.783 337.244 959.555 339.076 953.823 337.479C957.927 337.665 960.935 336.507 961.139 331.939V331.933Z" fill="black"/>
<path d="M553.526 418.009C552.331 417.669 552.214 416.833 551.985 416.245C551.601 415.261 550.722 414.32 551.273 413.138C551.341 412.99 551.83 412.885 552.016 412.977C553.303 413.609 553.322 414.902 553.508 416.072C553.607 416.66 553.526 417.273 553.526 418.009Z" fill="black"/>
<path d="M805.57 329.309C805.557 327.409 805.817 326.122 807.222 325.558C807.854 325.305 808.404 325.923 808.485 326.549C808.732 328.554 807.036 328.554 805.576 329.309H805.57Z" fill="black"/>
<path d="M366.947 832.034C366.217 831.057 365.579 829.992 364.738 829.119C363.778 828.129 362.398 827.461 361.197 828.346C360.189 829.088 359.6 830.289 360.256 831.83C361.587 834.937 363.475 837.846 364.193 841.919C362.324 838.503 360.77 835.686 359.242 832.852C358.171 830.865 357.546 828.797 359.341 826.928C360.572 825.641 362.194 825.901 363.593 826.65C365.691 827.776 367.442 829.237 366.935 832.034H366.947Z" fill="black"/>
<path d="M982.214 310.852C981.205 305.659 979.343 310.277 977.634 310.097C977.43 307.683 977.219 305.226 976.953 302.076C979.262 304.062 978.544 306.006 978.792 307.689C980.129 308.197 980.624 304.836 982.493 307.077C983.644 308.457 983.756 309.342 982.221 310.846L982.214 310.852Z" fill="black"/>
<path d="M965.262 304.657C963.572 304.985 961.802 304.935 961.56 303.481C961.214 301.333 962.05 299.148 963.127 297.223C963.275 296.957 964.593 296.672 964.544 297.923C964.519 298.517 964.408 299.148 964.179 299.693C963.405 301.525 963.065 303.239 965.268 304.651L965.262 304.657Z" fill="black"/>
<path d="M969.093 302.67C970.325 303.691 968.92 306.161 970.702 306.012C973.116 305.808 972.367 303.252 972.695 301.426C975.257 302.868 973.834 304.576 973.079 305.857C972.169 307.398 970.324 307.522 969.031 306.594C967.533 305.523 968.115 304.025 969.086 302.67H969.093Z" fill="black"/>
<path d="M964.723 319.257C962.489 318.855 959.784 318.57 959.246 316.602C958.571 314.133 960.125 311.638 961.821 309.193C962.186 311.168 961.288 312.474 960.843 313.86C960.224 315.773 960.019 317.339 962.65 317.784C963.362 317.902 964.172 318.261 964.717 319.257H964.723Z" fill="black"/>
<path d="M970.473 319.623C969.452 318.824 969.786 317.76 969.304 317.017C968.462 317.314 968.92 319.22 967.638 318.589C966.475 318.013 967.298 316.875 967.793 316.237C968.486 315.352 969.458 314.69 970.603 315.754C972.045 317.085 971.067 318.329 970.473 319.623Z" fill="black"/>
<path d="M962.687 316.144C961.659 313.823 962.087 311.842 964.142 309.67C965.039 312.542 963.479 314.25 962.687 316.144Z" fill="black"/>
<path d="M978.024 467.889C976.681 467.035 976.031 470.266 974.83 468.378C974.174 467.357 973.797 465.908 973.902 464.708C974.026 463.315 974.478 461.495 976.458 461.675C978.278 461.836 980.37 462.56 980.364 464.633C980.364 465.432 981.1 468.675 978.018 467.883L978.024 467.889Z" fill="black"/>
<path d="M635.164 265.113C635.473 267.087 634.52 268.616 634.012 270.232C633.009 273.425 633.808 274.632 637.082 274.694C638.208 274.713 639.335 274.694 640.74 274.694C639.861 278.166 637.045 278.804 634.476 279.478C632.694 279.949 630.515 280.06 629.414 278.222C628.015 275.901 627.86 273.227 629.618 270.974C631.233 268.907 631.877 265.831 635.17 265.101L635.164 265.113Z" fill="black"/>
<path d="M662.496 262.711C661.178 262.73 658.319 258.298 658.288 256.046C658.269 254.312 659.841 253.694 660.968 253.669C664.353 253.582 666.792 255.569 666.779 257.952C666.767 260.731 665.022 262.674 662.496 262.711Z" fill="black"/>
<path d="M645.692 302.522C644.138 302.522 642.9 302.577 641.669 302.509C640.27 302.429 639.286 301.333 639.175 300.25C639.045 299.018 640.437 298.449 641.564 298.307C642.882 298.139 644.263 298.096 645.569 298.288C648.372 298.709 651.157 299.297 653.93 299.872C654.623 300.015 655.397 300.386 655.199 301.296C655.026 302.088 654.221 301.94 653.646 301.903C650.854 301.735 648.174 302.967 645.686 302.522H645.692Z" fill="black"/>
<path d="M627.353 260.106C627.984 261.74 627.372 263.3 626.642 264.934C626.016 266.32 624.97 266.357 624.228 265.621C622.717 264.104 621.498 262.347 621.547 259.976C621.597 257.822 623.584 257.11 624.648 255.773C625.162 255.124 627.372 254.901 627.353 257.197C627.353 258.113 627.353 259.029 627.353 260.106Z" fill="black"/>
</svg>
